<?xml version="1.0" encoding="UTF-8"?>
<svg version="1.1" xmlns="http://www.w3.org/2000/svg" width="512" height="512">
<path d="M0 0 C5.4521357 2.53134872 6.4759981 4.71399714 10 10 C10 17.26 10 24.52 10 32 C62.8 32 115.6 32 170 32 C170 24.74 170 17.48 170 10 C175.17241379 2.24137931 175.17241379 2.24137931 180 0 C185.5997712 -0.75381535 190.33499991 -0.77303575 195.5 1.625 C199.06513686 5.01188002 201.69639119 7.58455122 202.3203125 12.54833984 C202.39313609 15.50022395 202.3490024 18.42396697 202.25 21.375 C202.23195313 22.39722656 202.21390625 23.41945313 202.1953125 24.47265625 C202.14839491 26.98274749 202.08276729 29.49087764 202 32 C203.01904922 31.98667633 203.01904922 31.98667633 204.0586853 31.9730835 C211.16452576 31.8842132 218.2702069 31.82410135 225.37646484 31.78027344 C228.0243166 31.7602262 230.67212446 31.73298116 233.31982422 31.69824219 C237.13780588 31.64942256 240.95519936 31.62696119 244.7734375 31.609375 C245.94675629 31.58872986 247.12007507 31.56808472 248.32894897 31.54681396 C258.03876287 31.54419566 266.22867877 33.53492168 273.46875 40.296875 C279.08878446 46.54772966 282.24548612 53.48574739 282.25726891 61.95779037 C282.2637178 63.13399059 282.27016669 64.31019081 282.276811 65.52203345 C282.2721652 67.44662403 282.2721652 67.44662403 282.26742554 69.41009521 C282.27116367 70.79408206 282.27576584 72.1780668 282.28115618 73.5620482 C282.29338164 77.36013904 282.29312625 81.15814178 282.29076743 84.95624781 C282.29035915 89.0545452 282.30139956 93.15281439 282.31088257 97.25109863 C282.32749131 105.27880303 282.33299207 113.30647806 282.33410732 121.33419821 C282.33505791 127.86048056 282.33916872 134.38675324 282.34550858 140.91303253 C282.36312104 159.42034147 282.3723475 177.92762722 282.37084763 196.4349446 C282.37076772 197.43255546 282.3706878 198.43016632 282.37060547 199.45800781 C282.37052371 200.45683826 282.37044195 201.45566871 282.37035771 202.48476675 C282.36954492 218.6698519 282.38868074 234.85484396 282.4168822 251.03990218 C282.44561747 267.66262947 282.45942213 284.28531137 282.45769465 300.90806413 C282.45703095 310.23883638 282.46251459 319.56951106 282.48405075 328.90026093 C282.50227105 336.84525568 282.50660296 344.79010864 282.4930319 352.73511526 C282.48650638 356.78702826 282.48636983 360.83866929 282.5037384 364.89055634 C282.51949297 368.60418846 282.51658163 372.3173335 282.49917014 376.03095391 C282.49466014 378.00164819 282.50973892 379.97235772 282.52564943 381.94299293 C282.44923519 391.80160831 280.58143497 400.10409488 273.703125 407.46875 C267.45227034 413.08878446 260.51425261 416.24548612 252.04220963 416.25726891 C250.2779093 416.26694224 250.2779093 416.26694224 248.47796655 416.276811 C246.55337597 416.2721652 246.55337597 416.2721652 244.58990479 416.26742554 C243.20591794 416.27116367 241.8219332 416.27576584 240.4379518 416.28115618 C236.63986096 416.29338164 232.84185822 416.29312625 229.04375219 416.29076743 C224.9454548 416.29035915 220.84718561 416.30139956 216.74890137 416.31088257 C208.72119697 416.32749131 200.69352194 416.33299207 192.66580179 416.33410732 C186.13951944 416.33505791 179.61324676 416.33916872 173.08696747 416.34550858 C154.57965853 416.36312104 136.07237278 416.3723475 117.5650554 416.37084763 C116.06863911 416.37072776 116.06863911 416.37072776 114.54199219 416.37060547 C113.54316174 416.37052371 112.54433129 416.37044195 111.51523325 416.37035771 C95.3301481 416.36954492 79.14515604 416.38868074 62.96009782 416.4168822 C46.33737053 416.44561747 29.71468863 416.45942213 13.09193587 416.45769465 C3.76116362 416.45703095 -5.56951106 416.46251459 -14.90026093 416.48405075 C-22.84525568 416.50227105 -30.79010864 416.50660296 -38.73511526 416.4930319 C-42.78702826 416.48650638 -46.83866929 416.48636983 -50.89055634 416.5037384 C-54.60418846 416.51949297 -58.3173335 416.51658163 -62.03095391 416.49917014 C-64.00164819 416.49466014 -65.97235772 416.50973892 -67.94299293 416.52564943 C-77.80160831 416.44923519 -86.10409488 414.58143497 -93.46875 407.703125 C-99.08878446 401.45227034 -102.24548612 394.51425261 -102.25726891 386.04220963 C-102.2637178 384.86600941 -102.27016669 383.68980919 -102.276811 382.47796655 C-102.2737138 381.19490617 -102.2706166 379.91184578 -102.26742554 378.58990479 C-102.27116367 377.20591794 -102.27576584 375.8219332 -102.28115618 374.4379518 C-102.29338164 370.63986096 -102.29312625 366.84185822 -102.29076743 363.04375219 C-102.29035915 358.9454548 -102.30139956 354.84718561 -102.31088257 350.74890137 C-102.32749131 342.72119697 -102.33299207 334.69352194 -102.33410732 326.66580179 C-102.33505791 320.13951944 -102.33916872 313.61324676 -102.34550858 307.08696747 C-102.36312104 288.57965853 -102.3723475 270.07237278 -102.37084763 251.5650554 C-102.37076772 250.56744454 -102.3706878 249.56983368 -102.37060547 248.54199219 C-102.37052371 247.54316174 -102.37044195 246.54433129 -102.37035771 245.51523325 C-102.36954492 229.3301481 -102.38868074 213.14515604 -102.4168822 196.96009782 C-102.44561747 180.33737053 -102.45942213 163.71468863 -102.45769465 147.09193587 C-102.45703095 137.76116362 -102.46251459 128.43048894 -102.48405075 119.09973907 C-102.50227105 111.15474432 -102.50660296 103.20989136 -102.4930319 95.26488474 C-102.48650638 91.21297174 -102.48636983 87.16133071 -102.5037384 83.10944366 C-102.51949297 79.39581154 -102.51658163 75.6826665 -102.49917014 71.96904609 C-102.49466014 69.99835181 -102.50973892 68.02764228 -102.52564943 66.05700707 C-102.44923519 56.19839169 -100.58143497 47.89590512 -93.703125 40.53125 C-87.5094551 34.96262936 -80.58596506 31.73490514 -72.17822266 31.77294922 C-70.49715927 31.77317581 -70.49715927 31.77317581 -68.78213501 31.77340698 C-66.99118912 31.78889084 -66.99118912 31.78889084 -65.1640625 31.8046875 C-63.92957367 31.8075174 -62.69508484 31.81034729 -61.42318726 31.81326294 C-57.49035851 31.82443478 -53.55775963 31.84953436 -49.625 31.875 C-46.95443041 31.88616175 -44.28386299 31.89415881 -41.61328125 31.90234375 C-35.07544275 31.92436435 -28.5377378 31.95781241 -22 32 C-22.0314209 31.04746338 -22.0314209 31.04746338 -22.06347656 30.07568359 C-22.14704581 27.17561924 -22.19878774 24.27580884 -22.25 21.375 C-22.28351563 20.37597656 -22.31703125 19.37695312 -22.3515625 18.34765625 C-22.43315123 12.18770715 -22.1132688 8.68372214 -18 4 C-12.72867143 -1.00776214 -6.89190982 -0.92775709 0 0 Z M-70 64 C-70 85.12 -70 106.24 -70 128 C35.6 128 141.2 128 250 128 C250 106.88 250 85.76 250 64 C234.16 64 218.32 64 202 64 C201.67 71.26 201.34 78.52 201 86 C196.24385102 93.13422347 196.24385102 93.13422347 192 95 C186.45191396 95.82885269 181.52859117 95.7240695 176.4375 93.3125 C167.35043028 84.69143386 170.65996003 78.51912073 170 64 C117.2 64 64.4 64 10 64 C9.67 71.26 9.34 78.52 9 86 C4.24385102 93.13422347 4.24385102 93.13422347 0 95 C-5.54808604 95.82885269 -10.47140883 95.7240695 -15.5625 93.3125 C-24.64956972 84.69143386 -21.34003997 78.51912073 -22 64 C-37.84 64 -53.68 64 -70 64 Z M-70 160 C-70 233.92 -70 307.84 -70 384 C35.6 384 141.2 384 250 384 C250 310.08 250 236.16 250 160 C144.4 160 38.8 160 -70 160 Z " fill="#000000" transform="translate(166,32)"/>
<path d="M0 0 C4.8846525 2.26787438 7.73212562 5.1153475 10 10 C10.72554287 15.38974707 10.81827107 20.18557285 8.5625 25.1875 C3.0435462 31.24488831 -2.74891614 36.85621383 -8.96875 42.1875 C-11.23638572 44.2109288 -13.3657695 46.33653347 -15.5 48.5 C-18.22829407 51.26560408 -20.98516834 53.91287031 -23.9375 56.4375 C-27.1103592 59.15619248 -30.06338382 62.02751675 -33 65 C-36.54232199 68.58558699 -40.17555661 71.94891662 -44.00390625 75.22265625 C-47.06666727 77.94977223 -49.90223493 80.89404637 -52.78125 83.8125 C-55.40771122 86.40196881 -58.16976458 88.78836964 -60.96875 91.1875 C-64.03974317 93.92777083 -66.88786876 96.87946902 -69.77734375 99.80859375 C-72.42344912 102.41749553 -75.20131935 104.82801392 -78.02734375 107.23828125 C-80.16849081 109.15047397 -82.13734672 111.17937069 -84.125 113.25 C-89.72538963 118.83955716 -94.12554392 120.30664118 -101.92578125 120.69140625 C-110.22897308 118.82397937 -116.37474154 112.00904865 -122.0625 106.0625 C-126.59509273 101.37837516 -131.1791237 96.90042012 -136.12280273 92.65014648 C-138.88042624 90.22606308 -141.43860616 87.62800837 -144 85 C-147.33630056 81.61277557 -150.68053995 78.32482443 -154.3125 75.25 C-165.67339406 65.57660276 -165.67339406 65.57660276 -166.23828125 59.390625 C-166.49029126 48.72662238 -166.49029126 48.72662238 -162 44 C-158.18069828 40.37166337 -155.11720994 39.68999542 -150 39.5 C-141.9632243 39.80720104 -138.17556229 43.64565292 -132.8359375 49.16015625 C-131.04208805 50.9578224 -129.18348062 52.60456854 -127.25 54.25 C-123.84159411 57.18281437 -120.65626704 60.30096364 -117.5 63.5 C-111.6464125 69.42507094 -105.51492705 74.81716284 -99 80 C-89.76216853 71.39415992 -80.54767406 62.76417681 -71.359375 54.10546875 C-68.37337344 51.29173651 -65.38340532 48.48230203 -62.390625 45.67578125 C-61.63442871 44.96599121 -60.87823242 44.25620117 -60.09912109 43.52490234 C-58.66537855 42.17929326 -57.23086622 40.83450367 -55.79541016 39.49072266 C-52.56378573 36.45567485 -49.37381243 33.39228425 -46.25 30.24609375 C-43.95218691 27.93236423 -41.62359212 25.72381738 -39.125 23.625 C-36.1153247 21.03365795 -33.28911384 18.32745217 -30.5 15.5 C-26.49445355 11.45308818 -22.38074173 7.63648668 -18 4 C-17.0925 3.195625 -16.185 2.39125 -15.25 1.5625 C-10.23468218 -0.84871049 -5.46049962 -0.73506726 0 0 Z " fill="#000000" transform="translate(334,240)"/>
</svg>
