<?xml version="1.0" encoding="UTF-8"?>
<svg version="1.1" xmlns="http://www.w3.org/2000/svg" width="512" height="512">
<path d="M0 0 C1.08874924 0.46850372 1.08874924 0.46850372 2.19949341 0.94647217 C4.51388844 1.94613061 6.81931071 2.96482243 9.125 3.984375 C10.63079332 4.63799729 12.13714037 5.29034543 13.64404297 5.94140625 C18.43840202 8.01865744 23.21962782 10.12517818 28 12.234375 C29.76451845 13.0115036 31.52908667 13.78851922 33.29370117 14.56542969 C36.99336934 16.19476218 40.69241375 17.8255012 44.39111328 19.45703125 C49.25219897 21.60071203 54.11585961 23.73848444 58.98028564 25.87457275 C62.86315995 27.58020636 66.74484969 29.28852376 70.62628174 30.99743652 C72.47819521 31.81228006 74.33052108 32.62618708 76.18328857 33.43908691 C108.53635457 47.63877081 108.53635457 47.63877081 113.3125 55.859375 C113.80105469 56.68179688 114.28960937 57.50421875 114.79296875 58.3515625 C117.30054457 63.30788539 118.43159634 67.67999764 118.5 73.234375 C118.52835937 74.27078125 118.55671875 75.3071875 118.5859375 76.375 C117.70995757 83.2343683 114.71459884 89.11136186 111.2578125 95.03515625 C103.87232133 107.76938399 102.04542721 116.27935535 104.73828125 130.70166016 C106.40682997 140.55073245 105.49826959 149.95266096 100.0625 158.421875 C98.125 160.984375 98.125 160.984375 96.125 162.984375 C95.62886395 165.90533123 95.62886395 165.90533123 95.4140625 169.37109375 C95.30528447 170.7038796 95.1962231 172.03664236 95.08691406 173.36938477 C95.00528015 174.42187912 95.00528015 174.42187912 94.92199707 175.49563599 C92.2632756 209.13582177 86.81790737 253.70665576 60.1081543 277.80395508 C54.17492822 283.44302685 52.66097743 288.87456669 52.25024414 296.80078125 C52.21877246 298.2576227 52.19801834 299.71473161 52.1875 301.171875 C52.16935745 302.28079102 52.16935745 302.28079102 52.15084839 303.41210938 C52.14889301 309.66386797 52.31729933 315.55818245 56.17578125 320.73681641 C61.44350895 325.24815756 67.45205684 327.9278955 73.84204102 330.49291992 C76.76113625 331.81907094 79.254079 333.35211154 81.89389038 335.15592957 C93.53635717 342.96064113 107.16583596 345.66800078 120.5625 349.171875 C125.58503059 350.50850328 130.60407226 351.85769044 135.62109375 353.21484375 C136.81485123 353.53707413 138.0086087 353.8593045 139.23854065 354.19129944 C165.96732293 361.51225944 187.863272 373.29154638 202.3125 397.671875 C211.2886668 413.52261995 213.44663454 430.26730134 213.42578125 448.296875 C213.42968071 449.72363405 213.43401789 451.15039196 213.43876648 452.57714844 C213.44615577 455.53861293 213.44598738 458.49995797 213.44067383 461.46142578 C213.43483272 465.24861551 213.45195579 469.03532351 213.4750185 472.82243347 C213.48975458 475.7564375 213.4906287 478.69032465 213.48750877 481.62435913 C213.48802022 483.02136198 213.4932246 484.41837167 213.50332069 485.81533813 C213.51568902 487.7622705 213.50694672 489.70930218 213.49731445 491.65625 C213.49794388 492.7606543 213.4985733 493.86505859 213.4992218 495.00292969 C212.97834239 499.15280408 211.25202078 501.72731336 208.5 504.796875 C204.76745373 506.66314814 201.20922735 506.64076868 197.125 505.984375 C193.00688458 503.61864912 191.5518051 501.42611397 190.125 496.984375 C189.8734436 493.93373108 189.8734436 493.93373108 189.86962891 490.48852539 C189.86266998 489.19270035 189.85571106 487.89687531 189.84854126 486.56178284 C189.84956282 485.52907855 189.84956282 485.52907855 189.85060501 484.47551155 C189.85157709 482.2993617 189.83854363 480.12369677 189.82162476 477.94761658 C189.77559143 471.76223614 189.75080819 465.57690339 189.74414062 459.39135742 C189.7390686 455.5987337 189.71452745 451.80661096 189.67881393 448.01415825 C189.66913757 446.5827685 189.66661605 445.1513087 189.67198563 443.71989632 C189.73867871 425.04692008 184.1964712 408.60599229 171.125 394.984375 C159.08793428 384.29423306 145.20635925 380.19497639 130 375.984375 C128.43792209 375.54699482 126.87599241 375.10908488 125.31420898 374.6706543 C122.27765428 373.81909835 119.24001222 372.97158264 116.20166016 372.12646484 C112.78683293 371.17391453 109.38166645 370.19168965 105.98046875 369.19140625 C105.14467285 368.94841797 104.30887695 368.70542969 103.44775391 368.45507812 C101.99616097 368.03236322 100.54641709 367.6032161 99.09912109 367.16601562 C95.71461943 366.19725377 93.42946731 365.67824362 90.125 366.984375 C88.67238626 368.64097295 88.67238626 368.64097295 87.53125 370.7890625 C87.06412598 371.59118164 86.59700195 372.39330078 86.11572266 373.21972656 C85.37781494 374.52635254 85.37781494 374.52635254 84.625 375.859375 C83.56182321 377.686019 82.49666543 379.51151121 81.4296875 381.3359375 C80.88538086 382.27211914 80.34107422 383.20830078 79.78027344 384.17285156 C77.18612191 388.57908297 74.47943795 392.91103522 71.75 397.234375 C71.27498047 397.99476074 70.79996094 398.75514648 70.31054688 399.53857422 C57.17103414 420.34586554 57.17103414 420.34586554 45.60546875 423.55078125 C36.95778164 425.06242419 29.29782733 424.02206304 21.125 420.984375 C18.43944391 422.97071 18.43944391 422.97071 16.125 425.984375 C15.92725941 428.94931603 16.00219405 431.16750661 16.40625 434.0546875 C16.53800629 435.23377937 16.53800629 435.23377937 16.67242432 436.43669128 C16.96459349 438.99794984 17.29465642 441.55278612 17.625 444.109375 C17.83240365 445.87363242 18.03714099 447.63820526 18.23925781 449.40307617 C18.74669828 453.7894477 19.28255975 458.17178742 19.82641602 462.55377197 C20.41277526 467.32699033 20.95350656 472.10523765 21.49023438 476.88427734 C21.73833862 479.08478567 21.99426372 481.28443311 22.25976562 483.48291016 C24.28538979 500.80539165 24.28538979 500.80539165 21.25 505.546875 C19.0159267 508.10948849 18.23445701 508.86459292 14.91796875 509.22265625 C10.77061744 509.34079669 7.88450539 509.3641277 4.125 507.484375 C-0.33841513 501.90510609 -0.416573 493.57962767 -1.1640625 486.67578125 C-1.27221283 485.70962387 -1.38036316 484.74346649 -1.49179077 483.74803162 C-1.71790948 481.71537397 -1.94130484 479.6824117 -2.16210938 477.64916992 C-2.49869983 474.5588123 -2.84638556 471.46984566 -3.1953125 468.38085938 C-3.41472892 466.39590689 -3.63350032 464.41088297 -3.8515625 462.42578125 C-4.00620468 461.05662315 -4.00620468 461.05662315 -4.16397095 459.6598053 C-4.76305173 454.06594731 -4.9685365 448.61048814 -4.875 442.984375 C-5.865 443.314375 -6.855 443.644375 -7.875 443.984375 C-14.76751325 445.92984245 -20.05896723 444.97733232 -26.875 442.984375 C-26.91963379 443.88196533 -26.96426758 444.77955566 -27.01025391 445.7043457 C-27.61618925 456.61049791 -28.67554683 467.43767087 -29.921875 478.28833008 C-30.25373834 481.20472736 -30.56826707 484.12270596 -30.8828125 487.04101562 C-31.09529631 488.9115788 -31.30879989 490.78202649 -31.5234375 492.65234375 C-31.61418549 493.51691696 -31.70493347 494.38149017 -31.7984314 495.27226257 C-32.34328493 499.83221032 -32.95692268 503.26767067 -35.875 506.984375 C-40.11052856 509.80806071 -43.89977314 509.65091257 -48.875 508.984375 C-51.80923195 507.18790646 -53.34705355 506.0402679 -54.875 502.984375 C-55.4574054 494.54239948 -54.48044311 486.19544582 -53.42580223 477.83070564 C-53.16133537 475.71650264 -52.90945255 473.60113646 -52.66120911 471.48497009 C-51.95634702 465.4786592 -51.2445462 459.47350296 -50.48852539 453.47338867 C-50.02397279 449.77924163 -49.58623125 446.08275635 -49.16588783 442.38332939 C-49.00156981 440.98232741 -48.82728975 439.58245538 -48.64272118 438.18397713 C-48.3865479 436.23526096 -48.16742144 434.28178311 -47.94995117 432.32836914 C-47.74676521 430.66723839 -47.74676521 430.66723839 -47.53947449 428.97254944 C-47.99542477 424.91187769 -49.82139514 423.54887327 -52.875 420.984375 C-53.74898438 421.30921875 -53.74898438 421.30921875 -54.640625 421.640625 C-63.52022421 424.65633794 -72.85815351 425.62524052 -81.7421875 422.04296875 C-92.46148364 416.7225855 -97.30685781 407.65516619 -103.24853516 397.69580078 C-105.49359568 393.95313459 -107.79946487 390.24939012 -110.10449219 386.54345703 C-111.73006534 383.92943502 -113.3486326 381.31122413 -114.96484375 378.69140625 C-117.58616152 374.44600172 -120.22664601 370.2129623 -122.875 365.984375 C-130.07809934 367.31299602 -137.10070807 369.0437419 -144.1484375 371.03125 C-145.19343414 371.32493469 -146.23843079 371.61861938 -147.31509399 371.92120361 C-149.51244301 372.54096925 -151.70916221 373.16297185 -153.90527344 373.78710938 C-157.23062792 374.7288886 -160.56043366 375.65361825 -163.890625 376.578125 C-184.20059337 382.29285121 -201.44745599 389.00514984 -212.875 407.984375 C-220.93516195 423.18917939 -221.99379027 437.03800832 -222.05078125 454.0078125 C-222.06803679 456.00057704 -222.08531571 457.99334171 -222.10398388 459.98609352 C-222.14923035 464.8495928 -222.18740964 469.71296066 -222.20092773 474.57666016 C-222.20906133 477.3255311 -222.22760899 480.07394573 -222.25785828 482.82266235 C-222.28596006 485.39901589 -222.29892517 487.97558971 -222.29499817 490.55209351 C-222.31148911 491.71745636 -222.32798004 492.88281921 -222.3449707 494.08349609 C-222.35377007 495.61591446 -222.35377007 495.61591446 -222.36274719 497.17929077 C-223.01001802 500.72373048 -224.41395209 502.40009061 -226.875 504.984375 C-229.96194821 506.81985772 -231.75907944 506.98644501 -235.375 506.921875 C-239.55521557 505.8021744 -241.1775601 504.31650664 -243.875 500.984375 C-244.94466166 497.77539002 -245.00824789 495.4566258 -245.02026367 492.08276367 C-245.02664352 490.86687057 -245.03302338 489.65097748 -245.03959656 488.39823914 C-245.04070938 487.07959366 -245.0418222 485.76094818 -245.04296875 484.40234375 C-245.0461857 483.02769436 -245.0495501 481.6530453 -245.05305481 480.27839661 C-245.05904822 477.3891216 -245.06089491 474.49987649 -245.06030273 471.6105957 C-245.06020205 467.9474216 -245.07375518 464.28444545 -245.09107494 460.62131786 C-245.10232809 457.77530582 -245.10421778 454.92933926 -245.10369301 452.08330727 C-245.10541593 450.08849772 -245.11618646 448.09370238 -245.12724304 446.09892273 C-245.06063586 419.02490036 -237.16355675 396.18160336 -217.875 376.984375 C-200.26164834 361.07013743 -177.8444556 355.99565443 -155.53355408 350.01106262 C-152.06606333 349.07760758 -148.60246827 348.13009834 -145.13894653 347.18203735 C-142.63095606 346.50291186 -140.11767617 345.84704131 -137.60327148 345.19213867 C-127.29069411 342.42927479 -118.87630412 338.75981518 -109.875 332.984375 C-108.95662354 332.41831543 -108.03824707 331.85225586 -107.09204102 331.26904297 C-104.65009528 329.75947652 -102.2286294 328.22234324 -99.8125 326.671875 C-98.21775278 325.6544699 -96.62270976 324.63752827 -95.02734375 323.62109375 C-94.0062854 322.96693481 -94.0062854 322.96693481 -92.96459961 322.29956055 C-90.875 320.984375 -90.875 320.984375 -88.16357422 319.76928711 C-85.5429657 318.11892128 -85.5429657 318.11892128 -85.18041992 314.75732422 C-85.07556658 309.45562197 -85.07556658 309.45562197 -85.05834961 304.15332031 C-85.06245323 301.8852224 -84.99770851 299.62624015 -84.92773438 297.359375 C-84.8420986 290.61683916 -84.85443696 285.14433205 -89.61328125 279.87109375 C-91.02267427 278.56336751 -92.44245872 277.26670182 -93.875 275.984375 C-116.97646724 247.21433184 -125.04215501 208.43401161 -127.07495117 172.44433594 C-127.14045166 171.2896582 -127.20595215 170.13498047 -127.2734375 168.9453125 C-127.34377197 167.37595947 -127.34377197 167.37595947 -127.41552734 165.77490234 C-128.04607834 161.94536043 -129.72789342 160.0404393 -132.4453125 157.39453125 C-136.80980443 153.08966353 -136.92437335 146.2308183 -137.0078125 140.4453125 C-137.00183048 136.78465001 -136.67558113 133.38384231 -136.015625 129.78515625 C-133.30277001 113.98954732 -137.28534434 104.90926301 -145.47167969 91.48730469 C-150.52665686 82.4713642 -151.62406819 72.22330049 -148.8125 62.234375 C-144.10624712 50.35980176 -134.8172774 45.07379622 -123.6015625 40.1171875 C-121.23713888 39.10808258 -118.86977324 38.10585209 -116.5 37.109375 C-113.81478999 35.96601189 -111.1320345 34.81693658 -108.44921875 33.66796875 C-107.75250565 33.3703212 -107.05579254 33.07267365 -106.33796692 32.76600647 C-99.04229772 29.64286273 -91.79623989 26.41073622 -84.55117798 23.17233276 C-70.84148869 17.04551809 -57.09511463 11.00784356 -43.3125 5.046875 C-42.50142792 4.69563568 -41.69035583 4.34439636 -40.85470581 3.98251343 C-38.56918341 2.9932653 -36.28283231 2.00596435 -33.99609375 1.01953125 C-33.31659668 0.72553436 -32.63709961 0.43153748 -31.93701172 0.12863159 C-21.17723794 -4.50093182 -10.67974665 -4.79382448 0 0 Z M-27.42578125 22.5078125 C-28.26057007 22.88072922 -29.09535889 23.25364594 -29.95544434 23.63786316 C-32.70411711 24.86827997 -35.44563346 26.1138745 -38.1875 27.359375 C-40.10907458 28.22248619 -42.03120223 29.08436701 -43.95385742 29.94506836 C-46.93272899 31.27899031 -49.9111204 32.61390684 -52.88764954 33.95304871 C-62.25674816 38.16795198 -71.6640269 42.29295745 -81.07839966 46.40548706 C-86.12281239 48.61223693 -91.16077939 50.83365716 -96.1995697 53.0532074 C-100.86584164 55.1067877 -105.54103013 57.13793438 -110.22265625 59.15625 C-112.23203776 60.03584881 -114.24118028 60.91599394 -116.25 61.796875 C-117.11729736 62.16304932 -117.98459473 62.52922363 -118.87817383 62.90649414 C-122.24148685 64.3986013 -124.4873901 65.55569862 -126.9765625 68.30859375 C-128.90873536 74.06310858 -126.895454 78.21476529 -124.40625 83.4453125 C-123.40608673 85.42188846 -122.3953768 87.39315775 -121.375 89.359375 C-120.86324219 90.36871094 -120.35148437 91.37804687 -119.82421875 92.41796875 C-117.76522837 96.983696 -117.76522837 96.983696 -114.875 100.984375 C-112.3204283 101.0821375 -109.79291539 101.11432646 -107.23789978 101.10462952 C-106.42850199 101.10548394 -105.6191042 101.10633837 -104.7851792 101.10721868 C-102.05199528 101.10887596 -99.31887169 101.10334809 -96.58569336 101.09790039 C-94.63483176 101.09761855 -92.68397006 101.0977762 -90.73310852 101.0983429 C-85.41927841 101.09863098 -80.10547066 101.09273254 -74.79164577 101.08576894 C-69.24493315 101.07953716 -63.69822009 101.07893174 -58.15150452 101.07774353 C-47.64007375 101.07462969 -37.12865334 101.0664156 -26.61722714 101.05639404 C-14.65370865 101.04523453 -2.69018968 101.03972286 9.27333272 101.03469861 C33.89056089 101.02423303 58.50777987 101.00663258 83.125 100.984375 C84.73020934 97.94325751 86.33397836 94.90138267 87.9375 91.859375 C88.38931641 91.0034375 88.84113281 90.1475 89.30664062 89.265625 C90.18735216 87.59420164 91.06511875 85.92122267 91.93969727 84.24658203 C92.93070899 82.3551887 93.93975048 80.47325659 94.953125 78.59375 C96.57923027 74.97295561 96.17548966 72.76613778 95.125 68.984375 C92.57375363 66.01586871 90.16137929 64.27537742 86.609375 62.6796875 C85.70598389 62.26912109 84.80259277 61.85855469 83.87182617 61.43554688 C82.88287354 60.99791016 81.8939209 60.56027344 80.875 60.109375 C79.81708252 59.63306641 78.75916504 59.15675781 77.66918945 58.66601562 C67.93284408 54.29972727 58.15397895 50.02744369 48.37084961 45.76708984 C35.24101936 40.04884689 22.14408168 34.2568697 9.0508728 28.45532227 C6.33239428 27.25078157 3.61347953 26.04722986 0.89453125 24.84375 C0.0813443 24.48291321 -0.73184265 24.12207642 -1.56967163 23.75030518 C-3.04522948 23.09741457 -4.52254974 22.44848455 -6.00204468 21.80456543 C-7.52617389 21.13713029 -9.0389854 20.44389625 -10.5480957 19.74316406 C-16.96095696 17.65196977 -21.63083523 19.84278574 -27.42578125 22.5078125 Z M-112.875 122.984375 C-114.26619252 127.15795255 -114.13877457 131.11207969 -114.1875 135.484375 C-114.21650391 136.35191406 -114.24550781 137.21945313 -114.27539062 138.11328125 C-114.28376953 138.94730469 -114.29214844 139.78132813 -114.30078125 140.640625 C-114.31536377 141.40181641 -114.32994629 142.16300781 -114.3449707 142.94726562 C-114.0338766 145.09697209 -114.0338766 145.09697209 -112.32008362 146.5878849 C-109.00069718 148.48372612 -106.00243263 148.4000293 -102.28369141 148.36532593 C-101.51538813 148.3700059 -100.74708485 148.37468587 -99.95549965 148.37950766 C-97.37901208 148.39148126 -94.80305409 148.38199136 -92.2265625 148.37255859 C-90.38026621 148.37662325 -88.53397235 148.38196453 -86.68768311 148.38848877 C-81.67122194 148.40218078 -76.65494559 148.39685593 -71.63848114 148.38735151 C-66.3926086 148.3797647 -61.14675206 148.3867978 -55.90087891 148.39151001 C-47.09079136 148.39697041 -38.28077922 148.38976847 -29.47070312 148.37548828 C-19.28004984 148.35916124 -9.08957661 148.36444955 1.10107231 148.3809675 C9.84510783 148.39457424 18.5890891 148.39650599 27.33313179 148.38865149 C32.55795366 148.38397051 37.78269086 148.38336179 43.00750732 148.39326096 C47.91918125 148.40191652 52.83062266 148.3959345 57.74227142 148.37857819 C59.5466549 148.3746058 61.3510579 148.3757602 63.15543365 148.38236618 C65.61511855 148.39054217 68.07405447 148.38030833 70.53369141 148.36532593 C71.60936906 148.37536418 71.60936906 148.37536418 72.70677757 148.38560522 C75.80134354 148.34894497 77.85836795 148.13665978 80.57008362 146.5878849 C82.2838766 145.09697209 82.2838766 145.09697209 82.5949707 142.94726562 C82.57309692 141.80547852 82.57309692 141.80547852 82.55078125 140.640625 C82.54240234 139.80660156 82.53402344 138.97257813 82.52539062 138.11328125 C82.49638672 137.24574219 82.46738281 136.37820312 82.4375 135.484375 C82.42299805 134.18306641 82.42299805 134.18306641 82.40820312 132.85546875 C82.34447111 129.2698501 82.2672161 126.41102331 81.125 122.984375 C17.105 122.984375 -46.915 122.984375 -112.875 122.984375 Z M-104.875 169.984375 C-102.08846465 215.81537673 -89.89456703 252.48082522 -55.21044922 283.47167969 C-52.18106718 286.08545415 -49.0506073 288.55199494 -45.875 290.984375 C-44.80185547 291.85835937 -44.80185547 291.85835937 -43.70703125 292.75 C-43.04058594 293.28109375 -42.37414062 293.8121875 -41.6875 294.359375 C-40.86185547 295.02066406 -40.86185547 295.02066406 -40.01953125 295.6953125 C-32.18791466 300.4028416 -24.9520047 300.47375701 -16 300.421875 C-14.78441406 300.44185547 -13.56882812 300.46183594 -12.31640625 300.48242188 C-1.45390994 300.47656292 6.58554393 298.17223606 14.625 290.796875 C15.17269043 290.31347656 15.72038086 289.83007812 16.28466797 289.33203125 C17.39009342 288.35315173 18.49034219 287.36839061 19.58496094 286.37744141 C20.97350161 285.12141524 22.38024105 283.88557895 23.7890625 282.65234375 C26.27064767 280.46618538 28.70333155 278.23664216 31.125 275.984375 C32.00800781 275.17871094 32.89101563 274.37304688 33.80078125 273.54296875 C58.86728797 249.75283296 71.13020509 213.49141899 72.2421875 179.390625 C72.24874341 176.58469655 72.21899421 173.78853547 72.125 170.984375 C67.73835031 174.59117585 63.68223837 178.38262701 59.6875 182.421875 C55.33128061 186.82394155 50.8880855 191.02470151 46.125 194.984375 C45.10019531 195.87769531 45.10019531 195.87769531 44.0546875 196.7890625 C34.95589531 204.3876954 23.23733262 209.18030288 11.32617188 209.29077148 C10.01370483 209.30675888 8.70123779 209.32274628 7.34899902 209.33921814 C5.93058669 209.34559964 4.51216962 209.35099086 3.09375 209.35546875 C1.61511149 209.36445513 0.1364738 209.37357727 -1.34216309 209.38282776 C-4.43874302 209.39927335 -7.53521549 209.40700873 -10.63183594 209.40991211 C-14.55747508 209.41526645 -18.48207078 209.45284126 -22.4074173 209.49865627 C-25.46365827 209.52873985 -28.51965856 209.53564248 -31.57603455 209.53663826 C-33.02063229 209.54078525 -34.46523459 209.5529909 -35.90968323 209.57415581 C-52.06521306 209.79188416 -66.66612296 205.5725712 -78.71484375 194.3359375 C-80.61521018 192.45829496 -82.46510002 190.54464676 -84.31640625 188.6171875 C-87.04315382 185.81134344 -89.91058611 183.28639179 -92.88671875 180.75390625 C-96.1050539 177.8896512 -99.08600423 174.79330891 -102.08984375 171.70703125 C-103.58146661 169.86864204 -103.58146661 169.86864204 -104.875 169.984375 Z M-70.875 169.984375 C-63.22721108 178.90679541 -56.571317 185.54796984 -44.875 187.984375 C-42.97320003 188.08985072 -41.0682062 188.14279615 -39.16357422 188.16137695 C-37.44060623 188.18062981 -37.44060623 188.18062981 -35.68283081 188.20027161 C-34.44429352 188.20765854 -33.20575623 188.21504547 -31.9296875 188.22265625 C-30.64949738 188.230728 -29.36930725 188.23879974 -28.05032349 188.24711609 C-25.33856339 188.26211962 -22.62682921 188.27196712 -19.91503906 188.27954102 C-16.46539861 188.29056417 -13.01641054 188.32492486 -9.56699944 188.36471272 C-6.2504237 188.39738225 -2.93391155 188.40167541 0.3828125 188.41015625 C1.60920441 188.42766434 2.83559631 188.44517242 4.09915161 188.46321106 C19.53740224 188.42452721 29.30487785 181.52650982 40.125 170.984375 C40.125 170.654375 40.125 170.324375 40.125 169.984375 C3.495 169.984375 -33.135 169.984375 -70.875 169.984375 Z M-62.875 305.984375 C-64.21649596 310.79336345 -64.68943901 315.27769357 -62.875 319.984375 C-57.14328963 327.95878836 -49.22038767 334.38259973 -41.81640625 340.7565918 C-36.2416451 345.5608974 -31.05182261 350.69336369 -25.875 355.921875 C-25.00488281 356.79650391 -24.13476562 357.67113281 -23.23828125 358.57226562 C-21.11486451 360.70734949 -18.99383622 362.84474705 -16.875 364.984375 C-13.32019997 363.47595687 -11.07940378 361.40803839 -8.390625 358.66015625 C-7.53726563 357.79583984 -6.68390625 356.93152344 -5.8046875 356.04101562 C-4.92039062 355.13544922 -4.03609375 354.22988281 -3.125 353.296875 C2.77527799 347.27841637 8.70702849 341.44830207 15.125 335.984375 C26.10254936 327.54853852 26.10254936 327.54853852 32.15625 315.83203125 C32.12838878 312.40161862 31.87700139 309.32660339 31.125 305.984375 C30.66351563 306.34789062 30.20203125 306.71140625 29.7265625 307.0859375 C26.0242585 309.93949197 22.25317831 312.65614597 18.3125 315.171875 C17.22001953 315.87376953 17.22001953 315.87376953 16.10546875 316.58984375 C6.48420174 321.09153749 -2.94440264 321.48740492 -13.37158203 321.43041992 C-15.7394936 321.42191275 -18.10498152 321.45075797 -20.47265625 321.48242188 C-32.07716971 321.53716158 -43.02439028 320.25666918 -52.875 313.484375 C-53.720625 312.9171875 -54.56625 312.35 -55.4375 311.765625 C-57.97819689 309.90896189 -60.4350777 307.97116887 -62.875 305.984375 Z M-87.27978516 345.17333984 C-88.99231102 346.22963241 -90.71633245 347.26514602 -92.44140625 348.30078125 C-94.05208984 349.29658203 -94.05208984 349.29658203 -95.6953125 350.3125 C-96.68805176 350.9199707 -97.68079102 351.52744141 -98.70361328 352.15332031 C-99.4201709 352.75756836 -100.13672852 353.36181641 -100.875 353.984375 C-100.875 357.99510054 -100.66818395 358.82656671 -98.70703125 362.046875 C-98.23209229 362.83449219 -97.75715332 363.62210937 -97.26782227 364.43359375 C-96.74631592 365.27535156 -96.22480957 366.11710937 -95.6875 366.984375 C-95.15374756 367.85707031 -94.61999512 368.72976563 -94.07006836 369.62890625 C-92.35173621 372.42260109 -90.61607241 375.20480185 -88.875 377.984375 C-88.00198242 379.38429688 -88.00198242 379.38429688 -87.11132812 380.8125 C-85.39972295 383.54496222 -83.67243951 386.26667945 -81.9375 388.984375 C-81.40680908 389.82613281 -80.87611816 390.66789062 -80.3293457 391.53515625 C-76.46977934 397.61095281 -76.46977934 397.61095281 -70.875 401.984375 C-66.13678711 401.64640226 -63.17615683 400.21338537 -59.28515625 397.5625 C-58.25326172 396.86640625 -57.22136719 396.1703125 -56.15820312 395.453125 C-55.09537109 394.7209375 -54.03253906 393.98875 -52.9375 393.234375 C-51.87853516 392.51765625 -50.81957031 391.8009375 -49.72851562 391.0625 C-44.39228355 387.44065315 -39.10225479 383.76168003 -33.875 379.984375 C-38.70501933 374.16959444 -43.89406267 368.81504847 -49.25 363.484375 C-50.06210938 362.66839844 -50.87421875 361.85242188 -51.7109375 361.01171875 C-56.06187031 356.66775859 -60.49332528 352.4969464 -65.15576172 348.48974609 C-68.01306815 345.98787852 -70.59393968 343.23560764 -73.2109375 340.48828125 C-77.42923005 336.67597461 -83.34732416 342.73605096 -87.27978516 345.17333984 Z M43.125 338.984375 C42.2071875 339.91378906 41.289375 340.84320313 40.34375 341.80078125 C39.10430475 343.04961623 37.86471355 344.29830636 36.625 345.546875 C36.02429688 346.15595703 35.42359375 346.76503906 34.8046875 347.39257812 C31.72175251 350.4919117 28.59905314 353.48053868 25.28125 356.328125 C20.3169097 360.61282348 15.73662708 365.26420249 11.125 369.921875 C9.81982422 371.23381836 9.81982422 371.23381836 8.48828125 372.57226562 C6.36486451 374.70734949 4.24383622 376.84474705 2.125 378.984375 C4.61786774 381.58135806 7.06230312 383.77319094 10.06640625 385.75390625 C10.80987305 386.24737549 11.55333984 386.74084473 12.31933594 387.24926758 C13.10083008 387.75997803 13.88232422 388.27068848 14.6875 388.796875 C15.4909082 389.32369873 16.29431641 389.85052246 17.12207031 390.39331055 C18.72309871 391.44215474 20.32512767 392.48947343 21.92822266 393.53515625 C23.82046915 394.78347534 25.68657209 396.0587077 27.54296875 397.359375 C28.94482422 398.3184375 28.94482422 398.3184375 30.375 399.296875 C31.16390625 399.84988281 31.9528125 400.40289062 32.765625 400.97265625 C36.1234465 402.41251679 37.6815277 402.2210535 41.125 400.984375 C46.74215173 396.24133271 50.24961912 389.15539539 53.9375 382.921875 C60.95752835 371.15492588 60.95752835 371.15492588 64.10546875 366.5078125 C64.53690186 365.86851807 64.96833496 365.22922363 65.4128418 364.57055664 C66.54430343 362.91495367 67.69337843 361.27142623 68.84375 359.62890625 C70.428085 357.1375346 70.428085 357.1375346 69.47973633 355.00317383 C67.837236 352.5555553 66.26528699 351.53351433 63.73046875 350.0390625 C62.85712891 349.51957031 61.98378906 349.00007813 61.08398438 348.46484375 C60.16939453 347.93503906 59.25480469 347.40523438 58.3125 346.859375 C57.40951172 346.32183594 56.50652344 345.78429687 55.57617188 345.23046875 C51.49550288 342.82584235 47.56414499 340.66389174 43.125 338.984375 Z M-22.6875 398.671875 C-23.72519531 399.35636719 -24.76289063 400.04085938 -25.83203125 400.74609375 C-28.86827678 402.97942968 -31.2922325 405.25838564 -33.875 407.984375 C-31.75301168 410.13326176 -29.62760401 412.27856083 -27.5 414.421875 C-26.89671875 415.03353516 -26.2934375 415.64519531 -25.671875 416.27539062 C-25.09179688 416.85869141 -24.51171875 417.44199219 -23.9140625 418.04296875 C-23.37990723 418.58236084 -22.84575195 419.12175293 -22.29541016 419.67749023 C-20.30866644 421.5054447 -18.9173151 421.97631498 -16.25 422.484375 C-11.10127805 421.72160138 -8.47636176 418.56499955 -4.875 414.984375 C-4.19308594 414.31664062 -3.51117188 413.64890625 -2.80859375 412.9609375 C-1.14788387 411.31700247 0.49576931 409.6594278 2.125 407.984375 C-1.34407581 404.322929 -4.82655905 401.46601742 -9.0625 398.671875 C-10.10792969 397.97449219 -11.15335938 397.27710938 -12.23046875 396.55859375 C-16.86432932 393.80018044 -18.44366432 395.84090694 -22.6875 398.671875 Z " fill="#000000" transform="translate(271.875,3.015625)"/>
</svg>
