<?xml version="1.0" encoding="UTF-8"?>
<svg version="1.1" xmlns="http://www.w3.org/2000/svg" width="512" height="512">
<path d="M0 0 C6.79920576 4.28097075 12.49913961 9.4712307 17.84767151 15.42115784 C25.48411717 23.71101938 33.40485973 31.69328979 41.38673401 39.64772034 C42.02393749 40.28330242 42.66114098 40.91888451 43.31765366 41.57372665 C47.95044427 46.19437596 52.58796643 50.81025918 57.22657776 55.42506409 C61.90169276 60.07639214 66.57504113 64.72947007 71.24421501 69.38676262 C73.08937578 71.2255263 74.93755536 73.06121606 76.78591919 74.89675903 C86.02199571 84.092789 86.02199571 84.092789 89.61695862 88.31544495 C94.41286798 93.93781325 99.74833097 99.05623253 104.98718262 104.26083374 C106.983193 106.24393442 108.97593481 108.23026983 110.96791077 110.21742249 C115.19714881 114.43530259 119.43031179 118.64922961 123.66407776 122.86256409 C128.57504566 127.74983242 133.48433667 132.63876122 138.3894043 137.5319519 C140.34092027 139.47704454 142.29545161 141.41907075 144.25013733 143.36097717 C154.06823259 153.1389613 154.06823259 153.1389613 157.65040588 157.34889221 C162.48669482 163.0293688 167.88401777 168.19166028 173.17237854 173.44602966 C175.20199191 175.46273715 177.22834034 177.4826763 179.25392151 179.50343323 C183.55449009 183.79264203 187.85898302 188.07789884 192.16407776 192.36256409 C197.15765019 197.33243991 202.14954785 202.30397438 207.13722229 207.2797699 C209.12197762 209.25810023 211.10974799 211.23336538 213.09767151 213.20851135 C237.92665133 237.93546449 237.92665133 237.93546449 238.16407776 255.36256409 C237.24909476 266.71513097 231.98270113 274.07012892 223.85939026 281.71022034 C221.87926061 283.65878271 220.1356736 285.550469 218.35694885 287.6631012 C213.29936712 293.46896716 207.80040538 298.8370938 202.3409729 304.26083374 C200.34496252 306.24393442 198.3522207 308.23026983 196.36024475 310.21742249 C191.41507825 315.14930836 186.46445307 320.07570295 181.51399231 325.00227356 C177.3199317 329.17651764 173.12798413 333.35286265 168.93875122 337.5319519 C166.98723525 339.47704454 165.03270391 341.41907075 163.07801819 343.36097717 C156.18375667 350.17236102 156.18375667 350.17236102 149.67774963 357.34889221 C144.8414607 363.0293688 139.44413775 368.19166028 134.15577698 373.44602966 C132.12616361 375.46273715 130.09981518 377.4826763 128.07423401 379.50343323 C123.04559074 384.51879353 118.01148985 389.52866417 112.97755432 394.53871155 C108.71303502 398.78341697 104.45062674 403.03022151 100.19093323 407.2797699 C98.2061779 409.25810023 96.21840753 411.23336538 94.23048401 413.20851135 C89.00390546 418.41409238 83.86297946 423.60067523 79.08033752 429.22145081 C74.71391592 434.1002274 69.98435913 438.64780493 65.3409729 443.26083374 C63.34496252 445.24393442 61.3522207 447.23026983 59.36024475 449.21742249 C54.41507825 454.14930836 49.46445307 459.07570295 44.51399231 464.00227356 C40.3199317 468.17651764 36.12798413 472.35286265 31.93875122 476.5319519 C29.98723525 478.47704454 28.03270391 480.41907075 26.07801819 482.36097717 C18.02159161 490.38374794 18.02159161 490.38374794 10.47061157 498.8802948 C8.57909341 501.02623183 6.46026471 502.63442401 4.10157776 504.23756409 C3.3062262 504.79186096 2.51087463 505.34615784 1.69142151 505.91725159 C-6.3298998 510.50440597 -16.68238605 510.81608678 -25.59764099 508.71022034 C-35.27772848 504.7739893 -41.45740045 497.25046591 -45.94529724 488.10084534 C-48.5014023 480.24194337 -48.01009712 469.21852635 -44.30955505 461.80665588 C-38.77962968 452.6350053 -29.8121747 445.23516311 -22.21092224 437.73756409 C-20.21564473 435.76930194 -18.22401931 433.79744088 -16.23435974 431.82350159 C-14.92990906 430.53645325 -14.92990906 430.53645325 -13.59910583 429.22340393 C-11.60240288 427.15613363 -9.74287333 425.09789251 -7.88719177 422.91383362 C-2.77247898 417.01978212 2.82515019 411.59135616 8.35757446 406.09390259 C10.42079088 404.04358836 12.48074588 401.99004542 14.53993225 399.9356842 C19.65205225 394.83684943 24.76962885 389.74350276 29.88703918 384.64997864 C34.22201722 380.33481192 38.55488618 376.01754783 42.88504028 371.69754028 C44.90303494 369.68597221 46.92404435 367.67746813 48.94520569 365.66908264 C54.22034844 360.41478684 59.41636818 355.18391032 64.24208069 349.50941467 C68.66910641 344.56447333 73.4656224 339.95560158 78.17237854 335.27909851 C80.20199191 333.26239103 82.22834034 331.24245187 84.25392151 329.22169495 C89.28256477 324.20633464 94.31666567 319.19646401 99.3506012 314.18641663 C103.61512049 309.94171121 107.87752878 305.69490666 112.13722229 301.44535828 C114.12197762 299.46702794 116.10974799 297.49176279 118.09767151 295.51661682 C123.48430792 290.15162289 128.8146501 284.80780533 133.74247742 279.01124573 C135.99910833 276.39414875 138.42829572 273.98684453 140.87892151 271.55006409 C141.37952591 271.05087463 141.88013031 270.55168518 142.39590454 270.03736877 C143.9620854 268.47669039 145.53174247 266.91956561 147.10157776 265.36256409 C148.17798429 264.29118521 149.2541579 263.21957226 150.33009338 262.14772034 C152.93874521 259.54996771 155.55052247 256.95538447 158.16407776 254.36256409 C156.54782246 250.27592988 153.61212464 247.57305543 150.52735901 244.56568909 C149.96969345 244.0132251 149.41202789 243.46076111 148.83746338 242.89155579 C147.0551997 241.12705894 145.2664144 239.36937614 143.47657776 237.61256409 C141.70541203 235.86924307 139.93581155 234.12440642 138.16925049 232.37641907 C137.07234954 231.29152817 135.97279198 230.20931333 134.8699646 229.13044739 C132.16717138 226.46202575 129.60560824 223.73990185 127.14527893 220.84596252 C122.115452 215.0362924 116.60378698 209.69209097 111.15577698 204.27909851 C109.12616361 202.26239103 107.09981518 200.24245187 105.07423401 198.22169495 C100.77366542 193.93248614 96.4691725 189.64722934 92.16407776 185.36256409 C87.17050533 180.39268826 82.17860767 175.42115379 77.19093323 170.44535828 C75.2061779 168.46702794 73.21840753 166.49176279 71.23048401 164.51661682 C66.00826453 159.31537796 60.87244027 154.13308837 56.09376526 148.5171051 C51.66323464 143.57031453 46.865181 138.95823244 42.15577698 134.27909851 C40.12616361 132.26239103 38.09981518 130.24245187 36.07423401 128.22169495 C31.77366542 123.93248614 27.4691725 119.64722934 23.16407776 115.36256409 C18.17050533 110.39268826 13.17860767 105.42115379 8.19093323 100.44535828 C6.2061779 98.46702794 4.21840753 96.49176279 2.23048401 94.51661682 C-3.15280493 89.15488385 -8.47383339 83.81317696 -13.39860535 78.02027893 C-15.72829287 75.33335748 -18.26210801 72.86911412 -20.81248474 70.39381409 C-21.90652095 69.31728196 -23.00026227 68.24045008 -24.09373474 67.16334534 C-25.77992804 65.50808686 -27.46836336 63.85532587 -29.16209412 62.20777893 C-46.03241028 45.77141021 -46.03241028 45.77141021 -47.17185974 33.84693909 C-47.29117078 22.44080411 -45.64289266 14.52258088 -37.69529724 6.11647034 C-28.01978487 -3.01022096 -12.21763971 -6.9179445 0 0 Z " fill="#000000" transform="translate(48.83592224121094,2.6374359130859375)"/>
<path d="M0 0 C5.21382814 4.19604337 9.81627217 9.0901853 14.48828125 13.8671875 C15.8431642 15.23074764 17.199324 16.59304011 18.5566864 17.95413208 C22.10371456 21.51827181 25.63196201 25.1004552 29.15679932 28.68652344 C32.02738935 31.60075873 34.91101158 34.50190157 37.79543781 37.4024334 C41.25979325 40.88648488 44.71875006 44.37586975 48.17578125 47.8671875 C48.82546686 48.52329891 49.47515247 49.17941032 50.14452553 49.8554039 C61.64474835 61.4871344 61.64474835 61.4871344 65.48901367 66.00439453 C70.33143166 71.67201304 75.72391578 76.8330464 81.00830078 82.08346558 C83.03791415 84.10017306 85.06426258 86.12011221 87.08984375 88.14086914 C91.39041234 92.43007795 95.69490526 96.71533475 100 101 C104.99357243 105.96987582 109.98547009 110.9414103 114.97314453 115.91720581 C116.95789986 117.89553614 118.94567023 119.87080129 120.93359375 121.84594727 C126.15581322 127.04718613 131.29163749 132.22947571 136.0703125 137.84545898 C140.50084312 142.79224956 145.29889676 147.40433165 150.00830078 152.08346558 C152.03791415 154.10017306 154.06426258 156.12011221 156.08984375 158.14086914 C160.39041234 162.43007795 164.69490526 166.71533475 169 171 C173.99357243 175.96987582 178.98547009 180.9414103 183.97314453 185.91720581 C185.95789986 187.89553614 187.94567023 189.87080129 189.93359375 191.84594727 C195.3436414 197.23436021 200.69428865 202.60281233 205.64324951 208.42507935 C207.53188367 210.6174124 209.57533007 212.62049056 211.6640625 214.62109375 C212.47617187 215.41193359 213.28828125 216.20277344 214.125 217.01757812 C215.79375845 218.63288416 217.46827302 220.24226442 219.1484375 221.84570312 C226.88857508 229.4194524 231.98887498 236.48727765 232.29321289 247.53271484 C232.43260897 262.6545428 226.94985822 269.86421203 216.50512695 280.55322266 C213.9733529 283.08917821 211.42821913 285.61064265 208.875 288.125 C207.1615746 289.81258188 205.45059486 291.50265083 203.7421875 293.1953125 C202.62626221 294.29383545 202.62626221 294.29383545 201.48779297 295.41455078 C199.59473592 297.38191822 197.83052702 299.35927928 196.06494141 301.43505859 C191.05595781 307.19996332 185.59170215 312.51886344 180.17689514 317.89826965 C178.18088476 319.88137034 176.18814294 321.86770574 174.19616699 323.8548584 C169.25100049 328.78674428 164.30037531 333.71313887 159.34991455 338.63970947 C155.15585394 342.81395355 150.96390637 346.99029856 146.77467346 351.16938782 C144.82315749 353.11448045 142.86862615 355.05650666 140.91394043 356.99841309 C134.01967892 363.80979693 134.01967892 363.80979693 127.51367188 370.98632812 C122.67738294 376.66680472 117.28005999 381.82909619 111.99169922 387.08346558 C109.96208585 389.10017306 107.93573742 391.12011221 105.91015625 393.14086914 C100.88151298 398.15622945 95.84741209 403.16610008 90.81347656 408.17614746 C86.54895727 412.42085288 82.28654898 416.66765742 78.02685547 420.91720581 C76.04210014 422.89553614 74.05432977 424.87080129 72.06640625 426.84594727 C66.81926369 432.07184507 61.64199115 437.2761377 56.84020996 442.91934204 C52.26281985 448.09482927 47.31087577 452.94433754 42.453125 457.85546875 C41.85545067 458.45971491 41.25777634 459.06396107 40.64199066 459.68651772 C37.481568 462.87932344 34.31721654 466.06818499 31.15039062 469.25463867 C28.54899636 471.87387079 25.95639837 474.50136167 23.37109375 477.13647461 C20.22525576 480.34280373 17.06466267 483.53387851 13.8932724 486.71492958 C12.69695806 487.91974053 11.50573718 489.12963366 10.32004547 490.34490013 C2.71850278 498.12585527 -4.80507605 505.5092864 -16.22265625 506.62890625 C-26.6506708 506.44856419 -35.51961657 505.23715746 -43.40234375 497.8203125 C-50.44115634 489.80054069 -53.37993926 481.21770647 -53 470.625 C-51.39076069 458.28749863 -44.22470776 450.5868382 -35.53515625 442.421875 C-33.26037127 440.27262088 -31.17536033 438.07737674 -29.16772461 435.67871094 C-24.01044957 429.74382456 -18.38063237 424.27023326 -12.8065033 418.7313385 C-10.74328687 416.68102427 -8.68333188 414.62748134 -6.62414551 412.57312012 C-1.51202551 407.47428534 3.60555109 402.38093867 8.72296143 397.28741455 C13.05793946 392.97224783 17.39080842 388.65498374 21.72096252 384.3349762 C23.73895718 382.32340813 25.75996659 380.31490405 27.78112793 378.30651855 C34.83962539 371.34046396 34.83962539 371.34046396 41.5 364 C46.38490592 358.25603362 51.84889622 353.04215553 57.1934967 347.7313385 C59.25671313 345.68102427 61.31666812 343.62748134 63.37585449 341.57312012 C68.48797449 336.47428534 73.60555109 331.38093867 78.72296143 326.28741455 C83.05793946 321.97224783 87.39080842 317.65498374 91.72096252 313.3349762 C93.73895718 311.32340813 95.75996659 309.31490405 97.78112793 307.30651855 C103.15524609 301.95364906 108.46917303 296.62575735 113.38467407 290.84240723 C116.73532147 287.02072835 120.39211865 283.48682963 123.99609375 279.90625 C124.82963882 279.07411987 125.6631839 278.24198975 126.52198792 277.38464355 C129.15813262 274.75405065 131.79775105 272.12697559 134.4375 269.5 C136.23655979 267.70596145 138.0353902 265.91169285 139.83398438 264.1171875 C144.22000812 259.74212875 148.60888142 255.36994488 153 251 C151.53237312 247.60595087 149.64824703 245.40995342 147.02856445 242.81738281 C145.80137444 241.59526093 145.80137444 241.59526093 144.5493927 240.34844971 C143.66297592 239.47549255 142.77655914 238.6025354 141.86328125 237.703125 C140.46816115 236.31595494 139.07304377 234.92878214 137.67808056 233.54145432 C135.72209932 231.5985963 133.76162068 229.66030775 131.80108643 227.7220459 C128.39019258 224.34905243 124.98389247 220.97143834 121.5813446 217.59002686 C119.77214595 215.79297047 117.96028103 213.99859306 116.14533997 212.20733643 C112.56733108 208.65735011 109.04143703 205.11988121 105.77612305 201.27832031 C100.77543384 195.4583915 95.24588095 190.13633361 89.8065033 184.7313385 C87.74328687 182.68102427 85.68333188 180.62748134 83.62414551 178.57312012 C79.25224641 174.21258257 74.87642354 169.85599599 70.5 165.5 C65.42382299 160.44751674 60.34931871 155.39337658 55.27903748 150.3349762 C53.26104282 148.32340813 51.24003341 146.31490405 49.21887207 144.30651855 C43.94808827 139.05656506 38.75717254 133.8299795 33.9354248 128.16027832 C29.44426261 123.1473425 24.57928209 118.47394835 19.8065033 113.7313385 C17.74328687 111.68102427 15.68333188 109.62748134 13.62414551 107.57312012 C9.25224641 103.21258257 4.87642354 98.85599599 0.5 94.5 C-4.57617701 89.44751674 -9.65068129 84.39337658 -14.72096252 79.3349762 C-16.73895718 77.32340813 -18.75996659 75.31490405 -20.78112793 73.30651855 C-31.85304972 62.27803893 -31.85304972 62.27803893 -36.72677612 56.47871399 C-38.53704895 54.37627482 -40.5723768 52.54978905 -42.625 50.6875 C-49.29811866 44.04854406 -52.68584179 36.23598191 -53.12890625 26.82421875 C-52.67479493 16.87505251 -49.4145816 8.11190313 -42.11328125 1.21875 C-29.37856052 -8.98904186 -13.38486809 -9.02915442 0 0 Z " fill="#000000" transform="translate(278,6)"/>
</svg>
