<?xml version="1.0" encoding="UTF-8"?>
<svg version="1.1" xmlns="http://www.w3.org/2000/svg" width="512" height="512">
<path d="M0 0 C1.94903229 -0.01270432 1.94903229 -0.01270432 3.93743896 -0.02566528 C7.46014855 -0.04763981 10.98262267 -0.05082454 14.50539136 -0.04891777 C17.46247374 -0.04879703 20.41950804 -0.05740223 23.37657684 -0.06569529 C30.35834384 -0.08483981 37.33999131 -0.08784486 44.32177734 -0.08105469 C51.49234975 -0.07440883 58.66240846 -0.0973204 65.83287674 -0.13436842 C72.02268929 -0.16517324 78.2123374 -0.17641419 84.40222496 -0.1725316 C88.08469468 -0.17047652 91.76676351 -0.17575001 95.44915962 -0.20042419 C99.5575932 -0.22705226 103.664955 -0.21288184 107.7734375 -0.1953125 C108.97222031 -0.20857574 110.17100311 -0.22183899 111.40611267 -0.23550415 C121.51717855 -0.13552977 131.40578119 2.50178798 138.86108398 9.72070312 C143.86520326 15.54100228 145.47980856 20.55957129 146.07202148 28.16992188 C146.4390317 33.24119612 146.4390317 33.24119612 149.15795898 37.24804688 C151.4400371 38.45864605 151.4400371 38.45864605 153.88452148 39.40820312 C163.88659117 43.5597032 170.15869143 54.29501078 174.19702148 63.79492188 C176.55182333 69.70531855 177.45082823 74.27197998 177.49902344 80.67602539 C177.50559464 81.40021164 177.51216583 82.12439789 177.51893616 82.87052917 C177.5386167 85.26329669 177.55032324 87.65600142 177.56030273 90.04882812 C177.56437826 90.86990492 177.56845379 91.69098171 177.57265282 92.53693962 C177.59349644 96.88733542 177.6078026 101.23769988 177.6171875 105.58813477 C177.62821702 110.05772193 177.66258141 114.52680647 177.7023592 118.99621677 C177.72864925 122.45288446 177.7368905 125.90943493 177.74046898 129.36619377 C177.74530711 131.01225089 177.75684088 132.65830377 177.77550697 134.30426216 C177.9104026 146.99319004 175.75281448 156.62314036 169.38452148 167.66992188 C161.86211375 181.26509759 158.79466035 195.9007954 156.42749023 211.13867188 C151.87029812 240.25894462 142.76271028 266.45194117 121.32202148 287.41992188 C120.61891846 287.86867676 119.91581543 288.31743164 119.19140625 288.77978516 C117.12812474 290.25856714 117.12812474 290.25856714 116.86791992 292.59643555 C116.88886719 293.41861572 116.90981445 294.2407959 116.93139648 295.08789062 C116.94428711 295.98056641 116.95717773 296.87324219 116.97045898 297.79296875 C117.00397461 298.72173828 117.03749023 299.65050781 117.07202148 300.60742188 C117.09006836 301.54779297 117.10811523 302.48816406 117.12670898 303.45703125 C117.17385598 305.77902076 117.23963918 308.09895877 117.32202148 310.41992188 C118.43907471 310.8155835 119.55612793 311.21124512 120.70703125 311.61889648 C149.27227505 321.74053305 177.80504052 331.94825563 206.28240967 342.31469727 C209.4166727 343.45433773 212.55209214 344.59074972 215.68774414 345.7265625 C220.97469766 347.64242525 226.25805618 349.56792101 231.53909302 351.50003052 C233.53286212 352.22800109 235.52768838 352.953084 237.52365112 353.67501831 C258.61496709 361.30978323 274.97489056 369.02614185 285.59790039 389.93066406 C289.73842593 399.10751002 291.23751308 408.4349186 292.82202148 418.29492188 C293.11718841 420.07253641 293.41350807 421.84995989 293.7109375 423.62719727 C294.30685008 427.19751096 294.89504575 430.76898212 295.47875977 434.34130859 C296.23510549 438.93973022 297.04703315 443.5263714 297.88061523 448.11132812 C304.66227975 485.69477768 304.66227975 485.69477768 295.81420898 498.62304688 C291.08972941 504.55611425 284.85862193 508.97182076 277.32202148 510.41992188 C274.74263967 510.51592834 272.1905364 510.55937736 269.61130333 510.55414295 C268.82627853 510.55649518 268.04125373 510.55884741 267.23244029 510.56127092 C264.58596651 510.56795999 261.93954183 510.56750273 259.2930603 510.5670929 C257.38282688 510.57039157 255.47259415 510.57411715 253.56236231 510.57823437 C248.30037455 510.58826198 243.0383982 510.59197239 237.77640224 510.59462368 C232.10614839 510.59852446 226.43590359 510.60810293 220.76565552 510.61683655 C207.06600744 510.63660698 193.36635861 510.64666773 179.66669983 510.65556434 C173.21761491 510.65994613 166.76853083 510.66531321 160.31944656 510.67055321 C138.88541743 510.68756577 117.45138962 510.7020854 96.01735497 510.70930195 C94.63117768 510.70977671 93.24500039 510.71025259 91.8588231 510.71072961 C91.17140557 510.71096599 90.48398805 510.71120236 89.77573969 510.7114459 C86.29295731 510.7126471 82.81017494 510.71386255 79.32739258 510.71508789 C78.29064077 510.71544812 78.29064077 510.71544812 77.23294448 510.71581562 C54.82470954 510.72370817 32.41652754 510.74713914 10.00831573 510.77964383 C-13.68395521 510.81394838 -37.37618579 510.83365252 -61.06848371 510.83694619 C-73.98303305 510.83911264 -86.89750458 510.84788115 -99.81203079 510.87340736 C-110.80931333 510.89509366 -121.80649916 510.90317493 -132.80380066 510.89344058 C-138.41513127 510.88888997 -144.02626226 510.89082656 -149.63756561 510.91020203 C-154.77605103 510.92779172 -159.91419058 510.92686989 -165.05267946 510.91130473 C-166.91006485 510.90892231 -168.76747393 510.91328503 -170.62482305 510.92513338 C-183.12425885 510.9999206 -193.38672186 510.37441194 -202.92016602 501.41992188 C-210.5443911 492.745248 -211.42225551 483.60737613 -210.91748047 472.45806885 C-210.01586278 461.0208049 -207.75783115 449.65479197 -205.81195068 438.35699463 C-205.29928896 435.35347005 -204.80417276 432.34716289 -204.30916977 429.34068584 C-203.82408045 426.40601568 -203.32926041 423.4730497 -202.83148956 420.54050636 C-202.59770962 419.15811523 -202.36647232 417.77529116 -202.13805389 416.39200401 C-198.93535049 397.10548387 -192.99551503 379.85366101 -177.08032227 367.38476562 C-164.95239228 359.25780223 -150.58345868 354.83349928 -136.90777588 350.04486084 C-131.92646451 348.30007594 -126.95092521 346.53895794 -121.97485352 344.77929688 C-120.95255646 344.41814789 -119.9302594 344.0569989 -118.87698364 343.68490601 C-108.32855762 339.95328838 -97.8137265 336.13113455 -87.30297852 332.29492188 C-72.69155 326.96505148 -58.06860947 321.66909137 -43.42797852 316.41992188 C-42.5690802 316.11197693 -41.71018188 315.80403198 -40.82525635 315.48675537 C-36.10996026 313.79651275 -31.39405036 312.10800128 -26.67797852 310.41992188 C-26.34797852 304.14992188 -26.01797852 297.87992187 -25.67797852 291.41992188 C-26.99797852 290.75992187 -28.31797852 290.09992188 -29.67797852 289.41992188 C-53.00792872 269.29741779 -64.05673236 238.55597509 -66.67797852 208.41992188 C-66.9660981 203.02384157 -67.15308325 197.62518657 -67.21240234 192.22167969 C-67.38122607 183.61514326 -68.73419261 175.75744283 -73.49047852 168.41992188 C-74.00868164 167.59621094 -74.52688477 166.7725 -75.06079102 165.92382812 C-75.59446289 165.09753906 -76.12813477 164.27125 -76.67797852 163.41992188 C-82.82189694 153.78851352 -86.76471892 144.88699801 -86.83911133 133.30712891 C-86.84871887 132.09461456 -86.85832642 130.88210022 -86.8682251 129.63284302 C-86.87247498 128.32765717 -86.87672485 127.02247131 -86.88110352 125.67773438 C-86.88534458 124.67011866 -86.88534458 124.67011866 -86.88967133 123.64214706 C-86.90464047 120.0781592 -86.9138808 116.51421148 -86.91821289 112.95019531 C-86.92365468 109.31175377 -86.94759682 105.67369462 -86.97618484 102.03537178 C-86.99504942 99.20218941 -87.00002955 96.36909414 -87.00154877 93.53585434 C-87.00595705 91.55601373 -87.02449495 89.57622019 -87.04351807 87.59646606 C-86.98320362 62.59450955 -77.64851359 41.05017544 -60.37329102 23.01367188 C-44.09449712 7.42872821 -22.24557416 -0.0544746 0 0 Z M-30.74047852 24.91992188 C-31.73990479 25.42833618 -31.73990479 25.42833618 -32.75952148 25.94702148 C-39.75766009 29.70075133 -45.21741883 34.71896019 -50.67797852 40.41992188 C-51.29157227 41.04898438 -51.90516602 41.67804687 -52.53735352 42.32617188 C-65.4978657 56.4892058 -68.84345277 74.38321852 -68.81079102 92.95898438 C-68.81174774 94.15800385 -68.81270447 95.35702332 -68.81369019 96.59237671 C-68.81436879 99.11887668 -68.81253682 101.64537841 -68.80834961 104.171875 C-68.80298749 108.03845119 -68.8083103 111.90491173 -68.81469727 115.77148438 C-68.81403661 118.22981796 -68.81275571 120.68815148 -68.81079102 123.14648438 C-68.81281525 124.30177643 -68.81483948 125.45706848 -68.81692505 126.64736938 C-68.81377289 127.72553925 -68.81062073 128.80370911 -68.80737305 129.91455078 C-68.80657745 130.85940338 -68.80578186 131.80425598 -68.80496216 132.77774048 C-68.67805853 135.41825695 -68.26527713 137.84595881 -67.67797852 140.41992188 C-67.34797852 140.41992188 -67.01797852 140.41992188 -66.67797852 140.41992188 C-66.65670898 138.93105469 -66.65670898 138.93105469 -66.63500977 137.41210938 C-66.16079967 120.92308859 -61.0540176 106.9207668 -49.33032227 95.04101562 C-41.54085451 88.36613838 -30.90447865 82.1647932 -20.36962891 82.37329102 C-19.52159698 82.38521484 -18.67356506 82.39713867 -17.79983521 82.40942383 C-16.42660599 82.43202271 -16.42660599 82.43202271 -15.02563477 82.45507812 C7.83846593 82.61240267 27.63847599 82.13647244 48.72460938 72.54907227 C64.67097292 65.61684824 80.16831717 69.75094266 95.78515625 75.4440918 C98.6397591 76.4843305 101.50661233 77.4817294 104.37866211 78.47265625 C124.71158005 85.58367415 142.41562111 93.23172583 152.82592773 113.32226562 C157.59752357 124.53755497 157.24653006 136.40938435 157.32202148 148.41992188 C159.7062001 144.84365395 159.58489164 143.24473609 159.61254883 138.99584961 C159.61926605 138.34823166 159.62598328 137.70061371 159.63290405 137.03337097 C159.65191393 134.89000784 159.6558109 132.74695787 159.65795898 130.60351562 C159.66438922 129.10718153 159.67111775 127.61084869 159.6781311 126.11451721 C159.69011441 122.97304374 159.69381129 119.83168026 159.69262695 116.69018555 C159.6924247 112.68786018 159.71962388 108.68625239 159.75417137 104.68409634 C159.77655477 101.58945055 159.78046088 98.49497361 159.7794075 95.4002552 C159.78175025 93.92642833 159.79049817 92.45259585 159.80607224 90.97884941 C159.93742881 77.25373034 157.05017821 68.04379488 147.87280273 57.80273438 C143.16174992 53.22221451 137.39825957 51.23320789 131.33374023 49.00976562 C128.32202148 47.41992188 128.32202148 47.41992188 126.84545898 45.04101562 C126.26207477 42.11974094 126.48739978 40.40497033 127.25952148 37.54492188 C128.25123664 33.15397252 128.6200101 29.83308318 127.32202148 25.41992188 C124.0831222 21.25562279 121.38266509 19.66562574 116.32202148 18.41992188 C112.30802438 18.12583734 108.30410882 18.13649098 104.28076172 18.14526367 C102.46734535 18.13759727 102.46734535 18.13759727 100.61729431 18.129776 C97.31101413 18.11827767 94.00498514 18.11580379 90.69870257 18.1183393 C87.92847664 18.11941268 85.15827354 18.11451567 82.38805252 18.10973388 C75.84218027 18.09864879 69.29636538 18.09819399 62.75048828 18.10424805 C56.02725108 18.11027138 49.30422403 18.0980165 42.58102268 18.07667798 C36.78710243 18.05897388 30.99324851 18.05307487 25.19930226 18.05631572 C21.74874571 18.05811664 18.29833867 18.05561412 14.84780693 18.04160118 C10.988058 18.02917152 7.12878512 18.03606918 3.26904297 18.04760742 C2.14701477 18.03996368 1.02498657 18.03231995 -0.13104248 18.02444458 C-10.80187924 18.09443688 -21.2032909 19.98929462 -30.74047852 24.91992188 Z M45.44702148 91.85742188 C43.36274406 92.6361284 41.27668536 93.40976857 39.18942261 94.18043518 C37.30993668 94.8770597 35.43520537 95.5864732 33.56079102 96.29663086 C29.22483576 97.80045493 25.27452168 98.54121111 20.69042969 98.56176758 C19.35797966 98.57231926 19.35797966 98.57231926 17.99861145 98.58308411 C16.57508614 98.58933052 16.57508614 98.58933052 15.12280273 98.59570312 C13.08828726 98.61890856 11.05378203 98.64302618 9.01928711 98.66796875 C5.83114832 98.7029871 2.64338534 98.73238444 -0.54492188 98.74584961 C-3.63530408 98.76143459 -6.72460509 98.80171377 -9.81469727 98.84570312 C-10.75359299 98.84379471 -11.69248871 98.84188629 -12.65983582 98.83992004 C-23.19931383 99.03217023 -30.84042898 102.6893518 -38.41235352 109.91601562 C-45.1756883 117.39066665 -48.91495605 125.43655025 -48.95263672 135.56079102 C-48.95774765 136.24969925 -48.96285858 136.93860748 -48.96812439 137.64839172 C-48.98197236 139.91737689 -48.98106421 142.18605577 -48.97875977 144.45507812 C-48.98265541 146.05529388 -48.98699185 147.65550861 -48.991745 149.25572205 C-48.99920149 152.61558367 -48.99892454 155.97534029 -48.99365234 159.33520508 C-48.98905448 162.73996305 -48.99580703 166.14436113 -49.01416016 169.54907227 C-49.40592136 202.03019687 -49.40592136 202.03019687 -42.99047852 233.73242188 C-42.7362915 234.54380615 -42.48210449 235.35519043 -42.22021484 236.19116211 C-34.75725219 259.0133978 -20.89116107 273.68549407 -1.45239258 287.17626953 C0.22946294 288.35504939 1.8897627 289.56441092 3.54858398 290.77539062 C19.31560264 302.14094626 34.57273932 309.38851258 54.32202148 307.41992188 C66.6183035 305.15250286 76.76866342 298.72459932 86.27124023 290.90429688 C90.3397922 287.59110987 94.48710884 284.38350202 98.63452148 281.16992188 C100.89211212 279.41963395 103.14914709 277.66874649 105.40161133 275.91186523 C106.94760312 274.71080296 108.50595355 273.5256574 110.06811523 272.34570312 C129.46961404 255.76868594 137.21215883 225.83751951 139.32202148 201.41992188 C139.83980901 190.77273914 139.84061869 180.11433071 139.82299805 169.45678711 C139.81706339 165.2957738 139.84792787 161.13591175 139.88811493 156.9751215 C139.91412351 153.72598718 139.91685856 150.4771274 139.91322327 147.22790337 C139.91489665 145.6943207 139.92436381 144.16072284 139.94236755 142.62724495 C140.07518845 129.94086296 137.92783664 118.87951091 128.76489258 109.41894531 C119.28788792 101.66382697 106.18348331 97.890037 94.78027344 93.91040039 C92.12092737 92.97765384 89.47278307 92.01689177 86.82397461 91.0546875 C70.91607584 85.3796138 61.14822176 85.85956337 45.44702148 91.85742188 Z M-7.67797852 305.41992188 C-8.03374856 308.27146135 -8.03374856 308.27146135 -7.67797852 311.41992188 C-5.97943456 313.42722472 -5.97943456 313.42722472 -3.42016602 314.95507812 C-2.414375 315.63199707 -1.40858398 316.30891602 -0.37231445 317.00634766 C0.20764282 317.38382141 0.7876001 317.76129517 1.38513184 318.15020752 C3.54446011 319.56573995 5.67531653 321.01889811 7.80541992 322.47802734 C12.03364226 325.36939854 16.28224621 328.22892807 20.53979492 331.0769043 C23.21698011 332.87079547 25.88659247 334.67561678 28.55639648 336.48046875 C30.26687764 337.62633254 31.97779935 338.77153903 33.68920898 339.91601562 C34.48197235 340.45447617 35.27473572 340.99293671 36.09152222 341.54771423 C36.83644928 342.04235672 37.58137634 342.53699921 38.34887695 343.04663086 C38.99742645 343.48216782 39.64597595 343.91770477 40.31417847 344.36643982 C42.72979584 345.63387434 44.59582654 346.20586306 47.32202148 346.41992188 C49.58514384 345.52655827 49.58514384 345.52655827 51.70996094 343.96655273 C52.54465408 343.40524155 53.37934723 342.84393036 54.23933411 342.26560974 C55.12900375 341.64493118 56.0186734 341.02425262 56.93530273 340.38476562 C57.86368454 339.75389542 58.79206635 339.12302521 59.74858093 338.47303772 C62.72031968 336.44837002 65.67721059 334.40308958 68.63452148 332.35742188 C70.61473375 331.00518048 72.59584416 329.65425333 74.57788086 328.3046875 C79.84693431 324.70580623 85.10728806 321.09719038 90.32202148 317.41992188 C91.10837982 316.875867 91.89473816 316.33181213 92.70492554 315.77127075 C93.4347464 315.2512851 94.16456726 314.73129944 94.91650391 314.19555664 C95.56286301 313.74068375 96.20922211 313.28581085 96.87516785 312.81715393 C98.68193585 311.35651902 98.68193585 311.35651902 98.82202148 308.04492188 C98.65702148 307.17867188 98.49202148 306.31242187 98.32202148 305.41992188 C97.70198242 305.83242188 97.08194336 306.24492187 96.44311523 306.66992188 C75.93144598 320.04579935 55.81178095 328.43927085 30.83764648 324.22851562 C18.42527369 321.37366988 7.95998627 315.14875503 -2.67797852 308.41992188 C-4.34170202 307.41503288 -6.00715393 306.41295913 -7.67797852 305.41992188 Z M-23.47094727 328.73242188 C-24.1831543 329.003125 -24.89536133 329.27382813 -25.62915039 329.55273438 C-26.73613281 329.98199219 -26.73613281 329.98199219 -27.86547852 330.41992188 C-28.61506836 330.70609375 -29.3646582 330.99226563 -30.13696289 331.28710938 C-31.98566594 331.9936201 -33.83205076 332.70619147 -35.67797852 333.41992188 C-34.44005173 337.39959495 -32.99072099 340.96917929 -30.99047852 344.62304688 C-30.19746338 346.07952637 -30.19746338 346.07952637 -29.38842773 347.56542969 C-28.82397949 348.58991211 -28.25953125 349.61439453 -27.67797852 350.66992188 C-27.09419434 351.73823242 -26.51041016 352.80654297 -25.90893555 353.90722656 C-21.69906915 361.5994134 -17.45046009 369.27017317 -13.17797852 376.92773438 C-8.63860369 385.06996251 -4.16403872 393.24824021 0.32202148 401.41992188 C4.38163995 399.60003807 6.259251 397.09891123 8.69702148 393.48242188 C9.56904887 392.22475152 10.44285254 390.96831155 11.31811523 389.71289062 C11.7923291 389.0301709 12.26654297 388.34745117 12.75512695 387.64404297 C15.68954458 383.47879762 18.72964137 379.39095824 21.75952148 375.29492188 C22.66420166 374.06914429 22.66420166 374.06914429 23.5871582 372.81860352 C28.22144081 366.54303972 28.22144081 366.54303972 30.00976562 364.35400391 C31.6027492 362.39570831 31.6027492 362.39570831 31.32202148 359.41992188 C29.63580086 357.87120294 29.63580086 357.87120294 27.34643555 356.46484375 C26.47843323 355.89415161 25.61043091 355.32345947 24.71612549 354.73547363 C23.29127838 353.82130676 23.29127838 353.82130676 21.83764648 352.88867188 C20.8705072 352.25634644 19.90336792 351.624021 18.90692139 350.97253418 C15.80160327 348.9451049 12.68715107 346.93223611 9.57202148 344.91992188 C6.47326686 342.9045303 3.3764067 340.88625744 0.27996826 338.86730957 C-1.65032619 337.61023769 -3.5823595 336.35583106 -5.51629639 335.10437012 C-6.39690735 334.53367798 -7.27751831 333.96298584 -8.18481445 333.375 C-8.95758728 332.87552856 -9.73036011 332.37605713 -10.52655029 331.8614502 C-12.67797852 330.41992188 -12.67797852 330.41992188 -14.77130127 328.73522949 C-17.87725066 326.59261259 -20.19603363 327.47485504 -23.47094727 328.73242188 Z M103.11352539 330.03442383 C102.26899811 330.60534256 101.42447083 331.17626129 100.55435181 331.76448059 C99.64494843 332.38940903 98.73554504 333.01433746 97.79858398 333.65820312 C96.86025726 334.29477341 95.92193054 334.93134369 94.95516968 335.58720398 C91.94798139 337.62912253 88.94734857 339.68043817 85.94702148 341.73242188 C82.95256119 343.77176089 79.95679388 345.8091601 76.96029663 347.84550476 C75.09458297 349.11434312 73.23028843 350.3852713 71.36758423 351.65852356 C70.09133682 352.52908638 70.09133682 352.52908638 68.78930664 353.41723633 C68.04556793 353.92575638 67.30182922 354.43427643 66.53555298 354.95820618 C64.17169238 356.51919239 61.76054729 357.97892607 59.32202148 359.41992188 C59.93510534 362.6707131 61.03979479 364.7037463 63.02514648 367.33398438 C63.58741943 368.08695801 64.14969238 368.83993164 64.72900391 369.61572266 C65.64129761 370.81817627 65.64129761 370.81817627 66.57202148 372.04492188 C67.84525436 373.74201574 69.11736101 375.43995503 70.38842773 377.13867188 C71.03956543 378.0075 71.69070313 378.87632812 72.36157227 379.77148438 C74.28642107 382.37182807 76.16897172 384.99718615 78.03686523 387.63867188 C78.62113281 388.46286621 79.20540039 389.28706055 79.80737305 390.13623047 C80.92556796 391.71857571 82.03837986 393.30474139 83.14526367 394.89501953 C83.65089844 395.60706543 84.1565332 396.31911133 84.67749023 397.05273438 C85.11730225 397.68066895 85.55711426 398.30860352 86.01025391 398.95556641 C87.36283618 400.70887518 87.36283618 400.70887518 90.32202148 401.41992188 C90.67804443 400.75275146 91.03406738 400.08558105 91.40087891 399.39819336 C97.85775356 387.31362529 104.35360043 375.26409451 111.13452148 363.35742188 C115.04617652 356.48153052 118.91251684 349.58815158 122.63452148 342.60742188 C123.01390869 341.90157959 123.3932959 341.1957373 123.78417969 340.46850586 C125.68575533 337.12720048 125.68575533 337.12720048 126.32202148 333.41992188 C123.72004946 332.41386595 121.11572786 331.41489662 118.50952148 330.41992188 C117.7715332 330.13375 117.03354492 329.84757812 116.27319336 329.55273438 C115.56098633 329.28203125 114.8487793 329.01132812 114.11499023 328.73242188 C113.46038818 328.48105469 112.80578613 328.2296875 112.13134766 327.97070312 C108.17484364 326.7662944 106.34771331 327.82875709 103.11352539 330.03442383 Z M159.32202148 345.41992188 C160.71300461 349.97187631 162.56881029 354.11443165 164.76342773 358.32226562 C165.43629584 359.63784594 166.10881114 360.95360674 166.78100586 362.26953125 C167.83239704 364.31658963 168.88685113 366.36190625 169.94775391 368.40405273 C170.97875979 370.39308776 171.99683058 372.38833655 173.01342773 374.38476562 C173.33009903 374.98602768 173.64677032 375.58728973 173.97303772 376.20677185 C176.02697994 380.26688364 177.02609493 383.87975851 177.32202148 388.41992188 C175.97639749 391.36747919 175.23647604 392.9626946 172.32202148 394.41992188 C170.51031051 394.57299089 168.69364208 394.66938848 166.87670898 394.73632812 C165.8003418 394.77822266 164.72397461 394.82011719 163.61499023 394.86328125 C162.48706055 394.90259766 161.35913086 394.94191406 160.19702148 394.98242188 C159.06135742 395.02560547 157.92569336 395.06878906 156.75561523 395.11328125 C153.9445438 395.21958227 151.13338204 395.32161592 148.32202148 395.41992188 C149.30241725 398.5273502 150.13206791 401.13499151 151.94702148 403.85742188 C153.87278269 407.44634048 154.00540073 409.38798431 153.32202148 413.41992188 C148.89616338 420.5944708 141.21456247 426.27388038 135.00073242 431.8984375 C132.90573192 433.79722213 130.82286915 435.70897093 128.74072266 437.62182617 C127.2574192 438.98435299 125.77242083 440.34500742 124.28686523 441.70507812 C121.79833502 443.98356425 119.31078182 446.26311267 116.82373047 448.54321289 C115.82462525 449.45915409 114.82543937 450.37500733 113.82617188 451.29077148 C111.30006075 453.60585816 108.7749685 455.92203976 106.25170898 458.24023438 C101.64852384 462.46758938 97.03788373 466.68518271 92.38452148 470.85742188 C88.40114328 474.43472754 84.44765185 478.04297438 80.50952148 481.66992188 C79.97012939 482.16548584 79.4307373 482.6610498 78.875 483.17163086 C78.09660767 483.89008179 78.09660767 483.89008179 77.30249023 484.62304688 C76.84769287 485.04231445 76.39289551 485.46158203 75.92431641 485.89355469 C73.68304652 488.02861782 71.50858468 490.22903496 69.32202148 492.41992188 C95.83394498 492.48996281 122.34585464 492.54288596 148.85785198 492.57535839 C161.16747312 492.59083578 173.47703682 492.61194201 185.78662109 492.64624023 C196.51403316 492.67611583 207.24140364 492.69549053 217.96885616 492.70218736 C223.65042412 492.70610272 229.33187307 492.71532259 235.01340294 492.73711205 C240.35917591 492.75744806 245.70478063 492.76376148 251.05058861 492.75924492 C253.01420505 492.76007141 254.97782703 492.76605416 256.94141006 492.7775383 C259.61985439 492.79243722 262.29766129 492.78888498 264.97612 492.78068542 C265.75530924 492.78942395 266.53449849 492.79816247 267.33729953 492.8071658 C273.21636996 492.75843127 276.26634628 491.24718873 280.57202148 487.41992188 C284.15272854 483.32768524 283.63561508 478.56114037 283.32202148 473.41992188 C282.71774715 468.44417959 281.91335394 463.50413327 281.09155273 458.56054688 C280.85667934 457.12485431 280.62203923 455.68912356 280.38761902 454.25335693 C279.89585823 451.25364522 279.39823837 448.25497323 278.89697266 445.25683594 C278.2618536 441.45260446 277.64605811 437.64552946 277.03534412 433.83731461 C276.55674148 430.87220471 276.06527851 427.9093261 275.57040977 424.94689178 C275.33838467 423.54608411 275.11070168 422.1445488 274.88782692 420.74225616 C272.09272399 403.23952598 267.09021785 390.49891432 252.51708984 379.82836914 C248.81747055 377.45453935 244.89347762 376.05259582 240.75952148 374.60742188 C239.28273926 374.07205811 239.28273926 374.07205811 237.77612305 373.52587891 C235.41510603 372.67174021 233.05175819 371.82403096 230.68676758 370.98095703 C225.44874914 369.11255362 220.22396793 367.207889 214.99780273 365.30664062 C196.47433746 358.57553036 177.93788672 351.89178389 159.32202148 345.41992188 Z M-69.67797852 345.41992188 C-77.13164064 348.0953328 -84.58424067 350.77367651 -92.03566265 353.4553194 C-95.49937632 354.70175905 -98.96338852 355.94735189 -102.42822266 357.19067383 C-111.1769813 360.3307051 -119.91684314 363.49428215 -128.64873505 366.68091583 C-130.69798799 367.42720889 -132.74865332 368.16950714 -134.79962158 368.91107178 C-138.14012119 370.12026693 -141.4749436 371.34407309 -144.80628395 372.57826805 C-146.63663455 373.25295148 -148.4717786 373.91458643 -150.30705261 374.57575989 C-162.69829424 379.20285884 -172.34045953 386.57603394 -178.67797852 398.41992188 C-181.65866649 406.24480406 -183.02455071 414.18110118 -184.37719727 422.41992188 C-184.61910744 423.86530554 -184.86145046 425.31061682 -185.10420227 426.75585938 C-185.60887819 429.77071834 -186.10832502 432.78638355 -186.60400391 435.80273438 C-187.23620527 439.64723515 -187.88149952 443.4894009 -188.53074932 447.33105469 C-189.03279575 450.31064067 -189.52781604 453.29136208 -190.02079201 456.27246094 C-190.25586241 457.68883875 -190.49305805 459.1048657 -190.73251915 460.52050781 C-193.39490289 473.01148197 -193.39490289 473.01148197 -191.42797852 485.23242188 C-187.78548607 489.81848599 -187.78548607 489.81848599 -182.67797852 492.41992188 C-179.96746427 492.51373755 -177.28304556 492.5502337 -174.57258606 492.54017639 C-173.7369781 492.54103082 -172.90137015 492.54188524 -172.04044074 492.54276556 C-169.23055221 492.54441732 -166.42072291 492.53890392 -163.61083984 492.53344727 C-161.60057069 492.5331653 -159.59030144 492.53332331 -157.58003235 492.53388977 C-152.11343322 492.53417739 -146.6468559 492.52828637 -141.18026185 492.52131581 C-135.47073619 492.51507638 -129.76121006 492.51447801 -124.05168152 492.51329041 C-113.23574017 492.51017884 -102.4198089 492.50196778 -91.603872 492.49194092 C-79.29206705 492.48077439 -66.98026162 492.47526796 -54.66845286 492.47024548 C-29.33828915 492.45978503 -4.0081344 492.44218894 21.32202148 492.41992188 C20.14506714 491.24405518 20.14506714 491.24405518 18.94433594 490.04443359 C17.41229113 488.51110507 15.88397275 486.974004 14.36499023 485.42773438 C10.63270394 481.64044597 6.80916842 478.05753738 2.77905273 474.59179688 C-0.55940467 471.6407916 -3.80289974 468.59262511 -7.05297852 465.54492188 C-12.0643327 460.84808525 -17.10861939 456.19764632 -22.22875977 451.61914062 C-26.56674176 447.72395105 -30.85250426 443.77148458 -35.14575195 439.82714844 C-37.15747663 437.97954152 -39.1709515 436.13384994 -41.18481445 434.28857422 C-42.17548119 433.38051704 -43.16571998 432.47199275 -44.15551758 431.56298828 C-46.7713208 429.16158104 -49.39476307 426.76925692 -52.02954102 424.38867188 C-52.85131836 423.64327148 -52.85131836 423.64327148 -53.68969727 422.8828125 C-54.7394008 421.93096269 -55.79137124 420.98160486 -56.84594727 420.03515625 C-60.17825471 417.00702401 -62.47133956 414.89591442 -63.11547852 410.29492188 C-62.60790744 405.79929232 -61.12235802 403.13154546 -58.77172852 399.33789062 C-57.51285297 397.49834845 -57.51285297 397.49834845 -57.67797852 395.41992188 C-58.73710449 395.3980481 -58.73710449 395.3980481 -59.81762695 395.37573242 C-63.02162525 395.30119021 -66.22458868 395.20454983 -69.42797852 395.10742188 C-70.53915039 395.08486328 -71.65032227 395.06230469 -72.79516602 395.0390625 C-73.86508789 395.00361328 -74.93500977 394.96816406 -76.03735352 394.93164062 C-77.021875 394.90545654 -78.00639648 394.87927246 -79.02075195 394.85229492 C-82.07742941 394.35492486 -83.463696 393.55850242 -85.67797852 391.41992188 C-87.39612385 386.5750047 -86.68358267 383.8530017 -84.61547852 379.19726562 C-83.65416092 377.24177485 -82.67407665 375.29542709 -81.67797852 373.35742188 C-81.17556641 372.34333252 -80.6731543 371.32924316 -80.15551758 370.28442383 C-77.92444382 365.79476307 -75.6356472 361.33501358 -73.34985352 356.87304688 C-73.01985352 356.224729 -72.68985352 355.57641113 -72.34985352 354.90844727 C-71.48686914 353.22247382 -70.60647872 351.54544176 -69.72485352 349.86914062 C-69.37938477 349.06089844 -69.03391602 348.25265625 -68.67797852 347.41992188 C-69.17297852 346.42992187 -69.17297852 346.42992187 -69.67797852 345.41992188 Z M139.32202148 348.41992188 C138.7509668 349.52464844 138.17991211 350.629375 137.59155273 351.76757812 C132.93279745 360.72612099 128.13978655 369.58748682 123.13452148 378.35742188 C118.16151225 387.07652707 113.35401505 395.87449475 108.63452148 404.73242188 C104.4556836 412.57337453 100.27017733 420.40734446 95.94702148 428.16992188 C95.55901367 428.86770752 95.17100586 429.56549316 94.77124023 430.28442383 C92.76837244 433.8724695 90.73602762 437.44163982 88.67749023 440.99804688 C88.25064941 441.74086914 87.82380859 442.48369141 87.3840332 443.24902344 C86.57114373 444.66133551 85.7514944 446.06978549 84.92407227 447.47363281 C83.99585247 449.08891111 83.1500614 450.75107021 82.32202148 452.41992188 C82.65202148 453.07992187 82.98202148 453.73992187 83.32202148 454.41992188 C84.540941 453.30257898 85.75985724 452.18523252 86.97875977 451.06787109 C88.0552033 450.08115868 89.1317021 449.09450657 90.20825195 448.10791016 C92.95317229 445.59219744 95.69735048 443.07569036 98.43920898 440.55664062 C103.02672862 436.34356699 107.62194272 432.14050946 112.25952148 427.98242188 C116.28742796 424.36646038 120.28047527 420.71444372 124.25952148 417.04492188 C124.81567139 416.5326001 125.37182129 416.02027832 125.94482422 415.49243164 C128.44945461 413.17830833 130.93961749 410.86043329 133.32202148 408.41992188 C132.18360533 404.20778211 130.41143058 400.82595791 128.19702148 397.10742188 C125.51137308 392.29426716 123.84384992 387.92009513 125.32202148 382.41992188 C127.26468763 379.987366 128.28792989 379.43128574 131.32202148 378.41992188 C133.02069337 378.27214252 134.72379637 378.17245121 136.42749023 378.10351562 C137.41040039 378.06162109 138.39331055 378.01972656 139.40600586 377.9765625 C140.43016602 377.93724609 141.45432617 377.89792969 142.50952148 377.85742188 C143.5452832 377.81423828 144.58104492 377.77105469 145.64819336 377.7265625 C148.20600338 377.62047821 150.76390994 377.51842041 153.32202148 377.41992188 C152.04653673 373.38522521 150.56072469 369.61165641 148.72045898 365.80273438 C148.23061523 364.784375 147.74077148 363.76601563 147.23608398 362.71679688 C146.72819336 361.67007812 146.22030273 360.62335938 145.69702148 359.54492188 C145.18139648 358.475 144.66577148 357.40507812 144.13452148 356.30273438 C142.86688628 353.67356506 141.59596489 351.04603886 140.32202148 348.41992188 C139.99202148 348.41992188 139.66202148 348.41992188 139.32202148 348.41992188 Z M-49.67797852 349.41992188 C-51.53447641 353.08354273 -53.38574731 356.74975147 -55.23217773 360.41845703 C-55.86127282 361.66657909 -56.49180093 362.91397992 -57.1237793 364.16064453 C-58.03101449 365.95090298 -58.93270448 367.74396816 -59.83422852 369.53710938 C-60.65117187 371.15528564 -60.65117187 371.15528564 -61.48461914 372.80615234 C-62.81642051 375.24426146 -62.81642051 375.24426146 -62.67797852 377.41992188 C-61.71758667 377.44179565 -61.71758667 377.44179565 -60.73779297 377.46411133 C-57.8214302 377.5388357 -54.90618165 377.6354148 -51.99047852 377.73242188 C-50.98307617 377.75498047 -49.97567383 377.77753906 -48.93774414 377.80078125 C-43.24538587 378.00743452 -38.91394782 378.18395257 -34.67797852 382.41992188 C-33.48419951 390.11316436 -36.0719011 394.79518201 -40.0078125 401.18994141 C-42.22632913 404.66247932 -42.22632913 404.66247932 -42.17797852 408.59960938 C-37.36104533 414.44515851 -31.69328413 419.49754622 -25.95922852 424.42382812 C-23.06697785 426.95454745 -20.24748782 429.55871405 -17.42797852 432.16992188 C-16.8744873 432.68151855 -16.32099609 433.19311523 -15.75073242 433.72021484 C-12.9675101 436.29435372 -10.19036458 438.87474326 -7.42016602 441.46289062 C-2.38831854 446.14521776 2.57272317 450.63061162 8.32202148 454.41992188 C6.7096474 448.49811162 3.69291171 443.55860811 0.63452148 438.29492188 C-4.51893572 429.30968683 -9.49964051 420.25009978 -14.36547852 411.10742188 C-18.76043482 402.85906721 -23.17125011 394.62372198 -27.74316406 386.47167969 C-30.08207757 382.29964211 -32.39518889 378.11469764 -34.68397522 373.91499329 C-36.1462541 371.2321286 -37.61259391 368.55149094 -39.07888794 365.87081909 C-39.80859367 364.53408896 -40.53637424 363.196306 -41.26217651 361.85745239 C-42.28117941 359.97835321 -43.30697593 358.10311432 -44.33422852 356.22851562 C-44.93041992 355.13337646 -45.52661133 354.0382373 -46.14086914 352.90991211 C-47.43752707 350.32090865 -47.43752707 350.32090865 -49.67797852 349.41992188 Z M44.32202148 374.41992188 C42.69845803 376.38929849 41.18642582 378.35337335 39.69702148 380.41992188 C39.27678711 380.99226563 38.85655273 381.56460937 38.42358398 382.15429688 C37.38396348 383.5719612 36.35224557 384.99541449 35.32202148 386.41992188 C36.06258789 387.57621094 36.06258789 387.57621094 36.81811523 388.75585938 C37.4587793 389.75875 38.09944336 390.76164062 38.75952148 391.79492188 C39.39760742 392.79265625 40.03569336 393.79039062 40.69311523 394.81835938 C47.39122199 405.51605505 40.23909662 425.88737054 38.2578125 437.73168945 C37.77265093 440.64385211 37.29514058 443.55719844 36.81811523 446.47070312 C36.59314613 447.79126457 36.59314613 447.79126457 36.3636322 449.13850403 C34.55226031 459.28062018 34.55226031 459.28062018 37.29077148 468.91992188 C37.69682617 469.66113281 38.10288086 470.40234375 38.52124023 471.16601562 C38.95049805 471.90980469 39.37975586 472.65359375 39.82202148 473.41992188 C40.2512793 474.19464844 40.68053711 474.969375 41.12280273 475.76757812 C42.17420679 477.66010542 43.24605511 479.54125043 44.32202148 481.41992188 C44.98202148 481.41992188 45.64202148 481.41992188 46.32202148 481.41992188 C51.6072271 475.76457971 56.20322122 469.35030735 56.36419678 461.3145752 C55.84631999 450.54262202 53.44285222 439.87113798 51.29321289 429.33056641 C50.27110597 424.26279458 49.40061172 419.17679004 48.58374023 414.07226562 C48.45546341 413.29194473 48.32718658 412.51162384 48.19502258 411.70765686 C47.07738582 404.59214798 46.50112727 399.87940829 50.82202148 393.73242188 C53.66397442 389.93468288 53.66397442 389.93468288 54.32202148 385.41992188 C52.62952356 382.62301905 52.62952356 382.62301905 50.44702148 379.73242188 C49.72772461 378.73855469 49.00842773 377.7446875 48.26733398 376.72070312 C47.62538086 375.96144531 46.98342773 375.2021875 46.32202148 374.41992188 C45.66202148 374.41992188 45.00202148 374.41992188 44.32202148 374.41992188 Z M23.32202148 403.41992188 C21.00682421 405.78456432 19.07653404 408.47821534 17.07202148 411.10742188 C16.49194336 411.82865234 15.91186523 412.54988281 15.31420898 413.29296875 C13.79033433 415.2889529 12.44043757 417.1711793 11.32202148 419.41992188 C11.59670373 422.16440146 11.59670373 422.16440146 13.32202148 424.41992188 C13.81959961 425.37511719 14.31717773 426.3303125 14.82983398 427.31445312 C15.36350586 428.27738281 15.89717773 429.2403125 16.44702148 430.23242188 C16.98584961 431.20824219 17.52467773 432.1840625 18.07983398 433.18945312 C18.48975586 433.92550781 18.89967773 434.6615625 19.32202148 435.41992188 C21.84502627 432.89691709 21.84573679 431.42846111 22.39233398 427.93164062 C22.65336914 426.28325195 22.65336914 426.28325195 22.91967773 424.6015625 C23.18071289 422.87196289 23.18071289 422.87196289 23.44702148 421.10742188 C23.6287793 419.96595703 23.81053711 418.82449219 23.99780273 417.6484375 C24.74238355 412.85904737 25.43659262 408.27695927 25.32202148 403.41992188 C24.66202148 403.41992188 24.00202148 403.41992188 23.32202148 403.41992188 Z M66.32202148 403.41992188 C65.16566978 406.90557781 65.4566765 409.57220758 66.02905273 413.17382812 C66.2037207 414.27533203 66.37838867 415.37683594 66.55834961 416.51171875 C66.74848633 417.65705078 66.93862305 418.80238281 67.13452148 419.98242188 C67.31305664 421.13162109 67.4915918 422.28082031 67.67553711 423.46484375 C68.57053893 429.78140562 68.57053893 429.78140562 71.32202148 435.41992188 C72.72022287 433.20260252 74.08965506 430.97454034 75.44702148 428.73242188 C75.8453418 428.10658203 76.24366211 427.48074219 76.65405273 426.8359375 C78.89586945 423.1069812 78.89586945 423.1069812 78.88061523 418.88867188 C76.83652678 415.65091774 74.62894542 412.61360754 72.25952148 409.60742188 C71.7999707 409.00994141 71.34041992 408.41246094 70.86694336 407.796875 C69.71381675 406.31525123 68.5212447 404.86448882 67.32202148 403.41992188 C66.99202148 403.41992188 66.66202148 403.41992188 66.32202148 403.41992188 Z " fill="#000000" transform="translate(210.677978515625,0.580078125)"/>
</svg>
