<?xml version="1.0" encoding="UTF-8"?>
<svg version="1.1" xmlns="http://www.w3.org/2000/svg" width="512" height="512">
<path d="M0 0 C0.87311325 0.371819 1.7462265 0.743638 2.64579773 1.12672424 C5.51195136 2.34906628 8.37307458 3.58275188 11.234375 4.81640625 C14.24906884 6.10553871 17.2649689 7.3918225 20.28086853 8.6781311 C22.35931227 9.56496024 24.43732046 10.4528108 26.51490784 11.34164429 C33.76527623 14.4418579 41.03081734 17.50377909 48.30859375 20.5390625 C49.29213837 20.94934189 50.27568298 21.35962128 51.28903198 21.78233337 C55.09906755 23.37075078 58.90960274 24.95795753 62.72106934 26.54293823 C65.3395495 27.63227216 67.95696124 28.72413875 70.57421875 29.81640625 C71.34102463 30.13436661 72.10783051 30.45232697 72.89787292 30.77992249 C85.7035622 36.13034145 85.7035622 36.13034145 87.984375 40.37890625 C88.42226466 43.68129202 88.36277003 46.96145661 88.32495117 50.28808594 C88.32538925 51.29328781 88.32582733 52.29848969 88.32627869 53.33415222 C88.32418873 56.6565595 88.30084742 59.97846212 88.27734375 63.30078125 C88.27174854 65.60434697 88.26747809 67.90791625 88.26448059 70.21148682 C88.25302595 76.27457535 88.22355318 82.3374483 88.19036865 88.40045166 C88.15968127 94.58725061 88.14597809 100.77408438 88.13085938 106.9609375 C88.09868429 119.10035514 88.04748025 131.23961277 87.984375 143.37890625 C88.9316748 143.35272217 89.87897461 143.32653809 90.85498047 143.29956055 C94.41487221 143.21366212 97.97364195 143.15133514 101.53417969 143.10424805 C103.0665845 143.07930866 104.59887292 143.04534359 106.13085938 143.00170898 C115.50088891 142.74177018 122.91194094 143.0486349 130.984375 148.37890625 C132.03028809 148.96712158 133.07620117 149.55533691 134.15380859 150.16137695 C135.05437988 150.70366943 135.95495117 151.24596191 136.8828125 151.8046875 C137.92566406 152.42867432 138.96851563 153.05266113 140.04296875 153.69555664 C141.68458984 154.6835022 141.68458984 154.6835022 143.359375 155.69140625 C145.74025049 157.11654106 148.12344022 158.53775541 150.5078125 159.95703125 C151.11727722 160.31982681 151.72674194 160.68262238 152.35467529 161.05641174 C160.31444399 165.78031608 168.369907 170.33804617 176.43115234 174.88598633 C181.69564601 177.8691994 186.9383405 180.88842145 192.109375 184.03125 C193.41261719 184.81810181 193.41261719 184.81810181 194.7421875 185.62084961 C197.44277444 187.73832854 198.51633994 189.25910123 199.984375 192.37890625 C200.26250979 195.37238244 200.37692795 198.1521391 200.34513855 201.14241028 C200.34770182 202.02464616 200.3502651 202.90688204 200.35290605 203.81585234 C200.35784699 206.77170799 200.34134577 209.72705274 200.32495117 212.68286133 C200.32410497 214.80179838 200.32457991 216.92073631 200.32627869 219.03967285 C200.32714032 224.79340241 200.30948719 230.54694479 200.28855681 236.30063081 C200.26981813 242.31309707 200.26804179 248.32556751 200.26448059 254.33805847 C200.25515188 265.72416688 200.23052686 277.110189 200.20043212 288.49625939 C200.16691386 301.4586317 200.15040857 314.42100811 200.13534582 327.38341296 C200.10397808 354.04862525 200.05120147 380.71376092 199.984375 407.37890625 C201.09296875 407.3325 202.2015625 407.28609375 203.34375 407.23828125 C204.80726468 407.20075523 206.27080856 407.16435596 207.734375 407.12890625 C208.46398437 407.09539062 209.19359375 407.061875 209.9453125 407.02734375 C213.4926712 406.96284632 215.55272251 407.06621311 218.46484375 409.17578125 C220.70410172 412.42241748 220.60225999 414.53428853 219.984375 418.37890625 C217.15505212 421.42131015 215.46794574 422.3125254 211.32342196 422.88145357 C209.87072512 422.9030503 208.41760159 422.90270862 206.96485138 422.88506413 C206.15860264 422.89117748 205.3523539 422.89729084 204.52167338 422.90358946 C201.80879171 422.91924157 199.09679738 422.90630247 196.38391113 422.89356995 C194.42387382 422.89889288 192.46384059 422.9059571 190.50381517 422.914617 C185.10893021 422.93330459 179.7143186 422.9269183 174.31942201 422.91646397 C168.50474775 422.90948934 162.69013063 422.92545663 156.87547302 422.9384613 C145.48106823 422.96013531 134.08676319 422.95996576 122.69234455 422.95183576 C113.43429592 422.94554347 104.17627645 422.94666571 94.91822815 422.95310783 C93.60205262 422.95400949 92.2858771 422.95491114 90.92981747 422.95584012 C88.92651423 422.95722323 86.923211 422.95861432 84.91990778 422.96002626 C66.29188563 422.97300965 47.66387436 422.978118 29.03585052 422.96649265 C28.33344807 422.96605468 27.63104562 422.96561671 26.90735825 422.96516547 C21.20308581 422.96155852 15.49881352 422.95772381 9.79454125 422.95387454 C-12.46074845 422.93902438 -34.71591545 422.94780924 -56.97119141 422.97583008 C-81.96677195 423.00724084 -106.96227984 423.02223361 -131.9578805 423.01203007 C-134.62174637 423.01099326 -137.28561225 423.01001287 -139.94947815 423.00904655 C-141.91563897 423.00833197 -141.91563897 423.00833197 -143.9215202 423.00760295 C-153.1716159 423.00543549 -162.42165462 423.01526047 -171.67173767 423.02981758 C-182.93999459 423.04730289 -194.20808468 423.04727818 -205.47633493 423.02446593 C-211.22884825 423.01328948 -216.98106725 423.0102382 -222.73356819 423.02876663 C-227.99519578 423.04549636 -233.25627062 423.03932253 -238.5178619 423.01454984 C-240.42559251 423.00964141 -242.33336708 423.01325005 -244.24106115 423.02603728 C-246.8267486 423.04212408 -249.41050261 423.0276634 -251.99610138 423.00531864 C-252.74360116 423.01731032 -253.49110094 423.029302 -254.26125222 423.04165706 C-258.17222963 422.97224196 -259.87628541 422.48919846 -262.98168898 420.03116173 C-265.015625 417.37890625 -265.015625 417.37890625 -265.578125 414.31640625 C-264.86399157 410.5870428 -264.07989641 409.6139658 -261.015625 407.37890625 C-258.08258912 406.8926133 -255.22825696 407.00116424 -252.265625 407.12890625 C-251.47285156 407.14695312 -250.68007812 407.165 -249.86328125 407.18359375 C-247.91354152 407.23057543 -245.96442622 407.30231581 -244.015625 407.37890625 C-244.01839038 406.28908038 -244.02115576 405.19925451 -244.02400494 404.07640362 C-244.09053314 377.58770075 -244.13986875 351.09900868 -244.17106152 324.61023998 C-244.18654612 311.80059532 -244.20766604 298.99100578 -244.24194336 286.18139648 C-244.27179697 275.01965004 -244.2911884 263.85794349 -244.29789048 252.69615823 C-244.30180959 246.78326595 -244.31105306 240.87048784 -244.33281517 234.95763206 C-244.35311654 229.39682378 -244.35947169 223.83617714 -244.35494804 218.27533531 C-244.3557761 216.23025129 -244.36177937 214.18516208 -244.37324142 212.14011002 C-244.38808621 209.35587537 -244.38460804 206.57225746 -244.37638855 203.78800964 C-244.38512707 202.97186713 -244.3938656 202.15572461 -244.40286893 201.31485051 C-244.35997089 195.96832573 -244.35997089 195.96832573 -242.8454361 193.37588501 C-240.26998255 191.97264044 -238.30879637 192.01021417 -235.37788391 192.0181427 C-234.2041925 192.01401871 -233.0305011 192.00989471 -231.82124329 192.00564575 C-230.53227646 192.01643158 -229.24330963 192.02721741 -227.9152832 192.03833008 C-226.54540017 192.03917622 -225.17551578 192.03870146 -223.80563354 192.03700256 C-220.08473663 192.03614067 -216.36412895 192.05379753 -212.64329934 192.07472444 C-208.7555565 192.09345908 -204.86780726 192.09523913 -200.98002625 192.09880066 C-193.6170825 192.1081306 -186.25427214 192.13275715 -178.89138716 192.16284913 C-170.5093919 192.19636368 -162.12739032 192.21287172 -153.74534476 192.22793543 C-136.50202764 192.25930593 -119.25884042 192.31208479 -102.015625 192.37890625 C-102.01931217 191.55284252 -102.02299934 190.72677879 -102.02679825 189.87568283 C-102.11508716 169.78742012 -102.18130434 149.6991908 -102.22287369 129.61077499 C-102.24351 119.89620756 -102.27165099 110.18176954 -102.31738281 100.46728516 C-102.35721789 92.00137791 -102.38305004 83.53556437 -102.39197898 75.06956601 C-102.39719939 70.58571605 -102.4094913 66.10213419 -102.43854523 61.61837006 C-102.46566183 57.3994698 -102.47407767 53.1809485 -102.46805573 48.96196938 C-102.46915765 47.41234847 -102.4771341 45.86271511 -102.4924469 44.31316948 C-102.51231731 42.19901438 -102.50757663 40.08629447 -102.49664307 37.97210693 C-102.50033024 36.78852474 -102.50401741 35.60494255 -102.50781631 34.38549423 C-101.90832171 30.72343597 -100.91839758 29.61895809 -98.015625 27.37890625 C-95.37684502 26.14430903 -92.81750147 25.06636122 -90.09765625 24.05078125 C-89.30384048 23.74428146 -88.51002472 23.43778168 -87.69215393 23.12199402 C-85.07464931 22.11394681 -82.45167997 21.1210893 -79.828125 20.12890625 C-77.0668979 19.07392344 -74.30677295 18.01609165 -71.54669189 16.95811462 C-69.63374934 16.22522591 -67.72028855 15.49368857 -65.80633545 14.76344299 C-58.98461107 12.15523097 -52.19965224 9.46417031 -45.42578125 6.734375 C-42.64529878 5.6211603 -39.86428924 4.50927318 -37.08309937 3.39782715 C-35.29613615 2.68010096 -33.51129022 1.95707933 -31.72866821 1.2286377 C-29.23366734 0.21040404 -26.73134707 -0.78737609 -24.2265625 -1.78125 C-23.49595108 -2.08561478 -22.76533966 -2.38997955 -22.0125885 -2.7035675 C-13.86320776 -5.88729042 -7.66282982 -3.33533758 0 0 Z M-29.06274414 16.24316406 C-30.09134048 16.65068909 -31.11993683 17.05821411 -32.17970276 17.47808838 C-33.29215866 17.92488953 -34.40461456 18.37169067 -35.55078125 18.83203125 C-36.69921005 19.2886615 -37.84763885 19.74529175 -39.03086853 20.21575928 C-42.09123572 21.43368499 -45.14978289 22.656043 -48.20751953 23.8805542 C-51.28465176 25.11158782 -54.36413066 26.33672182 -57.44335938 27.5625 C-63.96982812 30.16203294 -70.49330191 32.76899252 -77.015625 35.37890625 C-80.315625 36.69890625 -83.615625 38.01890625 -87.015625 39.37890625 C-87.015625 160.81890625 -87.015625 282.25890625 -87.015625 407.37890625 C-65.235625 407.37890625 -43.455625 407.37890625 -21.015625 407.37890625 C-21.015625 277.68890625 -21.015625 147.99890625 -21.015625 14.37890625 C-24.26909931 14.37890625 -26.05757437 15.04404661 -29.06274414 16.24316406 Z M-7.015625 14.37890625 C-7.015625 144.06890625 -7.015625 273.75890625 -7.015625 407.37890625 C19.384375 407.37890625 45.784375 407.37890625 72.984375 407.37890625 C72.984375 288.57890625 72.984375 169.77890625 72.984375 47.37890625 C43.42187578 34.79872166 43.42187578 34.79872166 13.84130859 22.26049805 C12.28472336 21.60207373 10.72878297 20.94212375 9.17333984 20.28100586 C6.81227707 19.27773003 4.4493554 18.27896273 2.0859375 17.28125 C1.39053864 16.98459946 0.69513977 16.68794891 -0.02133179 16.38230896 C-3.40112966 14.87955163 -3.40112966 14.87955163 -7.015625 14.37890625 Z M87.984375 158.37890625 C87.984375 240.54890625 87.984375 322.71890625 87.984375 407.37890625 C95.904375 407.37890625 103.824375 407.37890625 111.984375 407.37890625 C111.984375 325.20890625 111.984375 243.03890625 111.984375 158.37890625 C104.064375 158.37890625 96.144375 158.37890625 87.984375 158.37890625 Z M126.984375 164.37890625 C126.984375 244.56890625 126.984375 324.75890625 126.984375 407.37890625 C146.124375 407.37890625 165.264375 407.37890625 184.984375 407.37890625 C184.984375 338.07890625 184.984375 268.77890625 184.984375 197.37890625 C176.404375 192.42890625 167.824375 187.47890625 158.984375 182.37890625 C156.33921875 180.8475 153.6940625 179.31609375 150.96875 177.73828125 C149.9065625 177.12339844 148.844375 176.50851563 147.75 175.875 C145.66074707 174.66529008 143.57225648 173.45426293 141.484375 172.2421875 C140.44796875 171.64277344 139.4115625 171.04335937 138.34375 170.42578125 C137.45139648 169.90854492 136.55904297 169.39130859 135.63964844 168.85839844 C132.80184764 167.2772038 129.88999574 165.83171662 126.984375 164.37890625 Z M-229.015625 206.37890625 C-229.015625 272.70890625 -229.015625 339.03890625 -229.015625 407.37890625 C-187.105625 407.37890625 -145.195625 407.37890625 -102.015625 407.37890625 C-102.015625 341.04890625 -102.015625 274.71890625 -102.015625 206.37890625 C-143.925625 206.37890625 -185.835625 206.37890625 -229.015625 206.37890625 Z " fill="#000000" transform="translate(273.015625,21.62109375)"/>
<path d="M0 0 C0.89396484 -0.02835937 1.78792969 -0.05671875 2.70898438 -0.0859375 C7.28052201 -0.09951296 9.41545948 0.02280761 13.1875 2.8046875 C15.0625 5.5 15.0625 5.5 15.125 9.125 C14.0625 12.5 14.0625 12.5 12.6171875 14.1796875 C8.57915878 16.26661978 4.60340018 16.01285973 0.125 16 C-1.21594727 16.04253906 -1.21594727 16.04253906 -2.58398438 16.0859375 C-7.15552201 16.09951296 -9.29045948 15.97719239 -13.0625 13.1953125 C-14.9375 10.5 -14.9375 10.5 -15 6.875 C-13.9375 3.5 -13.9375 3.5 -12.4921875 1.8203125 C-8.45415878 -0.26661978 -4.47840018 -0.01285973 0 0 Z " fill="#000000" transform="translate(66.9375,369.5)"/>
<path d="M0 0 C0.87140625 -0.00386719 1.7428125 -0.00773437 2.640625 -0.01171875 C3.54296875 -0.00011719 4.4453125 0.01148438 5.375 0.0234375 C6.72851562 0.00603516 6.72851562 0.00603516 8.109375 -0.01171875 C9.41648437 -0.00591797 9.41648437 -0.00591797 10.75 0 C11.54148437 0.00338379 12.33296875 0.00676758 13.1484375 0.01025391 C15.94210966 0.49730859 17.31625789 1.4731955 19.375 3.3984375 C20.56808162 7.05722112 20.70167744 8.69841442 19.0625 12.2109375 C17.375 14.3984375 17.375 14.3984375 15.375 15.3984375 C12.11154645 15.7157456 8.83949132 15.72263143 5.5625 15.7734375 C4.65951172 15.81082031 3.75652344 15.84820312 2.82617188 15.88671875 C-1.7860936 15.94771859 -3.94090472 15.89999364 -7.7578125 13.1015625 C-9.625 10.3984375 -9.625 10.3984375 -9.6875 6.7734375 C-8.05094771 1.57497728 -5.34422307 0.02284786 0 0 Z " fill="#000000" transform="translate(61.625,304.6015625)"/>
<path d="M0 0 C0.87140625 -0.00386719 1.7428125 -0.00773438 2.640625 -0.01171875 C3.54296875 -0.00011719 4.4453125 0.01148438 5.375 0.0234375 C6.72851562 0.00603516 6.72851562 0.00603516 8.109375 -0.01171875 C9.41648437 -0.00591797 9.41648437 -0.00591797 10.75 0 C11.54148437 0.00338379 12.33296875 0.00676758 13.1484375 0.01025391 C15.94210966 0.49730859 17.31625789 1.4731955 19.375 3.3984375 C20.56808162 7.05722112 20.70167744 8.69841442 19.0625 12.2109375 C17.375 14.3984375 17.375 14.3984375 15.375 15.3984375 C12.11154645 15.7157456 8.83949132 15.72263143 5.5625 15.7734375 C4.65951172 15.81082031 3.75652344 15.84820312 2.82617188 15.88671875 C-1.7860936 15.94771859 -3.94090472 15.89999364 -7.7578125 13.1015625 C-9.625 10.3984375 -9.625 10.3984375 -9.6875 6.7734375 C-8.05094771 1.57497728 -5.34422307 0.02284786 0 0 Z " fill="#000000" transform="translate(61.625,239.6015625)"/>
<path d="M0 0 C0.95455078 -0.02449219 1.90910156 -0.04898437 2.89257812 -0.07421875 C9.87971955 -0.10355594 9.87971955 -0.10355594 13.1875 2.21484375 C15.10486618 5.22706959 15.2065787 6.86834932 14.5625 10.375 C12.50269367 13.24522194 10.89077758 15.0968458 7.34155273 15.84008789 C4.71035039 16.01238581 2.13565792 16.00780955 -0.5 15.9375 C-1.39783203 15.94845703 -2.29566406 15.95941406 -3.22070312 15.97070312 C-9.73619998 15.89803959 -9.73619998 15.89803959 -13.00390625 13.4609375 C-14.51245744 11.26593385 -15.27644314 10.03243822 -15.4375 7.375 C-13.08028955 -0.87523656 -7.31928143 0.00984436 0 0 Z " fill="#000000" transform="translate(107.4375,369.625)"/>
<path d="M0 0 C1.34771484 -0.03673828 1.34771484 -0.03673828 2.72265625 -0.07421875 C7.0036548 -0.0931892 9.47473297 -0.01171183 13.21875 2.21484375 C15.125 4.375 15.125 4.375 15.75 7.3125 C14.8899107 11.52693757 13.55046366 12.77667105 10.125 15.375 C6.75249306 16.08131329 3.49594524 16.02909155 0.0625 15.9375 C-0.83533203 15.94845703 -1.73316406 15.95941406 -2.65820312 15.97070312 C-9.17369998 15.89803959 -9.17369998 15.89803959 -12.44140625 13.4609375 C-13.94995744 11.26593385 -14.71394314 10.03243822 -14.875 7.375 C-12.57453985 -0.67661054 -7.17337261 0.01020394 0 0 Z " fill="#000000" transform="translate(106.875,304.625)"/>
<path d="M0 0 C0.90298828 -0.03738281 1.80597656 -0.07476562 2.73632812 -0.11328125 C7.36171983 -0.17445469 9.48996868 -0.15012761 13.28515625 2.70703125 C15.1875 5.375 15.1875 5.375 15.8125 8.4375 C15.1875 11.375 15.1875 11.375 13.27734375 13.53125 C8.8816407 16.15422325 5.14691956 15.92474189 0.125 15.8125 C-1.22174805 15.82313477 -1.22174805 15.82313477 -2.59570312 15.83398438 C-9.07805864 15.77132964 -9.07805864 15.77132964 -12.375 13.9921875 C-14.37513284 11.74203806 -14.74240536 10.38906958 -14.8125 7.375 C-11.56724093 -0.66087959 -7.86432377 0.1219275 0 0 Z " fill="#000000" transform="translate(106.8125,239.625)"/>
<path d="M0 0 C0.95003906 -0.01546875 1.90007812 -0.0309375 2.87890625 -0.046875 C9.76517738 -0.00813367 9.76517738 -0.00813367 13.12109375 2.3125 C15.178385 5.5761915 15.10559775 7.73183623 14.5 11.5 C11.60551868 14.7613874 9.26708868 15.76105464 5.03125 16.03125 C3.35416759 16.0418143 1.67683257 16.03081469 0 16 C-0.84175781 16.01546875 -1.68351563 16.0309375 -2.55078125 16.046875 C-6.65196329 16.02104078 -8.96836319 15.81504404 -12.55859375 13.6875 C-14.5 11.5 -14.5 11.5 -15.0625 8 C-14.5 4.5 -14.5 4.5 -13.12109375 2.3125 C-8.99120388 -0.54334039 -4.89918272 -0.0797696 0 0 Z " fill="#000000" transform="translate(147.5,369.5)"/>
<path d="M0 0 C0.95003906 -0.01546875 1.90007812 -0.0309375 2.87890625 -0.046875 C9.76136415 -0.00815512 9.76136415 -0.00815512 13.12890625 2.30859375 C15.12946574 5.50606917 14.96925801 7.81297279 14.5 11.5 C12.95737187 13.60358381 11.81891683 14.34054159 9.5 15.5 C6.40274877 15.78978025 3.29674735 15.77782438 0.1875 15.8125 C-0.66779297 15.84150391 -1.52308594 15.87050781 -2.40429688 15.90039062 C-6.56963424 15.94233438 -8.90982852 15.84614383 -12.5703125 13.69921875 C-14.5 11.5 -14.5 11.5 -15.0625 8 C-14.5 4.5 -14.5 4.5 -13.12109375 2.3125 C-8.99120388 -0.54334039 -4.89918272 -0.0797696 0 0 Z " fill="#000000" transform="translate(147.5,304.5)"/>
<path d="M0 0 C0.85013672 0.00128906 1.70027344 0.00257813 2.57617188 0.00390625 C6.74995703 0.06283028 9.8013386 0.13148494 13.4375 2.375 C14.98336876 5.46673752 14.73109521 7.96929552 14.4375 11.375 C13.07421875 13.5703125 13.07421875 13.5703125 10.4375 15.375 C6.92917774 15.97256927 3.48825722 15.93281423 -0.0625 15.875 C-1.01253906 15.89046875 -1.96257812 15.9059375 -2.94140625 15.921875 C-9.82767738 15.88313367 -9.82767738 15.88313367 -13.18359375 13.5625 C-15.240885 10.2988085 -15.16809775 8.14316377 -14.5625 4.375 C-10.28604363 -0.47050097 -6.01727602 -0.17414813 0 0 Z " fill="#000000" transform="translate(147.5625,239.625)"/>
<path d="M0 0 C1.00611328 -0.00708984 2.01222656 -0.01417969 3.04882812 -0.02148438 C10.42405964 0.04256239 10.42405964 0.04256239 12.68920898 1.78491211 C14.61386027 4.33292004 14.87411283 6.26814167 14.9375 9.4375 C13.6328125 12.1015625 13.6328125 12.1015625 10.9375 14.4375 C7.23943465 15.14530424 3.62744163 15.04367841 -0.125 14.9375 C-1.13111328 14.94007813 -2.13722656 14.94265625 -3.17382812 14.9453125 C-10.51649356 14.8472141 -10.51649356 14.8472141 -12.81420898 13.12304688 C-14.88899445 10.32149811 -15.00245399 7.86012272 -15.0625 4.4375 C-11.70600115 -1.21026154 -5.81694095 -0.11596474 0 0 Z " fill="#000000" transform="translate(67.0625,337.5625)"/>
<path d="M0 0 C1.06734375 -0.02900391 2.1346875 -0.05800781 3.234375 -0.08789062 C4.25789063 -0.09626953 5.28140625 -0.10464844 6.3359375 -0.11328125 C7.27743652 -0.12786377 8.21893555 -0.14244629 9.18896484 -0.1574707 C11.625 0.3125 11.625 0.3125 13.42822266 2.15161133 C15.06723987 5.11100368 15.11110602 6.97920158 14.625 10.3125 C13.2890625 12.47265625 13.2890625 12.47265625 10.625 14.3125 C6.93018291 14.89088617 3.29426084 14.82439523 -0.4375 14.75 C-1.94666992 14.76063477 -1.94666992 14.76063477 -3.48632812 14.77148438 C-10.87219637 14.70734524 -10.87219637 14.70734524 -13.13061523 12.93383789 C-14.85656598 10.68505647 -15.24016429 9.14404987 -15.375 6.3125 C-11.61791543 -1.20166913 -7.86469254 0.07072565 0 0 Z " fill="#000000" transform="translate(107.375,402.6875)"/>
<path d="M0 0 C1.010625 -0.01611328 2.02125 -0.03222656 3.0625 -0.04882812 C4.5165625 -0.04979492 4.5165625 -0.04979492 6 -0.05078125 C6.886875 -0.05376221 7.77375 -0.05674316 8.6875 -0.05981445 C11.47511051 0.38899319 12.3214005 1.08039679 14 3.3125 C15.17067977 6.90258462 15.37449693 8.55232712 13.69140625 11.96875 C9.50207566 15.61693339 5.37261089 15.04162037 0 14.9375 C-0.99773437 14.95683594 -1.99546875 14.97617187 -3.0234375 14.99609375 C-10.25959426 14.94759404 -10.25959426 14.94759404 -13.69140625 12.00390625 C-15.47112467 8.34353015 -15.09468977 6.18040386 -14 2.3125 C-9.52737273 -0.66925151 -5.260522 -0.01677462 0 0 Z " fill="#000000" transform="translate(67,402.6875)"/>
<path d="M0 0 C1.01126953 -0.02900391 2.02253906 -0.05800781 3.06445312 -0.08789062 C10.51123552 -0.15187488 10.51123552 -0.15187488 13.85546875 2.14453125 C15.68553191 5.1230798 15.75981457 6.87861256 15.1875 10.3125 C13.84765625 12.47265625 13.84765625 12.47265625 11.1875 14.3125 C7.49270022 14.89094374 3.85674893 14.82439499 0.125 14.75 C-1.38416992 14.76063477 -1.38416992 14.76063477 -2.92382812 14.77148438 C-10.30969637 14.70734524 -10.30969637 14.70734524 -12.56811523 12.93383789 C-14.29406598 10.68505647 -14.67766429 9.14404987 -14.8125 6.3125 C-11.13187773 -1.04874455 -7.70989455 0.07287235 0 0 Z " fill="#000000" transform="translate(106.8125,337.6875)"/>
<path d="M0 0 C0.92876953 0.00185303 1.85753906 0.00370605 2.81445312 0.00561523 C3.82894531 0.0049707 4.8434375 0.00432617 5.88867188 0.00366211 C6.94699219 0.02364258 8.0053125 0.04362305 9.09570312 0.06420898 C10.15402344 0.05711914 11.21234375 0.0500293 12.30273438 0.04272461 C20.0900853 0.10704199 20.0900853 0.10704199 22.39697266 1.90771484 C23.89202261 3.89573545 23.99875441 5.03319593 23.97070312 7.50170898 C23.9784375 8.18233398 23.98617187 8.86295898 23.99414062 9.56420898 C23.46682786 12.12839653 22.6523544 12.89636137 20.59570312 14.50170898 C16.7928526 15.14079485 12.94621276 14.96500412 9.09570312 14.93920898 C7.50822266 14.96917969 7.50822266 14.96917969 5.88867188 14.99975586 C4.36693359 14.99878906 4.36693359 14.99878906 2.81445312 14.99780273 C1.88568359 14.99965576 0.95691406 15.00150879 0 15.00341797 C-2.40429688 14.50170898 -2.40429688 14.50170898 -4.20703125 12.65820312 C-5.83343973 9.72874429 -5.81729813 7.80571903 -5.40429688 4.50170898 C-3.8680934 1.73472584 -3.15050447 0.65742147 0 0 Z " fill="#000000" transform="translate(138.404296875,272.498291015625)"/>
<path d="M0 0 C1.01126953 -0.02900391 2.02253906 -0.05800781 3.06445312 -0.08789062 C10.51123552 -0.15187488 10.51123552 -0.15187488 13.85546875 2.14453125 C15.68553191 5.1230798 15.75981457 6.87861256 15.1875 10.3125 C13.84765625 12.47265625 13.84765625 12.47265625 11.1875 14.3125 C7.49270022 14.89094374 3.85674893 14.82439499 0.125 14.75 C-1.38416992 14.76063477 -1.38416992 14.76063477 -2.92382812 14.77148438 C-10.30969637 14.70734524 -10.30969637 14.70734524 -12.56811523 12.93383789 C-14.29406598 10.68505647 -14.67766429 9.14404987 -14.8125 6.3125 C-11.13187773 -1.04874455 -7.70989455 0.07287235 0 0 Z " fill="#000000" transform="translate(106.8125,272.6875)"/>
<path d="M0 0 C1.51013672 -0.05607422 1.51013672 -0.05607422 3.05078125 -0.11328125 C10.45626846 -0.20179305 10.45626846 -0.20179305 13.82421875 2.703125 C15.4920788 6.1289997 15.29658938 7.78212589 14.125 11.375 C12.4464005 13.60710321 11.60011051 14.29850681 8.8125 14.74731445 C7.925625 14.7443335 7.03875 14.74135254 6.125 14.73828125 C5.155625 14.73763672 4.18625 14.73699219 3.1875 14.73632812 C1.6715625 14.7121582 1.6715625 14.7121582 0.125 14.6875 C-0.885625 14.69072266 -1.89625 14.69394531 -2.9375 14.69726562 C-10.47428571 14.64214286 -10.47428571 14.64214286 -13.875 12.375 C-14.71072001 8.90354767 -15.23198727 6.41850124 -14.0625 3 C-10.97511102 -1.22484808 -4.71413828 0.06589012 0 0 Z " fill="#000000" transform="translate(66.875,272.625)"/>
<path d="M0 0 C1.01449219 -0.00386719 2.02898437 -0.00773437 3.07421875 -0.01171875 C4.13253906 -0.00011719 5.19085938 0.01148438 6.28125 0.0234375 C7.33957031 0.01183594 8.39789063 0.00023437 9.48828125 -0.01171875 C11.01001953 -0.00591797 11.01001953 -0.00591797 12.5625 0 C13.9556543 0.00507568 13.9556543 0.00507568 15.37695312 0.01025391 C18.19777465 0.46568711 19.08386844 1.14239346 20.78125 3.3984375 C21.21484375 5.3359375 21.21484375 5.3359375 21.21875 7.3984375 C21.24775391 8.419375 21.24775391 8.419375 21.27734375 9.4609375 C20.56253556 12.25262931 19.19553956 12.90419854 16.78125 14.3984375 C13.30230179 15.00476219 9.80751317 14.8622529 6.28125 14.8359375 C5.33121094 14.85591797 4.38117188 14.87589844 3.40234375 14.89648438 C-3.5003113 14.89163019 -3.5003113 14.89163019 -6.84765625 12.59375 C-8.84633634 9.39358416 -8.68822561 7.08717444 -8.21875 3.3984375 C-5.89593295 0.13044165 -3.87853436 0.01413068 0 0 Z " fill="#000000" transform="translate(141.21875,402.6015625)"/>
<path d="M0 0 C0.92876953 0.00185303 1.85753906 0.00370605 2.81445312 0.00561523 C3.82894531 0.0049707 4.8434375 0.00432617 5.88867188 0.00366211 C6.94699219 0.02364258 8.0053125 0.04362305 9.09570312 0.06420898 C10.15402344 0.05711914 11.21234375 0.0500293 12.30273438 0.04272461 C20.0900853 0.10704199 20.0900853 0.10704199 22.39697266 1.90771484 C23.89202261 3.89573545 23.99875441 5.03319593 23.97070312 7.50170898 C23.9784375 8.18233398 23.98617187 8.86295898 23.99414062 9.56420898 C23.46849213 12.12030362 22.63715308 12.89406365 20.59570312 14.50170898 C16.98070649 15.13770552 13.32286819 14.96503302 9.65820312 14.93920898 C8.15483398 14.96917969 8.15483398 14.96917969 6.62109375 14.99975586 C-0.69019592 14.99487841 -0.69019592 14.99487841 -4.06835938 12.66186523 C-5.89140736 9.71407127 -5.90119329 7.90899871 -5.40429688 4.50170898 C-3.86435437 1.7370114 -3.15071694 0.65746581 0 0 Z " fill="#000000" transform="translate(138.404296875,337.498291015625)"/>
<path d="M0 0 C3.05057331 2.78956169 4.24368368 4.9809598 4.49609375 9.03125 C4.49741208 10.52096079 4.47736573 12.01082214 4.4375 13.5 C4.44458984 14.24636719 4.45167969 14.99273437 4.45898438 15.76171875 C4.40712454 20.26953553 3.98150675 23.39590483 1 27 C-2.94852981 28.24305568 -4.97240764 28.5264733 -8.69140625 26.62109375 C-12.16839494 22.6734467 -11.69696677 19.08793194 -11.5625 14 C-11.57345703 13.09765625 -11.58441406 12.1953125 -11.59570312 11.265625 C-11.52337254 4.74622794 -11.52337254 4.74622794 -9.18359375 1.41015625 C-5.92891565 -0.69170206 -3.78146332 -0.60773518 0 0 Z " fill="#000000" transform="translate(286,266)"/>
<path d="M0 0 C3.50896228 4.24169223 3.48738 8.24899677 3.4375 13.5 C3.45748047 14.24636719 3.47746094 14.99273437 3.49804688 15.76171875 C3.49462203 19.63179177 3.2368872 21.60757563 1.19140625 24.99609375 C-1 27 -1 27 -4.5 27.5625 C-8 27 -8 27 -10.18359375 25.58984375 C-12.98734493 21.59223723 -12.62038194 17.76674836 -12.5625 13 C-12.58634766 12.09765625 -12.61019531 11.1953125 -12.63476562 10.265625 C-12.62020616 3.70415962 -12.62020616 3.70415962 -9.69140625 0.37890625 C-5.97240764 -1.5264733 -3.94852981 -1.24305568 0 0 Z " fill="#000000" transform="translate(287,111)"/>
<path d="M0 0 C3.32930988 0.98646219 4.3443411 1.34556608 6.375 4 C7.00258159 7.28200521 6.83846507 10.60216925 6.8125 13.9375 C6.83248047 14.84435547 6.85246094 15.75121094 6.87304688 16.68554688 C6.86818509 23.2927108 6.86818509 23.2927108 4.56640625 26.59375 C1.30542597 28.68635767 -0.84198365 28.60798477 -4.625 28 C-7.76646248 25.16200617 -8.87819318 22.8772818 -9.19140625 18.75 C-9.21119638 17.16678981 -9.20934587 15.58318315 -9.1875 14 C-9.21134766 13.2059375 -9.23519531 12.411875 -9.25976562 11.59375 C-9.24898674 7.28219738 -8.98915255 5.48307208 -6.31640625 1.9375 C-3.625 0 -3.625 0 0 0 Z " fill="#000000" transform="translate(306.625,67)"/>
<path d="M0 0 C3.375 1.0625 3.375 1.0625 5.05859375 2.53515625 C7.09615257 6.44702733 6.84854142 10.21787073 6.8125 14.5625 C6.83248047 15.41714844 6.85246094 16.27179688 6.87304688 17.15234375 C6.86820098 23.36477506 6.86820098 23.36477506 4.56640625 26.62109375 C1.3124837 28.76137436 -0.82481631 28.67324381 -4.625 28.0625 C-7.76646248 25.22450617 -8.87819318 22.9397818 -9.19140625 18.8125 C-9.21119638 17.22928981 -9.20934587 15.64568315 -9.1875 14.0625 C-9.21134766 13.2684375 -9.23519531 12.474375 -9.25976562 11.65625 C-9.24898925 7.34570198 -8.99065729 5.54694951 -6.31640625 2.00390625 C-3.625 0.0625 -3.625 0.0625 0 0 Z " fill="#000000" transform="translate(235.625,376.9375)"/>
<path d="M0 0 C3.5 0.5625 3.5 0.5625 5.68359375 2.0078125 C8.42171371 5.85884574 8.12196224 9.38642993 8.0625 14 C8.08634766 14.84626953 8.11019531 15.69253906 8.13476562 16.56445312 C8.12432018 21.01072926 7.92388807 22.99516419 5.19140625 26.65234375 C2.5 28.5625 2.5 28.5625 -1.125 28.6875 C-4.5 27.5625 -4.5 27.5625 -6.18359375 25.5234375 C-7.92636963 21.60348464 -7.97779007 18.30394507 -7.9375 14.0625 C-7.9674707 12.94294922 -7.9674707 12.94294922 -7.99804688 11.80078125 C-7.99462203 7.93070823 -7.7368872 5.95492437 -5.69140625 2.56640625 C-3.5 0.5625 -3.5 0.5625 0 0 Z " fill="#000000" transform="translate(305.5,222.4375)"/>
<path d="M0 0 C3.77418023 0.72271536 4.69788256 1.42987054 6.9375 4.5625 C7.56114105 7.90346144 7.54116746 11.17223889 7.5 14.5625 C7.52384766 15.46484375 7.54769531 16.3671875 7.57226562 17.296875 C7.55770849 23.85728831 7.55770849 23.85728831 4.62890625 27.1875 C0.93434735 29.07499598 -1.12906893 28.72796106 -5.0625 27.5625 C-7.80102773 25.11056239 -8.2865542 22.94076712 -8.53125 19.41015625 C-8.55772081 17.81528981 -8.56762475 16.22007786 -8.5625 14.625 C-8.59085937 13.82642578 -8.61921875 13.02785156 -8.6484375 12.20507812 C-8.66285028 7.85602322 -8.46303329 6.08138787 -5.72265625 2.53125 C-3.0625 0.5625 -3.0625 0.5625 0 0 Z " fill="#000000" transform="translate(306.0625,170.4375)"/>
<path d="M0 0 C2.73852773 2.45193761 3.2240542 4.62173288 3.46875 8.15234375 C3.49522081 9.74721019 3.50512475 11.34242214 3.5 12.9375 C3.52835937 13.73607422 3.55671875 14.53464844 3.5859375 15.35742188 C3.60035028 19.70647678 3.40053329 21.48111213 0.66015625 25.03125 C-2 27 -2 27 -5.0625 27.5625 C-8.83668023 26.83978464 -9.76038256 26.13262946 -12 23 C-12.62364105 19.65903856 -12.60366746 16.39026111 -12.5625 13 C-12.58634766 12.09765625 -12.61019531 11.1953125 -12.63476562 10.265625 C-12.62020849 3.70521169 -12.62020849 3.70521169 -9.69140625 0.375 C-5.99684735 -1.51249598 -3.93343107 -1.16546106 0 0 Z " fill="#000000" transform="translate(287,163)"/>
<path d="M0 0 C2.07318725 1.81952669 2.89882464 3.31143175 3.30029297 6.04370117 C3.4409317 8.5363038 3.45820883 11.00364502 3.4375 13.5 C3.45748047 14.35464844 3.47746094 15.20929688 3.49804688 16.08984375 C3.49320098 22.30227506 3.49320098 22.30227506 1.19140625 25.55859375 C-2.0625163 27.69887436 -4.19981631 27.61074381 -8 27 C-11.05057331 24.21043831 -12.24368368 22.0190402 -12.49609375 17.96875 C-12.49741208 16.47903921 -12.47736573 14.98917786 -12.4375 13.5 C-12.44458984 12.75363281 -12.45167969 12.00726563 -12.45898438 11.23828125 C-12.40704039 6.72315053 -11.96292945 3.62523132 -9 0 C-5.4314543 -1.18951523 -3.60804584 -0.97717908 0 0 Z " fill="#000000" transform="translate(310,379)"/>
<path d="M0 0 C3.83505663 1.20733264 4.53734605 1.58349936 6.375 5.0625 C6.83672511 8.0490014 6.83915696 10.9829167 6.8125 14 C6.83248047 14.79857422 6.85246094 15.59714844 6.87304688 16.41992188 C6.86972938 20.42414281 6.66096977 22.5838249 4.56640625 26.08984375 C2.375 28.0625 2.375 28.0625 -1.125 28.6875 C-4.625 28.0625 -4.625 28.0625 -6.80859375 26.0859375 C-9.27053669 21.98799377 -9.2522555 18.75536942 -9.1875 14.0625 C-9.21134766 13.2684375 -9.23519531 12.474375 -9.25976562 11.65625 C-9.24898925 7.34570198 -8.99065729 5.54694951 -6.31640625 2.00390625 C-3.625 0.0625 -3.625 0.0625 0 0 Z " fill="#000000" transform="translate(235.625,324.9375)"/>
<path d="M0 0 C3.83505663 1.20733264 4.53734605 1.58349936 6.375 5.0625 C6.83672511 8.0490014 6.83915696 10.9829167 6.8125 14 C6.83248047 14.79857422 6.85246094 15.59714844 6.87304688 16.41992188 C6.86972938 20.42414281 6.66096977 22.5838249 4.56640625 26.08984375 C2.375 28.0625 2.375 28.0625 -1.125 28.6875 C-4.625 28.0625 -4.625 28.0625 -6.80859375 26.0859375 C-9.27053669 21.98799377 -9.2522555 18.75536942 -9.1875 14.0625 C-9.21134766 13.2684375 -9.23519531 12.474375 -9.25976562 11.65625 C-9.24898925 7.34570198 -8.99065729 5.54694951 -6.31640625 2.00390625 C-3.625 0.0625 -3.625 0.0625 0 0 Z " fill="#000000" transform="translate(235.625,272.9375)"/>
<path d="M0 0 C2.65029494 1.99647769 4.66981602 3.58536184 5.44897461 6.92358398 C5.60095291 9.1361112 5.58419492 11.28414291 5.5 13.5 C5.50257813 14.24636719 5.50515625 14.99273437 5.5078125 15.76171875 C5.42824242 20.2574283 4.96545877 23.4069674 2 27 C-1.94852981 28.24305568 -3.97240764 28.5264733 -7.69140625 26.62109375 C-11.16839494 22.6734467 -10.69696677 19.08793194 -10.5625 14 C-10.57345703 13.09765625 -10.58441406 12.1953125 -10.59570312 11.265625 C-10.52321286 4.73183571 -10.52321286 4.73183571 -8.1484375 1.41015625 C-5.14955625 -0.55820035 -3.51984471 -0.64650209 0 0 Z " fill="#000000" transform="translate(285,214)"/>
<path d="M0 0 C3.33064745 0.9868585 4.34178029 1.34664828 6.375 4 C7.02699413 7.28081928 6.88445087 10.59898155 6.875 13.9375 C6.90335937 14.84435547 6.93171875 15.75121094 6.9609375 16.68554688 C6.98043374 23.30939507 6.98043374 23.30939507 4.0703125 26.62890625 C0.37312882 28.50964751 -1.69169023 28.16542512 -5.625 27 C-8.36352773 24.54806239 -8.8490542 22.37826712 -9.09375 18.84765625 C-9.12022081 17.25278981 -9.13012475 15.65757786 -9.125 14.0625 C-9.15335937 13.26392578 -9.18171875 12.46535156 -9.2109375 11.64257812 C-9.22530201 7.30808591 -9.00338689 5.50344697 -6.3203125 1.93359375 C-3.625 0 -3.625 0 0 0 Z " fill="#000000" transform="translate(306.625,119)"/>
<path d="M0 0 C2.9375 0.625 2.9375 0.625 5.0859375 2.6015625 C7.59486962 6.69842634 7.5650287 9.9123316 7.5 14.625 C7.52384766 15.4190625 7.54769531 16.213125 7.57226562 17.03125 C7.56148925 21.34179802 7.30315729 23.14055049 4.62890625 26.68359375 C1.9375 28.625 1.9375 28.625 -1.6875 28.6875 C-5.5238704 27.47975376 -6.22027774 27.10233077 -8.0625 23.625 C-8.54902809 20.63907527 -8.57220403 17.70788028 -8.5625 14.6875 C-8.59085938 13.88892578 -8.61921875 13.09035156 -8.6484375 12.26757812 C-8.66284682 7.91956441 -8.4645466 6.14517716 -5.72265625 2.59765625 C-3.0625 0.625 -3.0625 0.625 0 0 Z " fill="#000000" transform="translate(235.0625,64.375)"/>
<path d="M0 0 C3.8363704 1.20774624 4.53277774 1.58516923 6.375 5.0625 C6.86152809 8.04842473 6.88470403 10.97961972 6.875 14 C6.90335938 14.79857422 6.93171875 15.59714844 6.9609375 16.41992188 C6.97529858 20.75337836 6.75488438 22.55770449 4.0703125 26.125 C1.375 28.0625 1.375 28.0625 -2.25 28.125 C-6.0863704 26.91725376 -6.78277774 26.53983077 -8.625 23.0625 C-9.11152809 20.07657527 -9.13470403 17.14538028 -9.125 14.125 C-9.15335938 13.32642578 -9.18171875 12.52785156 -9.2109375 11.70507812 C-9.22529858 7.37162164 -9.00488438 5.56729551 -6.3203125 2 C-3.625 0.0625 -3.625 0.0625 0 0 Z " fill="#000000" transform="translate(235.625,220.9375)"/>
<path d="M0 0 C3.8363704 1.20774624 4.53277774 1.58516923 6.375 5.0625 C6.86152809 8.04842473 6.88470403 10.97961972 6.875 14 C6.90335938 14.79857422 6.93171875 15.59714844 6.9609375 16.41992188 C6.97529858 20.75337836 6.75488438 22.55770449 4.0703125 26.125 C1.375 28.0625 1.375 28.0625 -2.25 28.125 C-6.0863704 26.91725376 -6.78277774 26.53983077 -8.625 23.0625 C-9.11152809 20.07657527 -9.13470403 17.14538028 -9.125 14.125 C-9.15335938 13.32642578 -9.18171875 12.52785156 -9.2109375 11.70507812 C-9.22529858 7.37162164 -9.00488438 5.56729551 -6.3203125 2 C-3.625 0.0625 -3.625 0.0625 0 0 Z " fill="#000000" transform="translate(235.625,168.9375)"/>
<path d="M0 0 C3.8363704 1.20774624 4.53277774 1.58516923 6.375 5.0625 C6.86152809 8.04842473 6.88470403 10.97961972 6.875 14 C6.90335938 14.79857422 6.93171875 15.59714844 6.9609375 16.41992188 C6.97529858 20.75337836 6.75488438 22.55770449 4.0703125 26.125 C1.375 28.0625 1.375 28.0625 -2.25 28.125 C-6.0863704 26.91725376 -6.78277774 26.53983077 -8.625 23.0625 C-9.11152809 20.07657527 -9.13470403 17.14538028 -9.125 14.125 C-9.15335938 13.32642578 -9.18171875 12.52785156 -9.2109375 11.70507812 C-9.22529858 7.37162164 -9.00488438 5.56729551 -6.3203125 2 C-3.625 0.0625 -3.625 0.0625 0 0 Z " fill="#000000" transform="translate(235.625,116.9375)"/>
<path d="M0 0 C1.87109375 0.33203125 1.87109375 0.33203125 3.80859375 1.70703125 C6.34299494 5.58317424 6.05485885 9.21020765 6.05859375 13.70703125 C6.07083984 14.4753125 6.08308594 15.24359375 6.09570312 16.03515625 C6.11445834 23.26216392 6.11445834 23.26216392 3.87109375 26.33203125 C0.76188766 27.8866343 -2.75973653 28.05923818 -6.12890625 27.33203125 C-8.29932433 25.54376353 -9.02842935 24.06602942 -9.40893555 21.28637695 C-9.53394638 18.79415067 -9.53777517 16.3270417 -9.50390625 13.83203125 C-9.51550781 12.97738281 -9.52710938 12.12273437 -9.5390625 11.2421875 C-9.52218236 7.63546417 -9.47356617 5.02663728 -7.85546875 1.765625 C-5.21932806 -0.42320675 -3.29797092 -0.16338572 0 0 Z " fill="#000000" transform="translate(284.12890625,369.66796875)"/>
<path d="M0 0 C3.07795251 2.80411332 4.24556338 4.98787593 4.4609375 9.06640625 C4.45302747 10.56535704 4.42386751 12.06432511 4.375 13.5625 C4.37371094 14.31724609 4.37242187 15.07199219 4.37109375 15.84960938 C4.25737891 23.01996184 4.25737891 23.01996184 2 26 C-1.3125 27.4375 -1.3125 27.4375 -5 28 C-7.99301929 26.69868726 -9.53241494 25.93517013 -11 23 C-11.2893113 19.88182281 -11.27777304 16.75505705 -11.3125 13.625 C-11.34150391 12.76132812 -11.37050781 11.89765625 -11.40039062 11.0078125 C-11.46405114 4.66134838 -11.46405114 4.66134838 -9.19921875 1.43359375 C-5.93815659 -0.69217857 -3.79978393 -0.61067956 0 0 Z " fill="#000000" transform="translate(286,318)"/>
<path d="M0 0 C3.5 0.5625 3.5 0.5625 5.69140625 2.00390625 C8.42740344 5.87448543 8.04558327 9.43932511 7.9375 14.0625 C7.94458984 14.91714844 7.95167969 15.77179688 7.95898438 16.65234375 C7.92190936 20.30851039 7.88742171 22.85222686 6.1171875 26.09765625 C3.87334037 28.13012648 2.52968924 28.49204211 -0.5 28.5625 C-3.75 27.3125 -3.75 27.3125 -6.5 25.5625 C-7.76740158 21.76029525 -7.76228356 18.15125078 -7.8125 14.1875 C-7.85600586 13.05441406 -7.85600586 13.05441406 -7.90039062 11.8984375 C-7.9449013 7.98149807 -7.76085323 5.99763261 -5.69921875 2.55859375 C-3.5 0.5625 -3.5 0.5625 0 0 Z " fill="#000000" transform="translate(305.5,274.4375)"/>
<path d="M0 0 C2.77958753 3.62713389 2.36753806 8.06853335 2.375 12.4375 C2.39949219 13.18837891 2.42398437 13.93925781 2.44921875 14.71289062 C2.46976587 18.60656907 2.24896588 20.58613464 0.1953125 24 C-2 26 -2 26 -5.5 26.5625 C-9 26 -9 26 -11.19140625 24.55859375 C-13.92740344 20.68801457 -13.54558327 17.12317489 -13.4375 12.5 C-13.44458984 11.64535156 -13.45167969 10.79070312 -13.45898438 9.91015625 C-13.42219084 6.28174759 -13.37508058 3.70860704 -11.66015625 0.46875 C-7.72565299 -3.01212817 -4.53626033 -1.73202667 0 0 Z " fill="#000000" transform="translate(288,60)"/>
<path d="M0 0 C2.16466987 1.78756675 2.89502316 3.27485497 3.29614258 6.0456543 C3.44126373 8.53797476 3.45820849 11.003686 3.4375 13.5 C3.45748047 14.35464844 3.47746094 15.20929688 3.49804688 16.08984375 C3.49320383 22.29862572 3.49320383 22.29862572 1.1953125 25.56640625 C-1.99545211 27.65005503 -4.27831571 27.47366891 -8 27 C-10.10358381 25.45737187 -10.84054159 24.31891683 -12 22 C-12.12479416 19.19648462 -12.18517138 16.4286626 -12.1875 13.625 C-12.19974609 12.85671875 -12.21199219 12.0884375 -12.22460938 11.296875 C-12.24336459 4.06986733 -12.24336459 4.06986733 -10 1 C-6.89079391 -0.55460305 -3.36916972 -0.72720693 0 0 Z " fill="#000000" transform="translate(310,327)"/>
<path d="M0 0 C2.15625 1.40625 2.15625 1.40625 4 4 C4.5981788 7.34186628 4.55805463 10.61348004 4.5 14 C4.51546875 14.90234375 4.5309375 15.8046875 4.546875 16.734375 C4.50811274 23.28519734 4.50811274 23.28519734 2.15625 26.59375 C-0.80570673 28.52546091 -2.53149852 28.57808358 -6 28 C-8.15625 26.59375 -8.15625 26.59375 -10 24 C-10.5981788 20.65813372 -10.55805463 17.38651996 -10.5 14 C-10.51546875 13.09765625 -10.5309375 12.1953125 -10.546875 11.265625 C-10.50811274 4.71480266 -10.50811274 4.71480266 -8.15625 1.40625 C-5.19429327 -0.52546091 -3.46850148 -0.57808358 0 0 Z " fill="#000000" transform="translate(206,177)"/>
<path d="M0 0 C2.15625 1.40625 2.15625 1.40625 4 4 C4.5981788 7.34186628 4.55805463 10.61348004 4.5 14 C4.51546875 14.90234375 4.5309375 15.8046875 4.546875 16.734375 C4.50811274 23.28519734 4.50811274 23.28519734 2.15625 26.59375 C-0.80570673 28.52546091 -2.53149852 28.57808358 -6 28 C-8.15625 26.59375 -8.15625 26.59375 -10 24 C-10.5981788 20.65813372 -10.55805463 17.38651996 -10.5 14 C-10.51546875 13.09765625 -10.5309375 12.1953125 -10.546875 11.265625 C-10.50811274 4.71480266 -10.50811274 4.71480266 -8.15625 1.40625 C-5.19429327 -0.52546091 -3.46850148 -0.57808358 0 0 Z " fill="#000000" transform="translate(206,125)"/>
<path d="M0 0 C2.15625 1.40625 2.15625 1.40625 4 4 C4.5981788 7.34186628 4.55805463 10.61348004 4.5 14 C4.51546875 14.90234375 4.5309375 15.8046875 4.546875 16.734375 C4.50811274 23.28519734 4.50811274 23.28519734 2.15625 26.59375 C-0.80570673 28.52546091 -2.53149852 28.57808358 -6 28 C-8.15625 26.59375 -8.15625 26.59375 -10 24 C-10.5981788 20.65813372 -10.55805463 17.38651996 -10.5 14 C-10.51546875 13.09765625 -10.5309375 12.1953125 -10.546875 11.265625 C-10.50811274 4.71480266 -10.50811274 4.71480266 -8.15625 1.40625 C-5.19429327 -0.52546091 -3.46850148 -0.57808358 0 0 Z " fill="#000000" transform="translate(332,76)"/>
<path d="M0 0 C2.15625 1.40625 2.15625 1.40625 4 4 C4.5981788 7.34186628 4.55805463 10.61348004 4.5 14 C4.51546875 14.90234375 4.5309375 15.8046875 4.546875 16.734375 C4.50811274 23.28519734 4.50811274 23.28519734 2.15625 26.59375 C-0.80570673 28.52546091 -2.53149852 28.57808358 -6 28 C-8.15625 26.59375 -8.15625 26.59375 -10 24 C-10.5981788 20.65813372 -10.55805463 17.38651996 -10.5 14 C-10.51546875 13.09765625 -10.5309375 12.1953125 -10.546875 11.265625 C-10.50811274 4.71480266 -10.50811274 4.71480266 -8.15625 1.40625 C-5.19429327 -0.52546091 -3.46850148 -0.57808358 0 0 Z " fill="#000000" transform="translate(206,73)"/>
<path d="M0 0 C2.18231166 1.63649365 2.91132113 2.51261451 3.40405273 5.22070312 C3.43590356 7.98145879 3.45782825 10.73905403 3.4375 13.5 C3.45748047 14.46292969 3.47746094 15.42585938 3.49804688 16.41796875 C3.49740234 17.34222656 3.49675781 18.26648438 3.49609375 19.21875 C3.49794678 20.06373047 3.4997998 20.90871094 3.50170898 21.77929688 C3 24 3 24 1.15649414 25.77539062 C-1.77166495 27.43820575 -3.68101009 27.41487374 -7 27 C-9.15649414 25.77539062 -9.15649414 25.77539062 -11 24 C-11.50170898 21.77929688 -11.50170898 21.77929688 -11.49609375 19.21875 C-11.49673828 18.29449219 -11.49738281 17.37023437 -11.49804688 16.41796875 C-11.47806641 15.45503906 -11.45808594 14.49210937 -11.4375 13.5 C-11.44458984 12.53707031 -11.45167969 11.57414062 -11.45898438 10.58203125 C-11.39467999 3.48876268 -11.39467999 3.48876268 -9.59790039 1.26367188 C-6.18567582 -1.43482689 -4.15976783 -1.01871865 0 0 Z " fill="#000000" transform="translate(207,334)"/>
<path d="M0 0 C2.11070801 1.6066954 2.9013201 2.48394288 3.40405273 5.11303711 C3.43597843 7.72223715 3.45781382 10.32809713 3.4375 12.9375 C3.45748047 13.84435547 3.47746094 14.75121094 3.49804688 15.68554688 C3.49317701 22.30368851 3.49317701 22.30368851 1.16015625 25.59765625 C-1.80491576 27.52254025 -3.53206126 27.57798979 -7 27 C-9.1640625 25.59765625 -9.1640625 25.59765625 -11 23 C-11.54737977 19.63567278 -11.46682091 16.33729005 -11.375 12.9375 C-11.37371094 12.02677734 -11.37242187 11.11605469 -11.37109375 10.17773438 C-11.28148496 3.42222744 -11.28148496 3.42222744 -9 0 C-5.45026831 -1.1832439 -3.60040463 -0.90010116 0 0 Z " fill="#000000" transform="translate(207,230)"/>
<path d="M0 0 C2.1140867 1.60549022 2.90103857 2.48247058 3.40405273 5.11303711 C3.43597843 7.72223715 3.45781382 10.32809713 3.4375 12.9375 C3.45748047 13.84435547 3.47746094 14.75121094 3.49804688 15.68554688 C3.49317701 22.30368851 3.49317701 22.30368851 1.16015625 25.59765625 C-1.80491576 27.52254025 -3.53206126 27.57798979 -7 27 C-9.16015625 25.59765625 -9.16015625 25.59765625 -11 23 C-11.57240706 19.6364416 -11.51248537 16.34086819 -11.4375 12.9375 C-11.44458984 12.02677734 -11.45167969 11.11605469 -11.45898438 10.17773438 C-11.39486369 3.48452105 -11.39486369 3.48452105 -9.59790039 1.27954102 C-6.19632726 -1.44431609 -4.16221379 -1.01931766 0 0 Z " fill="#000000" transform="translate(333,388)"/>
<path d="M0 0 C2.16509682 1.65045052 2.91177194 2.51509217 3.40405273 5.22070312 C3.43590356 7.98145879 3.45782825 10.73905403 3.4375 13.5 C3.45748047 14.46292969 3.47746094 15.42585938 3.49804688 16.41796875 C3.49740234 17.34222656 3.49675781 18.26648438 3.49609375 19.21875 C3.49794678 20.06373047 3.4997998 20.90871094 3.50170898 21.77929688 C3 24 3 24 1.15649414 25.77539062 C-1.77166495 27.43820575 -3.68101009 27.41487374 -7 27 C-9.15209961 25.77319336 -9.15209961 25.77319336 -11 24 C-11.82930962 20.57231343 -11.60269929 17.07875524 -11.5625 13.5625 C-11.58634766 12.60794922 -11.61019531 11.65339844 -11.63476562 10.66992188 C-11.62014593 3.70607601 -11.62014593 3.70607601 -8.66015625 0.3359375 C-5.24042884 -1.38145864 -3.605829 -1.1758138 0 0 Z " fill="#000000" transform="translate(207,386)"/>
<path d="M0 0 C2.16509682 1.65045052 2.91177194 2.51509217 3.40405273 5.22070312 C3.43590356 7.98145879 3.45782825 10.73905403 3.4375 13.5 C3.45748047 14.46292969 3.47746094 15.42585938 3.49804688 16.41796875 C3.49740234 17.34222656 3.49675781 18.26648438 3.49609375 19.21875 C3.49794678 20.06373047 3.4997998 20.90871094 3.50170898 21.77929688 C3 24 3 24 1.15649414 25.77539062 C-1.77166495 27.43820575 -3.68101009 27.41487374 -7 27 C-9.15209961 25.77319336 -9.15209961 25.77319336 -11 24 C-11.82930962 20.57231343 -11.60269929 17.07875524 -11.5625 13.5625 C-11.58634766 12.60794922 -11.61019531 11.65339844 -11.63476562 10.66992188 C-11.62014593 3.70607601 -11.62014593 3.70607601 -8.66015625 0.3359375 C-5.24042884 -1.38145864 -3.605829 -1.1758138 0 0 Z " fill="#000000" transform="translate(333,336)"/>
<path d="M0 0 C2.1140867 1.60549022 2.90103857 2.48247058 3.40405273 5.11303711 C3.43597843 7.72223715 3.45781382 10.32809713 3.4375 12.9375 C3.45748047 13.84435547 3.47746094 14.75121094 3.49804688 15.68554688 C3.49317701 22.30368851 3.49317701 22.30368851 1.16015625 25.59765625 C-1.80491576 27.52254025 -3.53206126 27.57798979 -7 27 C-9.16015625 25.59765625 -9.16015625 25.59765625 -11 23 C-11.57240706 19.6364416 -11.51248537 16.34086819 -11.4375 12.9375 C-11.44458984 12.02677734 -11.45167969 11.11605469 -11.45898438 10.17773438 C-11.39486369 3.48452105 -11.39486369 3.48452105 -9.59790039 1.27954102 C-6.19632726 -1.44431609 -4.16221379 -1.01931766 0 0 Z " fill="#000000" transform="translate(207,282)"/>
<path d="M0 0 C2.15209961 1.22680664 2.15209961 1.22680664 4 3 C4.82930962 6.42768657 4.60269929 9.92124476 4.5625 13.4375 C4.58634766 14.39205078 4.61019531 15.34660156 4.63476562 16.33007812 C4.62014593 23.29392399 4.62014593 23.29392399 1.66015625 26.6640625 C-1.75957116 28.38145864 -3.394171 28.1758138 -7 27 C-9.16509682 25.34954948 -9.91177194 24.48490783 -10.40405273 21.77929688 C-10.43590356 19.01854121 -10.45782825 16.26094597 -10.4375 13.5 C-10.45748047 12.53707031 -10.47746094 11.57414063 -10.49804688 10.58203125 C-10.49740234 9.65777344 -10.49675781 8.73351562 -10.49609375 7.78125 C-10.49887329 6.5137793 -10.49887329 6.5137793 -10.50170898 5.22070312 C-10 3 -10 3 -8.15649414 1.22460938 C-5.22833505 -0.43820575 -3.31898991 -0.41487374 0 0 Z " fill="#000000" transform="translate(332,180)"/>
<path d="M0 0 C2.16015625 1.40234375 2.16015625 1.40234375 4 4 C4.57240706 7.3635584 4.51248537 10.65913181 4.4375 14.0625 C4.44458984 14.97322266 4.45167969 15.88394531 4.45898438 16.82226562 C4.39510206 23.4905962 4.39510206 23.4905962 2.65649414 25.73217773 C0.18465244 27.6240383 -1.9301744 27.81205149 -5 28 C-7.74954328 27.03394425 -8.69007757 26.61984486 -10 24 C-10.29079381 20.71503271 -10.27782588 17.42135287 -10.3125 14.125 C-10.34150391 13.21363281 -10.37050781 12.30226562 -10.40039062 11.36328125 C-10.46419253 4.65917319 -10.46419253 4.65917319 -8.16796875 1.3984375 C-5.19718575 -0.51785136 -3.46889546 -0.57814924 0 0 Z " fill="#000000" transform="translate(332,128)"/>
<path d="M0 0 C1.0209375 -0.01160156 1.0209375 -0.01160156 2.0625 -0.0234375 C4.61300641 0.5010618 5.3920462 1.34310569 7 3.375 C7.38818359 5.59570312 7.38818359 5.59570312 7.3984375 8.15625 C7.40230469 9.08050781 7.40617187 10.00476563 7.41015625 10.95703125 C7.39855469 11.91996094 7.38695312 12.88289063 7.375 13.875 C7.38660156 14.83792969 7.39820313 15.80085938 7.41015625 16.79296875 C7.40628906 17.71722656 7.40242188 18.64148438 7.3984375 19.59375 C7.39505371 20.43873047 7.39166992 21.28371094 7.38818359 22.15429688 C6.91785828 24.84491261 6.14133493 25.73018752 4 27.375 C2.0625 27.7734375 2.0625 27.7734375 0 27.75 C-0.680625 27.75773437 -1.36125 27.76546875 -2.0625 27.7734375 C-4.61300641 27.2489382 -5.3920462 26.40689431 -7 24.375 C-7.38818359 22.15429688 -7.38818359 22.15429688 -7.3984375 19.59375 C-7.40230469 18.66949219 -7.40617187 17.74523437 -7.41015625 16.79296875 C-7.39855469 15.83003906 -7.38695312 14.86710937 -7.375 13.875 C-7.38660156 12.91207031 -7.39820313 11.94914062 -7.41015625 10.95703125 C-7.40628906 10.03277344 -7.40242188 9.10851562 -7.3984375 8.15625 C-7.39505371 7.31126953 -7.39166992 6.46628906 -7.38818359 5.59570312 C-6.63850002 1.30694729 -4.13797627 -0.04702246 0 0 Z " fill="#000000" transform="translate(329,283.625)"/>
<path d="M0 0 C1.0209375 -0.01160156 1.0209375 -0.01160156 2.0625 -0.0234375 C4.61300641 0.5010618 5.3920462 1.34310569 7 3.375 C7.38818359 5.59570312 7.38818359 5.59570312 7.3984375 8.15625 C7.40230469 9.08050781 7.40617187 10.00476563 7.41015625 10.95703125 C7.39855469 11.91996094 7.38695312 12.88289062 7.375 13.875 C7.38660156 14.83792969 7.39820313 15.80085937 7.41015625 16.79296875 C7.40628906 17.71722656 7.40242188 18.64148438 7.3984375 19.59375 C7.39505371 20.43873047 7.39166992 21.28371094 7.38818359 22.15429688 C6.91785828 24.84491261 6.14133493 25.73018752 4 27.375 C2.0625 27.7734375 2.0625 27.7734375 0 27.75 C-0.680625 27.75773437 -1.36125 27.76546875 -2.0625 27.7734375 C-4.61300641 27.2489382 -5.3920462 26.40689431 -7 24.375 C-7.38818359 22.15429688 -7.38818359 22.15429688 -7.3984375 19.59375 C-7.40230469 18.66949219 -7.40617187 17.74523437 -7.41015625 16.79296875 C-7.39855469 15.83003906 -7.38695312 14.86710938 -7.375 13.875 C-7.38660156 12.91207031 -7.39820313 11.94914063 -7.41015625 10.95703125 C-7.40628906 10.03277344 -7.40242188 9.10851562 -7.3984375 8.15625 C-7.39505371 7.31126953 -7.39166992 6.46628906 -7.38818359 5.59570312 C-6.63850002 1.30694729 -4.13797627 -0.04702246 0 0 Z " fill="#000000" transform="translate(329,231.625)"/>
<path d="M0 0 C1.6953125 1.11328125 1.6953125 1.11328125 3 3 C3.43359375 6.21484375 3.43359375 6.21484375 3.4375 9.9375 C3.45683594 11.16339844 3.47617187 12.38929688 3.49609375 13.65234375 C3 17 3 17 1.16015625 19.4140625 C-1.76194251 21.55940083 -3.45004671 21.51770152 -7 21 C-10.1359157 19.22015595 -10.84102736 18.47691793 -12 15 C-12.41277571 10.3165833 -12.56939214 6.26819158 -10.625 1.9375 C-7.38573986 -1.92469479 -4.67793385 -0.98482818 0 0 Z " fill="#000000" transform="translate(444,227)"/>
<path d="M0 0 C3.09341131 2.26551823 3.91342529 3.49368719 4.56640625 7.3125 C4.56511719 8.529375 4.56382812 9.74625 4.5625 11 C4.58441406 12.216875 4.60632813 13.43375 4.62890625 14.6875 C4 18 4 18 1.69140625 20.43359375 C-1 22 -1 22 -4.625 22.0625 C-8 21 -8 21 -9.9375 19.0625 C-11.82773433 13.61417751 -12.0021606 8.23208496 -9.625 2.9375 C-6.77768475 -0.45737587 -4.29177299 -0.4291773 0 0 Z " fill="#000000" transform="translate(443,397)"/>
<path d="M0 0 C3.09715717 3.13359432 3.43204535 5.61196379 3.4375 9.9375 C3.32646921 13.7264258 3.09732533 15.79756332 1.4375 19.25 C-1 21 -1 21 -4.5 21.625 C-8 21 -8 21 -10.4375 19.25 C-12.79566365 14.34501962 -12.81692166 9.35046892 -12 4 C-8.97932751 -1.20471557 -5.60535545 -1.5181171 0 0 Z " fill="#000000" transform="translate(421,383)"/>
<path d="M0 0 C3.76956612 1.18671526 4.46513091 1.72870484 6.375 5.0625 C7.29932906 10.66239356 7.34223434 15.50906303 4.3125 20.375 C1.375 22.0625 1.375 22.0625 -2.25 22.125 C-6.01956612 20.93828474 -6.71513091 20.39629516 -8.625 17.0625 C-9.54932906 11.46260644 -9.59223434 6.61593697 -6.5625 1.75 C-3.625 0.0625 -3.625 0.0625 0 0 Z " fill="#000000" transform="translate(417.625,347.9375)"/>
<path d="M0 0 C3.76956612 1.18671526 4.46513091 1.72870484 6.375 5.0625 C7.29932906 10.66239356 7.34223434 15.50906303 4.3125 20.375 C1.375 22.0625 1.375 22.0625 -2.25 22.125 C-6.01956612 20.93828474 -6.71513091 20.39629516 -8.625 17.0625 C-9.54932906 11.46260644 -9.59223434 6.61593697 -6.5625 1.75 C-3.625 0.0625 -3.625 0.0625 0 0 Z " fill="#000000" transform="translate(417.625,313.9375)"/>
<path d="M0 0 C3.5 0.625 3.5 0.625 5.9375 2.375 C8.29566365 7.27998038 8.31692166 12.27453108 7.5 17.625 C5.72184216 20.67621577 5.03178731 21.45159109 1.625 22.5625 C-2.07582207 22.63651644 -3.60017533 21.8620076 -6.5 19.625 C-8.59187452 15.44125096 -7.92477013 10.18217665 -7.5 5.625 C-5.4862749 1.4364518 -4.56219812 0.81467823 0 0 Z " fill="#000000" transform="translate(416.5,279.375)"/>
<path d="M0 0 C2.97975696 2.21353374 3.89684579 3.39927841 4.53125 7.09375 C4.5209375 8.2178125 4.510625 9.341875 4.5 10.5 C4.5103125 11.6240625 4.520625 12.748125 4.53125 13.90625 C3.89684579 17.60072159 2.97975696 18.78646626 0 21 C-3.86818303 21.55259758 -5.99871124 21.74381451 -9.1875 19.375 C-11.55326687 16.27502961 -11.53547382 14.36664651 -11.5 10.5 C-11.51546875 8.81390625 -11.51546875 8.81390625 -11.53125 7.09375 C-10.38368478 0.41087018 -6.27998419 -0.8971406 0 0 Z " fill="#000000" transform="translate(420,246)"/>
<path d="M0 0 C3.6875 0.3125 3.6875 0.3125 5.890625 1.890625 C8.31672681 5.16058831 8.18863786 7.34035988 8.125 11.375 C8.12371094 12.60347656 8.12242187 13.83195312 8.12109375 15.09765625 C7.6875 18.3125 7.6875 18.3125 6.34375 20.1953125 C3.83580907 21.88698964 1.67934471 22.12932583 -1.3125 22.3125 C-4.17353382 21.51776838 -5.02470936 20.78735456 -6.5625 18.25 C-7.89688238 13.02366902 -8.23579936 8.23938563 -5.875 3.3125 C-3.54865532 0.3347788 -3.54865532 0.3347788 0 0 Z " fill="#000000" transform="translate(439.3125,362.6875)"/>
<path d="M0 0 C1.65625 1.1171875 1.65625 1.1171875 3 3 C3.43359375 6.21484375 3.43359375 6.21484375 3.4375 9.9375 C3.45683594 11.16339844 3.47617187 12.38929688 3.49609375 13.65234375 C3 17 3 17 1.16015625 19.4140625 C-1.76194251 21.55940083 -3.45004671 21.51770152 -7 21 C-10.1359157 19.22015595 -10.84102736 18.47691793 -12 15 C-12.39273833 10.122738 -12.60506815 5.29836245 -10 1 C-6.67729523 -1.6106966 -3.93664839 -1.08886019 0 0 Z " fill="#000000" transform="translate(444,261)"/>
<path d="M0 0 C2.97975696 2.21353374 3.89684579 3.39927841 4.53125 7.09375 C4.5209375 8.2178125 4.510625 9.341875 4.5 10.5 C4.5103125 11.6240625 4.520625 12.748125 4.53125 13.90625 C3.89684579 17.60072159 2.97975696 18.78646626 0 21 C-3.86818303 21.55259758 -5.99871124 21.74381451 -9.1875 19.375 C-11.55326687 16.27502961 -11.53547382 14.36664651 -11.5 10.5 C-11.51546875 8.81390625 -11.51546875 8.81390625 -11.53125 7.09375 C-10.38368478 0.41087018 -6.27998419 -0.8971406 0 0 Z " fill="#000000" transform="translate(420,212)"/>
<path d="M0 0 C2.0078125 0.42578125 2.0078125 0.42578125 3.7421875 2.00390625 C5.45022867 5.27238008 5.40598478 7.81547453 5.3828125 11.48828125 C5.39054687 12.71675781 5.39828125 13.94523437 5.40625 15.2109375 C5.0078125 18.42578125 5.0078125 18.42578125 3.734375 20.3359375 C0.66094362 22.27595414 -2.49117873 21.9739559 -5.9921875 21.42578125 C-8.66650239 19.61414858 -8.95139109 18.54817048 -9.9921875 15.42578125 C-10.52215141 9.98345957 -10.48376725 5.89500333 -6.9921875 1.42578125 C-5.12296096 -0.44344529 -2.49467581 0.13347896 0 0 Z " fill="#000000" transform="translate(441.9921875,328.57421875)"/>
<path d="M0 0 C2.0078125 0.328125 2.0078125 0.328125 3.73828125 1.41015625 C5.66425154 4.31985291 5.44169198 6.81526814 5.4453125 10.265625 C5.46464844 11.49152344 5.48398437 12.71742188 5.50390625 13.98046875 C5.0078125 17.328125 5.0078125 17.328125 3.203125 19.7421875 C0.03634287 22.02993402 -2.18627631 21.8125137 -5.9921875 21.328125 C-8.60811903 19.49697293 -8.96208205 18.41844134 -9.9921875 15.328125 C-10.52215141 9.88580332 -10.48376725 5.79734708 -6.9921875 1.328125 C-5.11954074 -0.54452176 -2.49458803 0.09205122 0 0 Z " fill="#000000" transform="translate(441.9921875,294.671875)"/>
</svg>
