<?xml version="1.0" encoding="UTF-8"?>
<svg version="1.1" xmlns="http://www.w3.org/2000/svg" width="512" height="512">
<path d="M0 0 C4.0114286 1.84730495 6.75906485 4.49459153 9.8125 7.625 C10.34512451 8.16406982 10.87774902 8.70313965 11.42651367 9.25854492 C14.89656925 12.79617499 18.21258789 16.43366859 21.42578125 20.20703125 C23.58580023 22.66720175 25.91930274 24.92964924 28.25390625 27.22265625 C30.06477643 29.06593574 31.75321354 30.97822799 33.4375 32.9375 C35.85617779 35.74576347 38.35899683 38.39970593 41 41 C44.25029983 44.20029522 47.24724245 47.54224576 50.21875 51 C52.70257428 53.78885533 55.36711437 56.37686983 58.02734375 58.99609375 C60.57337829 61.58246151 62.92021557 64.3153528 65.28515625 67.06640625 C66.96004299 68.95494597 68.69947587 70.73155648 70.5 72.5 C72.93389732 74.89053167 75.21355559 77.35046262 77.4375 79.9375 C79.85617779 82.74576347 82.35899683 85.39970593 85 88 C88.25029983 91.20029522 91.24724245 94.54224576 94.21875 98 C96.70257428 100.78885533 99.36711437 103.37686983 102.02734375 105.99609375 C104.57337829 108.58246151 106.92021557 111.3153528 109.28515625 114.06640625 C110.96004299 115.95494597 112.69947587 117.73155648 114.5 119.5 C116.93389732 121.89053167 119.21355559 124.35046262 121.4375 126.9375 C123.85617779 129.74576347 126.35899683 132.39970593 129 135 C132.25029983 138.20029522 135.24724245 141.54224576 138.21875 145 C140.70257428 147.78885533 143.36711437 150.37686983 146.02734375 152.99609375 C148.57337829 155.58246151 150.92021557 158.3153528 153.28515625 161.06640625 C154.96004299 162.95494597 156.69947587 164.73155648 158.5 166.5 C160.93389732 168.89053167 163.21355559 171.35046262 165.4375 173.9375 C167.85617779 176.74576347 170.35899683 179.39970593 173 182 C176.25029983 185.20029522 179.24724245 188.54224576 182.21875 192 C184.70257428 194.78885533 187.36711437 197.37686983 190.02734375 199.99609375 C192.57337829 202.58246151 194.92021557 205.3153528 197.28515625 208.06640625 C199.49193232 210.55468451 201.85048921 212.86227171 204.22265625 215.19140625 C207.30153988 218.3244241 210.14730735 221.66174265 213 225 C211.37699101 228.95372539 208.64748396 231.75859659 205.75 234.8125 C204.95916016 235.65748047 204.95916016 235.65748047 204.15234375 236.51953125 C203.02208283 237.72655462 201.88985819 238.93174161 200.75585938 240.13525391 C198.41684829 242.6193149 196.08997898 245.11459231 193.76293945 247.60986328 C192.57981212 248.87835405 191.39604704 250.14625028 190.21166992 251.41357422 C186.47971911 255.40737137 182.7646238 259.41605554 179.0625 263.4375 C173.93206325 269.00926464 168.75402436 274.53534853 163.56884766 280.05615234 C159.18445486 284.72767857 154.82748982 289.42323882 150.48828125 294.13671875 C146.67662115 298.2745102 142.84175806 302.39015142 139 306.5 C134.65121839 311.15258516 130.31493032 315.81600113 126 320.5 C118.77494994 328.34138223 111.49009835 336.12673229 104.20898438 343.91601562 C97.63130632 350.95377171 91.06533923 358.00140757 84.53857422 365.08642578 C80.11653708 369.88293911 75.66373938 374.65037613 71.20874023 379.41625977 C67.47816409 383.40953086 63.76372894 387.4170276 60.0625 391.4375 C54.93206325 397.00926464 49.75402436 402.53534853 44.56884766 408.05615234 C40.18516407 412.7269229 35.8287031 417.42154222 31.49047852 422.13452148 C27.65834714 426.29491976 23.80096365 430.43119889 19.9375 434.5625 C13.91567692 441.00297919 7.94309074 447.4868577 2 454 C-3.04081379 449.82829203 -4.73680242 444.61012527 -5.37834883 438.24792206 C-5.37992003 436.94406709 -5.38149123 435.64021212 -5.38311005 434.29684639 C-5.38806956 433.56123417 -5.39302908 432.82562195 -5.39813888 432.06771845 C-5.41104844 429.61325537 -5.40272531 427.15934048 -5.39440918 424.7048645 C-5.39930028 422.92316932 -5.4054911 421.14147731 -5.41286707 419.35979068 C-5.42926178 414.47164395 -5.4269496 409.58365855 -5.4214921 404.69549394 C-5.41882135 399.42066359 -5.43335452 394.1458762 -5.44558716 388.87106323 C-5.46664107 378.54021649 -5.47118204 368.20942586 -5.46939927 357.8785602 C-5.46809168 349.48161331 -5.47189563 341.08468392 -5.47932434 332.68774033 C-5.48142353 330.26907981 -5.48352113 327.85041928 -5.48561716 325.43175876 C-5.48666069 324.2279293 -5.48770422 323.02409984 -5.48877937 321.78379069 C-5.50768142 299.01657112 -5.50663158 276.24938377 -5.49981004 253.4821596 C-5.49423399 232.65422504 -5.51506275 211.82641345 -5.54817051 190.99850763 C-5.58190301 169.61158078 -5.59707642 148.22471285 -5.59245348 126.8377589 C-5.59020843 114.83093285 -5.59545734 102.82422048 -5.62034607 90.81741714 C-5.64135338 80.59607462 -5.64495668 70.37490813 -5.62604648 60.15355839 C-5.61688543 54.9391099 -5.61575721 49.72498967 -5.63640213 44.51056671 C-5.65510104 39.73483119 -5.65062062 34.95969304 -5.62785631 30.18398033 C-5.62366787 28.45861467 -5.62787882 26.7332033 -5.64145225 25.00788595 C-5.70964889 15.70400584 -5.44562298 7.9788701 0 0 Z " fill="#000000" transform="translate(37,30)"/>
<path d="M0 0 C3.3023232 0.93561455 6.02337024 2.32885643 9.04516602 3.95996094 C9.64400101 4.28096268 10.242836 4.60196442 10.8598175 4.93269348 C12.8117608 5.98110221 14.758529 7.03874326 16.70532227 8.09667969 C18.0673472 8.83076018 19.42965473 9.56431657 20.79223633 10.29736328 C24.789098 12.45046372 28.77937512 14.61554022 32.76782227 16.78417969 C34.32170654 17.62843506 34.32170654 17.62843506 35.90698242 18.48974609 C39.4846101 20.4357127 43.06057776 22.38460827 46.63208008 24.34179688 C52.59859933 27.61091083 58.58789576 30.83502787 64.58764648 34.04272461 C68.96773252 36.38899514 73.33887259 38.75142771 77.70581055 41.12207031 C79.6814953 42.19450388 81.65891345 43.26375317 83.63842773 44.32910156 C105.80794026 56.31950769 105.80794026 56.31950769 110.16577148 68.60961914 C112.8896249 78.44796559 111.60973691 89.20558972 106.86157227 98.10839844 C100.89273057 105.73648904 93.25828141 110.01699499 84.76782227 114.40917969 C82.43946521 115.63790673 80.11134544 116.86708349 77.78344727 118.09667969 C76.59929035 118.71794097 75.41504598 119.33903557 74.23071289 119.95996094 C68.96884768 122.73186286 63.74310461 125.56909111 58.51782227 128.40917969 C57.03862305 129.210896 57.03862305 129.210896 55.52954102 130.02880859 C49.84254612 133.11113735 44.160565 136.20254501 38.4831543 139.30249023 C36.68807514 140.28202048 34.89218935 141.2600741 33.09545898 142.23657227 C28.11175209 144.9469539 23.146927 147.68739081 18.19750977 150.45996094 C16.0126211 151.67221344 13.82772542 152.8844533 11.64282227 154.09667969 C10.61672852 154.67869141 9.59063477 155.26070312 8.53344727 155.86035156 C7.57696289 156.38822266 6.62047852 156.91609375 5.63500977 157.45996094 C4.7905127 157.93344971 3.94601562 158.40693848 3.07592773 158.89477539 C0.39285013 159.92867128 -0.61642897 159.91175703 -3.23217773 158.78417969 C-4.76855469 157.60424805 -4.76855469 157.60424805 -6.22045898 156.12402344 C-6.75832031 155.58165039 -7.29618164 155.03927734 -7.8503418 154.48046875 C-8.40947266 153.90006836 -8.96860352 153.31966797 -9.54467773 152.72167969 C-10.12572266 152.12967773 -10.70676758 151.53767578 -11.30541992 150.92773438 C-14.85643408 147.28520949 -18.26817606 143.553647 -21.56030273 139.67480469 C-24.24239133 136.64178861 -27.15951023 133.84909535 -30.04077148 131.00683594 C-32.65318841 128.35716529 -35.06520394 125.57245166 -37.48608398 122.74902344 C-39.32833449 120.67597645 -41.25619435 118.72982167 -43.23217773 116.78417969 C-45.83199957 114.22427834 -48.29486171 111.61638429 -50.66967773 108.84667969 C-53.94228267 105.03733772 -57.46318211 101.5359686 -61.03686523 98.01074219 C-63.66252118 95.34771035 -66.09196978 92.55162362 -68.52514648 89.71386719 C-71.28439355 86.59471833 -74.24805749 83.68666747 -77.23217773 80.78417969 C-75.64278348 76.85203667 -73.06875272 74.45397622 -70.04467773 71.53417969 C-66.16604165 67.74624246 -62.49263238 63.86940165 -58.97436523 59.74511719 C-56.26295409 56.6932598 -53.32880626 53.87273203 -50.42358398 51.00683594 C-47.81116706 48.35716529 -45.39915153 45.57245166 -42.97827148 42.74902344 C-40.50614356 39.96718821 -37.84787226 37.39042017 -35.19702148 34.78027344 C-33.3098703 32.86310792 -31.54532398 30.88842647 -29.79467773 28.84667969 C-26.5208712 25.03593906 -22.99853802 21.53339804 -19.42358398 18.00683594 C-17.41747584 15.97212019 -15.53104257 13.88832532 -13.66967773 11.72167969 C-11.18097927 8.85765547 -8.68950967 6.00190996 -6.10717773 3.22167969 C-5.48584961 2.53976563 -4.86452148 1.85785156 -4.22436523 1.15527344 C-2.23217773 -0.21582031 -2.23217773 -0.21582031 0 0 Z " fill="#000000" transform="translate(369.232177734375,176.2158203125)"/>
<path d="M0 0 C8.31785074 0.16635701 14.86161522 4.13083503 22 8 C22.78149414 8.42216797 23.56298828 8.84433594 24.36816406 9.27929688 C28.90977772 11.73794132 33.44134614 14.21451915 37.96875 16.69921875 C44.21225586 20.12271386 50.47871774 23.50271558 56.75 26.875 C57.83555176 27.45894531 58.92110352 28.04289062 60.03955078 28.64453125 C62.25184986 29.83433916 64.46425262 31.02395431 66.67675781 32.21337891 C81.4515697 40.1565227 96.21897606 48.11295492 110.96582031 56.10791016 C118.26275729 60.06251039 125.56687471 64.00361683 132.875 67.9375 C133.95233398 68.51741699 135.02966797 69.09733398 136.13964844 69.69482422 C141.6418531 72.65597194 147.14489451 75.61555929 152.6484375 78.57421875 C163.62860657 84.47913848 174.59459259 90.40777327 185.53222656 96.39111328 C193.59999612 100.79713302 201.70400383 105.13471567 209.81097412 109.46798706 C218.4261155 114.07374618 227.01573945 118.72352407 235.58447266 123.41503906 C247.67818603 130.02623924 259.84309563 136.50598425 272 143 C270.37915347 146.44401787 268.57463755 148.60671518 265.8125 151.25 C262.24380987 154.73304157 258.9241809 158.31881213 255.6796875 162.1015625 C253.47834607 164.58959026 251.11911485 166.89194077 248.75 169.21875 C246.91757513 171.08389674 245.20646865 173.01927746 243.5 175 C240.71760668 178.22956367 237.78980571 181.23322653 234.75 184.21875 C232.91757513 186.08389674 231.20646865 188.01927746 229.5 190 C226.71760668 193.22956367 223.78980571 196.23322653 220.75 199.21875 C218.30333073 201.70910979 216.05491413 204.35574595 213.77734375 207 C210.98879714 210.13788102 208.00818762 213.07410323 205 216 C200.91871841 214.38307221 198.19396067 211.45722594 195.1875 208.375 C194.65342529 207.83447998 194.11935059 207.29395996 193.5690918 206.73706055 C190.14339178 203.2447916 186.87765366 199.65184116 183.70703125 195.92578125 C181.009003 192.88201025 178.08202267 190.0741575 175.1875 187.21875 C172.59803119 184.59228878 170.21163036 181.83023542 167.8125 179.03125 C165.7890712 176.76361428 163.66346653 174.6342305 161.5 172.5 C158.0928121 169.13885518 154.92541826 165.66298797 151.8125 162.03125 C149.7890712 159.76361428 147.66346653 157.6342305 145.5 155.5 C142.0928121 152.13885518 138.92541826 148.66298797 135.8125 145.03125 C133.7890712 142.76361428 131.66346653 140.6342305 129.5 138.5 C126.0928121 135.13885518 122.92541826 131.66298797 119.8125 128.03125 C117.7890712 125.76361428 115.66346653 123.6342305 113.5 121.5 C110.0928121 118.13885518 106.92541826 114.66298797 103.8125 111.03125 C101.07222917 107.96025683 98.12053098 105.11213124 95.19140625 102.22265625 C92.57898932 99.5729856 90.16697379 96.78827197 87.74609375 93.96484375 C85.90384325 91.89179676 83.97598338 89.94564198 82 88 C79.40017817 85.44009866 76.93731602 82.8322046 74.5625 80.0625 C71.99334729 77.07198284 69.30682744 74.26883316 66.5 71.5 C63.0928121 68.13885518 59.92541826 64.66298797 56.8125 61.03125 C54.7890712 58.76361428 52.66346653 56.6342305 50.5 54.5 C47.0928121 51.13885518 43.92541826 47.66298797 40.8125 44.03125 C38.7890712 41.76361428 36.66346653 39.6342305 34.5 37.5 C31.0928121 34.13885518 27.92541826 30.66298797 24.8125 27.03125 C22.07345159 23.96162678 19.1231636 21.11471392 16.1953125 18.2265625 C13.56887015 15.56273307 11.13814449 12.76682459 8.70703125 9.92578125 C6.35493596 7.27227329 3.8360197 4.80881901 1.28515625 2.34765625 C0 1 0 1 0 0 Z " fill="#000000" transform="translate(68,16)"/>
<path d="M0 0 C3.91209308 1.59415503 6.37218086 4.13893332 9.3125 7.125 C10.04098145 7.86314941 10.04098145 7.86314941 10.78417969 8.61621094 C14.12217223 12.02517741 17.29416353 15.54459156 20.390625 19.171875 C22.56371785 21.64033969 24.90472369 23.91535363 27.25 26.21875 C29.70634849 28.71896185 31.96309368 31.37680516 34.25 34.03125 C35.93798286 35.93023071 37.68769734 37.72005988 39.5 39.5 C42.59356643 42.53832417 45.42105507 45.7476532 48.25 49.03125 C50.47675889 51.53635375 52.85180492 53.86343174 55.2421875 56.2109375 C57.73656274 58.74965719 60.03786935 61.4411187 62.35546875 64.140625 C63.82325682 65.80016685 65.33851979 67.34358233 66.9375 68.875 C69 71 69 71 69 73 C68.41847168 73.30067383 67.83694336 73.60134766 67.23779297 73.91113281 C55.58529475 79.94371162 43.98317892 86.05330104 32.47705078 92.36083984 C25.4181144 96.23033988 18.33959061 100.06195992 11.25 103.875 C10.16227295 104.46007324 9.0745459 105.04514648 7.95385742 105.64794922 C5.74080757 106.83804854 3.52767247 108.02798935 1.31445312 109.21777344 C-4.12505124 112.14266898 -9.56245631 115.07146155 -15 118 C-21.54580823 121.52542475 -28.09209358 125.04994814 -34.640625 128.5703125 C-44.73422371 133.99805852 -54.82064375 139.43734959 -64.875 144.9375 C-73.82554059 149.83381741 -82.81347814 154.65871917 -91.81097412 159.46798706 C-99.55982496 163.61061675 -107.29273001 167.78044121 -115 172 C-123.90590341 176.87578391 -132.84962983 181.67914905 -141.80447388 186.4642334 C-149.70430267 190.68623885 -157.58206637 194.94592415 -165.4375 199.25 C-168.06522787 200.68286634 -170.69404621 202.11369623 -173.32373047 203.54296875 C-175.17864322 204.55283185 -177.03171156 205.56608729 -178.88330078 206.58203125 C-181.74893012 208.15056617 -184.62323789 209.70199811 -187.5 211.25 C-188.36681396 211.72856445 -189.23362793 212.20712891 -190.12670898 212.70019531 C-194.58393097 215.07679225 -197.79925205 216.64165072 -203 216 C-199.96997286 212.37874805 -196.93217419 208.87118461 -193.5625 205.5625 C-191.12837912 203.17098955 -188.84611167 200.71544202 -186.625 198.125 C-184.03365795 195.1153247 -181.32745217 192.28911384 -178.5 189.5 C-175.71378859 186.7514401 -173.04691608 183.97140209 -170.5 181 C-167.24835372 177.20641267 -163.74286906 173.72607353 -160.1875 170.21875 C-158.20279658 168.20569368 -156.33903084 166.14553597 -154.5 164 C-151.24835372 160.20641267 -147.74286906 156.72607353 -144.1875 153.21875 C-142.20279658 151.20569368 -140.33903084 149.14553597 -138.5 147 C-135.24955349 143.20781241 -131.74550431 139.72864469 -128.19140625 136.22265625 C-125.57898932 133.5729856 -123.16697379 130.78827197 -120.74609375 127.96484375 C-118.27396582 125.18300852 -115.61569453 122.60624049 -112.96484375 119.99609375 C-111.07769256 118.07892823 -109.31314625 116.10424678 -107.5625 114.0625 C-104.99334729 111.07198284 -102.30682744 108.26883316 -99.5 105.5 C-96.71378859 102.7514401 -94.04691608 99.97140209 -91.5 97 C-88.24835372 93.20641267 -84.74286906 89.72607353 -81.1875 86.21875 C-79.20279658 84.20569368 -77.33903084 82.14553597 -75.5 80 C-72.24835372 76.20641267 -68.74286906 72.72607353 -65.1875 69.21875 C-63.20279658 67.20569368 -61.33903084 65.14553597 -59.5 63 C-56.24835372 59.20641267 -52.74286906 55.72607353 -49.1875 52.21875 C-47.20279658 50.20569368 -45.33903084 48.14553597 -43.5 46 C-40.24835372 42.20641267 -36.74286906 38.72607353 -33.1875 35.21875 C-31.20279658 33.20569368 -29.33903084 31.14553597 -27.5 29 C-24.24955349 25.20781241 -20.74550431 21.72864469 -17.19140625 18.22265625 C-14.58870943 15.58284433 -12.18484543 12.80940301 -9.7734375 9.99609375 C-6.67471211 6.50832134 -3.33655363 3.25855627 0 0 Z " fill="#000000" transform="translate(271,280)"/>
</svg>
