<?xml version="1.0" encoding="UTF-8"?>
<svg version="1.1" xmlns="http://www.w3.org/2000/svg" width="512" height="512">
<path d="M0 0 C7.20222153 4.14372379 9.91976744 12.62335402 12.80371094 20.02099609 C13.35533889 21.40759383 13.35533889 21.40759383 13.91811085 22.82220364 C15.13507655 25.88641484 16.34089519 28.95488784 17.546875 32.0234375 C18.41388529 34.21201987 19.281655 36.40030154 20.15013123 38.58830261 C22.0004519 43.25392128 23.84606817 47.92136092 25.68783569 52.59036255 C30.02902582 63.59546599 34.3912448 74.59223824 38.75159264 85.58976173 C39.7346918 88.06980417 40.71754491 90.54994199 41.69989967 93.03027916 C48.41043474 109.97350967 55.16903756 126.89634927 61.99609375 143.79296875 C62.38697048 144.76084068 62.77784721 145.72871262 63.1805687 146.725914 C66.85345704 155.81990602 70.53184571 164.91163561 74.2219305 173.9986639 C75.54586156 177.26174403 76.86579954 180.52642865 78.18474007 183.7915287 C78.79118211 185.28988693 79.39952724 186.78747653 80.00991631 188.28423119 C80.8331322 190.30295194 81.65009441 192.32409254 82.46557617 194.34594727 C83.15039314 196.03241112 83.15039314 196.03241112 83.8490448 197.75294495 C84.8125 200.5 84.8125 200.5 84.8125 203.5 C85.51407227 203.09910156 86.21564453 202.69820312 86.93847656 202.28515625 C144.31249995 169.50000003 144.31249995 169.50000003 146.06242371 168.50004578 C147.22934719 167.8332309 148.39626817 167.16641165 149.56318665 166.49958801 C152.47590351 164.83515299 155.38866355 163.17079361 158.30151367 161.5065918 C164.19807084 158.13759456 170.09385516 154.76725579 175.98828125 151.39453125 C182.92684095 147.42469327 189.86859315 143.46047959 196.8125 139.5 C197.93849609 138.85740234 199.06449219 138.21480469 200.22460938 137.55273438 C203.43966395 135.7195728 206.65692034 133.89034472 209.875 132.0625 C210.83897705 131.51247314 211.8029541 130.96244629 212.79614258 130.39575195 C213.67939209 129.89519287 214.5626416 129.39463379 215.47265625 128.87890625 C216.62713257 128.22257202 216.62713257 128.22257202 217.80493164 127.55297852 C221.92583788 125.3915449 225.20669915 125.12247534 229.8125 125.5 C235.08489347 127.30992612 238.75770757 129.73452382 241.8125 134.5 C245.226135 144.74090499 241.19615314 156.3396126 238.97290039 166.50024414 C238.55963199 168.42601788 238.14749788 170.35203534 237.73640442 172.27827454 C236.8498224 176.42908588 235.95861198 180.57886807 235.0648365 184.72813606 C233.6335843 191.38962707 232.23415754 198.05756265 230.84239197 204.72740173 C230.60525154 205.86350783 230.36811111 206.99961393 230.1237846 208.17014748 C229.39276475 211.67391495 228.66217068 215.177771 227.93164062 218.68164062 C224.94537216 233.00263994 221.93948043 247.31821928 218.83227539 261.61352539 C215.82632894 275.46413179 212.9072199 289.33083238 210.09765625 303.22265625 C209.86708668 304.36078656 209.63651711 305.49891686 209.39896059 306.67153597 C201.77335041 344.56302254 198.64458924 381.29216652 199.44508362 419.92140198 C199.47164528 421.26080581 199.47164528 421.26080581 199.49874353 422.62726831 C199.5860856 426.77317016 199.70162831 430.91408702 199.88077354 435.05707359 C199.92859517 436.50256128 199.97639054 437.94804984 200.02415466 439.39353943 C200.10612422 441.24777606 200.10612422 441.24777606 200.18974972 443.13947201 C199.60630853 448.33674678 197.0714172 451.33550159 193.3125 454.8125 C189.03814422 457.69769015 185.32562908 457.62605931 180.23067665 457.63142776 C179.56770474 457.6334804 178.90473283 457.63553303 178.22167087 457.63764787 C175.99042355 457.64332199 173.75923789 457.64186012 171.52798462 457.64044189 C169.91601089 457.64302528 168.3040378 457.64603837 166.6920656 457.6494453 C162.2546681 457.65752143 157.81728678 457.65930521 153.37988281 457.66004276 C148.59723984 457.66189221 143.81460528 457.66943893 139.03196716 457.67617798 C128.57139212 457.68976545 118.11082091 457.69578646 107.65023851 457.70018864 C101.12131068 457.70294995 94.59238432 457.70718706 88.06345749 457.71169281 C69.99385229 457.72388524 51.92424828 457.73418511 33.85463905 457.7375679 C32.69795291 457.73778747 31.54126677 457.73800703 30.34952953 457.73823325 C29.19005002 457.73845153 28.03057051 457.73866981 26.83595526 457.7388947 C24.48633997 457.73933817 22.13672467 457.73978473 19.78710938 457.74023438 C18.62161487 457.7404558 17.45612036 457.74067723 16.25530784 457.74090537 C-2.63882584 457.74485518 -21.532921 457.7623149 -40.42703979 457.7855939 C-59.8159497 457.80929015 -79.20484027 457.82176894 -98.5937649 457.82293582 C-109.48378957 457.82385347 -120.37376402 457.82962852 -131.26377487 457.84775543 C-140.53484602 457.86313302 -149.80585142 457.8682907 -159.07693289 457.86001733 C-163.80877617 457.85610272 -168.54048698 457.85707991 -173.27231407 457.87107468 C-177.60253577 457.88376482 -181.93252478 457.8826593 -186.26274593 457.87048396 C-187.83069265 457.86851848 -189.39865558 457.87164449 -190.96657948 457.88032833 C-193.0960014 457.89137694 -195.22459572 457.88396443 -197.35399437 457.8719368 C-198.53731295 457.87253389 -199.72063153 457.87313097 -200.93980825 457.87374616 C-205.25628949 457.37700312 -208.64039439 455.94421023 -211.83203125 452.96484375 C-215.58783561 448.05340728 -216.30047748 446.20787839 -215.96435547 440.04589844 C-215.89593339 438.63735521 -215.82932477 437.22872309 -215.76422119 435.82002258 C-215.7288752 435.05881922 -215.69352921 434.29761585 -215.65711212 433.51334572 C-213.52065857 383.36942821 -219.46505504 336.2878894 -229.8125 287.4375 C-230.04140592 286.35509726 -230.04140592 286.35509726 -230.2749362 285.25082779 C-233.8473624 268.36883201 -237.53688974 251.51359592 -241.2828418 234.66935802 C-245.03972681 217.76458368 -248.53182092 200.80794472 -251.94494629 183.83086681 C-252.87186478 179.2220215 -253.81444642 174.61690611 -254.77637196 170.01523876 C-255.21039846 167.93582214 -255.64021977 165.85558717 -256.06834412 163.77494812 C-256.56843323 161.3468039 -257.07491173 158.91996007 -257.58998108 156.49494934 C-259.10751372 149.02880293 -260.58390934 141.46874232 -258 134.125 C-254.95417958 129.7138118 -251.35018334 126.97505238 -246.1875 125.5 C-240.72775247 125.09068398 -236.99514516 126.08418421 -232.25 128.625 C-231.57380615 128.97481934 -230.8976123 129.32463867 -230.20092773 129.68505859 C-221.81872415 134.09791919 -213.69305841 138.97937749 -205.53515625 143.7890625 C-199.30340043 147.45231789 -193.00556422 150.98826401 -186.6875 154.5 C-177.45788917 159.63576822 -168.31511755 164.90213281 -159.20703125 170.25 C-151.0649949 175.01814678 -142.84254621 179.63142352 -134.59790039 184.21923828 C-123.36681074 190.48482684 -112.27106961 196.9777859 -101.1875 203.5 C-101.04942932 202.54651924 -101.04942932 202.54651924 -100.90856934 201.57377625 C-99.90861023 197.31114794 -98.27998806 193.37698232 -96.65039062 189.31958008 C-96.28321143 188.39561117 -95.91603224 187.47164227 -95.5377264 186.5196743 C-94.31050482 183.43464129 -93.07714962 180.35209894 -91.84375 177.26953125 C-90.97011822 175.07723028 -90.09683991 172.88478842 -89.22389221 170.69221497 C-86.87166687 164.78768698 -84.51390138 158.88538668 -82.15468216 152.98365021 C-80.20172679 148.09700919 -78.25127781 143.20936935 -76.30073261 138.3217659 C-71.3616147 125.94613802 -66.41594337 113.57314513 -61.46690845 101.20148087 C-58.30140087 93.28757988 -55.13975659 85.37214706 -51.98095703 77.45556641 C-48.12055466 67.78103073 -44.2526975 58.10950768 -40.37841797 48.44052124 C-38.96298362 44.90748825 -37.55054462 41.37328045 -36.140625 37.83804321 C-34.49825447 33.72063545 -32.84929312 29.60593159 -31.19502068 25.49329185 C-30.5986054 24.0074529 -30.00449259 22.52068721 -29.41293526 21.03290749 C-28.61116093 19.01752438 -27.80094956 17.00573792 -26.98852539 14.99462891 C-26.31703209 13.31815781 -26.31703209 13.31815781 -25.63197327 11.6078186 C-22.87135173 5.66827568 -20.30377813 1.82902629 -14.328125 -0.8046875 C-9.2142743 -2.46575579 -4.93574289 -2.07430846 0 0 Z M-9.1875 60.5 C-14.31274996 73.23417911 -19.43617997 85.96908901 -24.55766582 98.70478249 C-27.02367111 104.83684653 -29.49030081 110.96865793 -31.95831299 117.09991455 C-46.03143239 152.04041567 -46.03143239 152.04041567 -59.89593315 187.06401062 C-60.86008531 189.52232444 -61.82570625 191.98005628 -62.79176331 194.43762207 C-65.38580768 201.03931447 -67.9753406 207.6424354 -70.53346539 214.25814247 C-71.30519245 216.24841039 -72.08261801 218.23633428 -72.86265564 220.22335815 C-73.78642183 222.57761545 -74.70062942 224.93565945 -75.60255432 227.29837036 C-78.40582662 234.39119466 -80.78901991 238.23434661 -87.1875 242.5 C-95.91846655 243.78180857 -102.05029393 241.84750248 -109.4375 237.375 C-110.37295654 236.8372998 -111.30841309 236.29959961 -112.2722168 235.74560547 C-115.25894129 234.02141821 -118.22320803 232.26242127 -121.1875 230.5 C-123.14584967 229.35716889 -125.10548375 228.21653587 -127.06640625 227.078125 C-130.05190374 225.3427491 -133.03531468 223.60425191 -136.01269531 221.85498047 C-143.18598075 217.64116525 -150.4174721 213.54431013 -157.6875 209.5 C-165.94972595 204.90145026 -174.15567425 200.22055317 -182.3125 195.4375 C-190.53592671 190.61950095 -198.77864557 185.83849628 -207.0625 181.125 C-208.05008301 180.559021 -209.03766602 179.99304199 -210.05517578 179.40991211 C-211.41618408 178.63852905 -211.41618408 178.63852905 -212.8046875 177.8515625 C-214.00520752 177.16827881 -214.00520752 177.16827881 -215.22998047 176.47119141 C-217.1219029 175.35185311 -217.1219029 175.35185311 -219.1875 175.5 C-217.81996283 184.97233762 -216.10544183 194.34759519 -214.22241211 203.72949219 C-213.92794319 205.20755437 -213.63371506 206.68566455 -213.33970642 208.16381836 C-212.54910301 212.13460759 -211.75489577 216.10466748 -210.95977092 220.07455349 C-210.29500486 223.39527527 -209.63201498 226.71635067 -208.96900469 230.03742337 C-207.4066785 237.86303915 -205.84138365 245.688057 -204.27416992 253.51269531 C-202.65681869 261.58791606 -201.04442562 269.66411575 -199.4344272 277.74080539 C-198.04947804 284.68765492 -196.66156825 291.63390832 -195.27123648 298.57968259 C-194.44179178 302.72352982 -193.61347279 306.867594 -192.78797722 311.01222992 C-192.01409889 314.89700833 -191.23653809 318.78103121 -190.45606422 322.66448975 C-190.16971359 324.09253719 -189.8846879 325.52085102 -189.60105133 326.94944 C-189.21531075 328.89121443 -188.82441511 330.83196271 -188.43321228 332.77264404 C-188.21550139 333.86098919 -187.99779051 334.94933434 -187.77348232 336.07065964 C-187.42674285 338.4346192 -187.42674285 338.4346192 -186.1875 339.5 C-184.29008524 339.59764917 -182.38897657 339.6237133 -180.48905087 339.62304783 C-179.2434876 339.62503888 -177.99792433 339.62702993 -176.71461672 339.62908131 C-175.31445926 339.62622772 -173.91430199 339.62328211 -172.5141449 339.62025452 C-171.04072792 339.62069009 -169.56731102 339.62156474 -168.09389454 339.62284368 C-164.02578224 339.6250914 -159.95769602 339.6210636 -155.88958704 339.61606562 C-151.50987726 339.61176525 -147.13016906 339.61320725 -142.75045776 339.6139679 C-135.1559101 339.6144934 -127.561371 339.6113439 -119.96682549 339.60573006 C-108.98625591 339.59761855 -98.00569049 339.5950002 -87.02511824 339.59374207 C-69.2118115 339.59155099 -51.39850933 339.58488942 -33.58520508 339.57543945 C-16.27661156 339.56626676 1.03198072 339.55918523 18.34057617 339.55493164 C19.40667087 339.55466892 20.47276557 339.55440619 21.57116617 339.55413551 C26.91920896 339.55283051 32.26725177 339.5515668 37.61529458 339.55032361 C82.01436622 339.53994928 126.41343287 339.52232947 170.8125 339.5 C173.95242665 323.82401529 177.09116777 308.14779367 180.2286005 292.47130966 C181.68628975 285.18796 183.14433493 277.90468196 184.60327148 270.62158203 C192.19285551 232.79461398 192.19285551 232.79461398 199.66988945 194.94532013 C199.96645294 193.43051093 200.2638882 191.91587209 200.56227303 190.40142059 C200.95642448 188.39871246 201.34640205 186.39518416 201.73608398 184.39160156 C202.05246071 182.77103851 202.05246071 182.77103851 202.37522888 181.11773682 C202.89487943 178.44916753 202.89487943 178.44916753 202.8125 175.5 C196.60208286 177.12827744 191.45768137 180.48526295 186 183.75 C177.49614888 188.77736853 168.94816283 193.7025605 160.3125 198.5 C152.15679996 203.03980386 144.05268402 207.6548297 136 212.375 C127.67104989 217.25672294 119.32281841 222.10212106 110.94351196 226.89678955 C109.19175388 227.89929763 107.4409505 228.90347338 105.69018555 229.90771484 C102.4048249 231.78485713 99.10992267 233.6441432 95.8125 235.5 C95.23891754 235.82902313 94.66533508 236.15804626 94.07437134 236.49703979 C92.34987841 237.48518188 90.61640541 238.4575989 88.8828125 239.4296875 C87.87105957 240.00315918 86.85930664 240.57663086 85.81689453 241.16748047 C80.82531562 243.38136294 76.1319424 243.48389686 70.8125 242.5 C63.64526464 239.4283277 61.6624374 232.67668728 58.86726379 225.85507202 C58.17719528 224.125354 57.49093898 222.39411177 56.80786133 220.66162109 C56.42758632 219.70555843 56.04731131 218.74949577 55.65551281 217.76446152 C54.39856809 214.60208002 53.14658786 211.43775712 51.89453125 208.2734375 C51.00360166 206.02963739 50.11231822 203.78597775 49.22070312 201.54244995 C47.33043935 196.78445812 45.44218341 192.02567677 43.55557251 187.26623535 C39.16511939 176.19081761 34.76425075 165.11953857 30.36328697 154.04829407 C29.3912039 151.60281557 28.41924083 149.15728937 27.44739723 146.7117157 C19.23021583 126.0347255 10.96181549 105.37903236 2.625 84.75 C2.36259647 84.10053154 2.10019295 83.45106308 1.8298378 82.78191376 C-1.17175052 75.35291101 -4.17661122 67.92523878 -7.1875 60.5 C-7.8475 60.5 -8.5075 60.5 -9.1875 60.5 Z M-184.1875 371.5 C-184.1875 388.99 -184.1875 406.48 -184.1875 424.5 C-68.0275 424.5 48.1325 424.5 167.8125 424.5 C167.8125 407.01 167.8125 389.52 167.8125 371.5 C51.6525 371.5 -64.5075 371.5 -184.1875 371.5 Z " fill="#000000" transform="translate(264.1875,28.5)"/>
</svg>
